<?xml version="1.0" encoding="UTF-8"?>
<svg xmlns="http://www.w3.org/2000/svg" xmlns:xlink="http://www.w3.org/1999/xlink" width="473pt" height="254pt" viewBox="0 0 473 254" version="1.1">
<defs>
<g>
<symbol overflow="visible" id="glyph0-0">
<path style="stroke:none;" d="M 1.25 0 L 1.25 -6.25 L 6.25 -6.25 L 6.25 0 Z M 1.40625 -0.15625 L 6.09375 -0.15625 L 6.09375 -6.09375 L 1.40625 -6.09375 Z M 1.40625 -0.15625 "/>
</symbol>
<symbol overflow="visible" id="glyph0-1">
<path style="stroke:none;" d="M 0.414063 -3.53125 C 0.410156 -4.375 0.496094 -5.054688 0.675781 -5.574219 C 0.847656 -6.085938 1.109375 -6.484375 1.453125 -6.765625 C 1.796875 -7.042969 2.226563 -7.183594 2.75 -7.1875 C 3.128906 -7.183594 3.464844 -7.105469 3.757813 -6.953125 C 4.046875 -6.796875 4.289063 -6.574219 4.476563 -6.285156 C 4.664063 -5.992188 4.8125 -5.636719 4.921875 -5.222656 C 5.027344 -4.800781 5.078125 -4.238281 5.082031 -3.53125 C 5.078125 -2.6875 4.992188 -2.007813 4.824219 -1.496094 C 4.648438 -0.976563 4.390625 -0.578125 4.050781 -0.300781 C 3.703125 -0.0195313 3.269531 0.117188 2.75 0.121094 C 2.054688 0.117188 1.515625 -0.128906 1.125 -0.621094 C 0.648438 -1.214844 0.410156 -2.183594 0.414063 -3.53125 Z M 1.320313 -3.53125 C 1.316406 -2.355469 1.453125 -1.574219 1.730469 -1.183594 C 2.003906 -0.792969 2.34375 -0.597656 2.75 -0.601563 C 3.148438 -0.597656 3.488281 -0.792969 3.765625 -1.1875 C 4.039063 -1.574219 4.175781 -2.355469 4.179688 -3.53125 C 4.175781 -4.707031 4.039063 -5.488281 3.765625 -5.878906 C 3.488281 -6.261719 3.144531 -6.457031 2.738281 -6.460938 C 2.332031 -6.457031 2.011719 -6.285156 1.773438 -5.949219 C 1.46875 -5.507813 1.316406 -4.703125 1.320313 -3.53125 Z M 1.320313 -3.53125 "/>
</symbol>
<symbol overflow="visible" id="glyph0-2">
<path style="stroke:none;" d="M 0.910156 0 L 0.910156 -1 L 1.910156 -1 L 1.910156 0 Z M 0.910156 0 "/>
</symbol>
<symbol overflow="visible" id="glyph0-3">
<path style="stroke:none;" d="M 0.414063 -1.875 L 1.339844 -1.953125 C 1.40625 -1.5 1.5625 -1.164063 1.8125 -0.941406 C 2.058594 -0.710938 2.359375 -0.597656 2.714844 -0.601563 C 3.136719 -0.597656 3.496094 -0.757813 3.789063 -1.078125 C 4.082031 -1.398438 4.230469 -1.820313 4.230469 -2.347656 C 4.230469 -2.847656 4.085938 -3.242188 3.804688 -3.535156 C 3.519531 -3.820313 3.152344 -3.964844 2.699219 -3.96875 C 2.414063 -3.964844 2.160156 -3.902344 1.933594 -3.777344 C 1.707031 -3.648438 1.527344 -3.480469 1.398438 -3.277344 L 0.570313 -3.382813 L 1.265625 -7.0625 L 4.824219 -7.0625 L 4.824219 -6.222656 L 1.96875 -6.222656 L 1.582031 -4.296875 C 2.011719 -4.59375 2.460938 -4.746094 2.933594 -4.746094 C 3.554688 -4.746094 4.082031 -4.527344 4.515625 -4.097656 C 4.941406 -3.660156 5.15625 -3.105469 5.160156 -2.425781 C 5.15625 -1.777344 4.96875 -1.214844 4.59375 -0.746094 C 4.132813 -0.167969 3.503906 0.117188 2.714844 0.121094 C 2.058594 0.117188 1.527344 -0.0625 1.121094 -0.425781 C 0.707031 -0.789063 0.472656 -1.273438 0.414063 -1.875 Z M 0.414063 -1.875 "/>
</symbol>
<symbol overflow="visible" id="glyph0-4">
<path style="stroke:none;" d="M 3.726563 0 L 2.847656 0 L 2.847656 -5.601563 C 2.636719 -5.398438 2.359375 -5.195313 2.015625 -4.992188 C 1.671875 -4.789063 1.363281 -4.636719 1.089844 -4.542969 L 1.089844 -5.390625 C 1.582031 -5.621094 2.011719 -5.898438 2.378906 -6.230469 C 2.746094 -6.554688 3.003906 -6.875 3.160156 -7.1875 L 3.726563 -7.1875 Z M 3.726563 0 "/>
</symbol>
<symbol overflow="visible" id="glyph0-5">
<path style="stroke:none;" d="M 5.035156 -0.84375 L 5.035156 0 L 0.304688 0 C 0.296875 -0.210938 0.328125 -0.414063 0.40625 -0.609375 C 0.523438 -0.929688 0.71875 -1.246094 0.984375 -1.5625 C 1.25 -1.871094 1.632813 -2.234375 2.132813 -2.648438 C 2.910156 -3.285156 3.433594 -3.789063 3.710938 -4.164063 C 3.980469 -4.535156 4.117188 -4.886719 4.121094 -5.21875 C 4.117188 -5.566406 3.992188 -5.859375 3.746094 -6.101563 C 3.496094 -6.335938 3.171875 -6.457031 2.773438 -6.460938 C 2.347656 -6.457031 2.011719 -6.328125 1.757813 -6.078125 C 1.503906 -5.820313 1.375 -5.46875 1.371094 -5.023438 L 0.46875 -5.117188 C 0.53125 -5.789063 0.761719 -6.304688 1.167969 -6.65625 C 1.566406 -7.007813 2.109375 -7.183594 2.792969 -7.1875 C 3.476563 -7.183594 4.019531 -6.992188 4.421875 -6.617188 C 4.820313 -6.234375 5.019531 -5.761719 5.023438 -5.199219 C 5.019531 -4.910156 4.960938 -4.628906 4.847656 -4.355469 C 4.726563 -4.074219 4.535156 -3.785156 4.265625 -3.480469 C 3.992188 -3.175781 3.539063 -2.753906 2.910156 -2.222656 C 2.382813 -1.777344 2.042969 -1.476563 1.894531 -1.320313 C 1.742188 -1.160156 1.621094 -1.003906 1.523438 -0.84375 Z M 5.035156 -0.84375 "/>
</symbol>
<symbol overflow="visible" id="glyph0-6">
<path style="stroke:none;" d="M 0.421875 -1.890625 L 1.300781 -2.007813 C 1.398438 -1.507813 1.566406 -1.148438 1.8125 -0.929688 C 2.054688 -0.707031 2.351563 -0.597656 2.699219 -0.601563 C 3.109375 -0.597656 3.457031 -0.742188 3.746094 -1.03125 C 4.027344 -1.316406 4.171875 -1.667969 4.175781 -2.09375 C 4.171875 -2.492188 4.039063 -2.828125 3.777344 -3.09375 C 3.511719 -3.355469 3.175781 -3.484375 2.773438 -3.488281 C 2.601563 -3.484375 2.394531 -3.453125 2.152344 -3.390625 L 2.25 -4.160156 C 2.308594 -4.152344 2.355469 -4.148438 2.394531 -4.152344 C 2.765625 -4.148438 3.101563 -4.246094 3.402344 -4.445313 C 3.699219 -4.636719 3.847656 -4.9375 3.851563 -5.347656 C 3.847656 -5.667969 3.738281 -5.933594 3.523438 -6.148438 C 3.304688 -6.355469 3.023438 -6.460938 2.679688 -6.464844 C 2.335938 -6.460938 2.050781 -6.355469 1.824219 -6.140625 C 1.59375 -5.925781 1.449219 -5.601563 1.386719 -5.175781 L 0.507813 -5.332031 C 0.613281 -5.917969 0.855469 -6.371094 1.238281 -6.699219 C 1.617188 -7.019531 2.09375 -7.183594 2.660156 -7.1875 C 3.050781 -7.183594 3.410156 -7.097656 3.738281 -6.933594 C 4.066406 -6.761719 4.316406 -6.535156 4.496094 -6.25 C 4.667969 -5.957031 4.757813 -5.648438 4.757813 -5.328125 C 4.757813 -5.015625 4.671875 -4.734375 4.507813 -4.480469 C 4.335938 -4.226563 4.089844 -4.027344 3.769531 -3.878906 C 4.191406 -3.777344 4.523438 -3.574219 4.757813 -3.269531 C 4.992188 -2.960938 5.109375 -2.574219 5.109375 -2.113281 C 5.109375 -1.484375 4.878906 -0.953125 4.425781 -0.523438 C 3.964844 -0.0859375 3.390625 0.128906 2.695313 0.128906 C 2.066406 0.128906 1.542969 -0.0585938 1.128906 -0.433594 C 0.710938 -0.808594 0.476563 -1.292969 0.421875 -1.890625 Z M 0.421875 -1.890625 "/>
</symbol>
<symbol overflow="visible" id="glyph0-7">
<path style="stroke:none;" d="M 3.234375 0 L 3.234375 -1.714844 L 0.128906 -1.714844 L 0.128906 -2.519531 L 3.394531 -7.160156 L 4.113281 -7.160156 L 4.113281 -2.519531 L 5.078125 -2.519531 L 5.078125 -1.714844 L 4.113281 -1.714844 L 4.113281 0 Z M 3.234375 -2.519531 L 3.234375 -5.746094 L 0.992188 -2.519531 Z M 3.234375 -2.519531 "/>
</symbol>
<symbol overflow="visible" id="glyph0-8">
<path style="stroke:none;" d="M 4.976563 -5.40625 L 4.101563 -5.335938 C 4.023438 -5.679688 3.910156 -5.929688 3.769531 -6.089844 C 3.527344 -6.335938 3.234375 -6.460938 2.890625 -6.464844 C 2.609375 -6.460938 2.363281 -6.382813 2.152344 -6.230469 C 1.871094 -6.027344 1.65625 -5.734375 1.5 -5.347656 C 1.339844 -4.957031 1.253906 -4.40625 1.25 -3.691406 C 1.457031 -4.011719 1.714844 -4.25 2.023438 -4.410156 C 2.328125 -4.5625 2.652344 -4.640625 2.988281 -4.644531 C 3.574219 -4.640625 4.070313 -4.425781 4.484375 -3.996094 C 4.890625 -3.566406 5.097656 -3.007813 5.101563 -2.324219 C 5.097656 -1.875 5 -1.457031 4.8125 -1.070313 C 4.617188 -0.683594 4.351563 -0.386719 4.015625 -0.183594 C 3.671875 0.0195313 3.289063 0.117188 2.863281 0.121094 C 2.125 0.117188 1.527344 -0.148438 1.066406 -0.6875 C 0.605469 -1.222656 0.375 -2.113281 0.375 -3.351563 C 0.375 -4.734375 0.628906 -5.738281 1.144531 -6.367188 C 1.585938 -6.910156 2.1875 -7.183594 2.945313 -7.1875 C 3.503906 -7.183594 3.964844 -7.027344 4.328125 -6.714844 C 4.683594 -6.398438 4.898438 -5.960938 4.976563 -5.40625 Z M 1.386719 -2.320313 C 1.382813 -2.015625 1.445313 -1.722656 1.578125 -1.449219 C 1.703125 -1.167969 1.882813 -0.957031 2.117188 -0.816406 C 2.34375 -0.667969 2.589844 -0.597656 2.847656 -0.601563 C 3.214844 -0.597656 3.53125 -0.746094 3.800781 -1.050781 C 4.066406 -1.347656 4.199219 -1.753906 4.203125 -2.269531 C 4.199219 -2.761719 4.070313 -3.152344 3.808594 -3.4375 C 3.542969 -3.722656 3.210938 -3.867188 2.8125 -3.867188 C 2.414063 -3.867188 2.074219 -3.722656 1.800781 -3.4375 C 1.519531 -3.152344 1.382813 -2.78125 1.386719 -2.320313 Z M 1.386719 -2.320313 "/>
</symbol>
<symbol overflow="visible" id="glyph0-9">
<path style="stroke:none;" d="M 0.472656 -6.222656 L 0.472656 -7.066406 L 5.109375 -7.066406 L 5.109375 -6.382813 C 4.652344 -5.894531 4.199219 -5.25 3.753906 -4.449219 C 3.304688 -3.640625 2.957031 -2.816406 2.714844 -1.96875 C 2.535156 -1.367188 2.425781 -0.710938 2.378906 0 L 1.476563 0 C 1.484375 -0.5625 1.59375 -1.242188 1.804688 -2.039063 C 2.015625 -2.835938 2.320313 -3.605469 2.71875 -4.347656 C 3.113281 -5.089844 3.53125 -5.714844 3.980469 -6.222656 Z M 0.472656 -6.222656 "/>
</symbol>
<symbol overflow="visible" id="glyph0-10">
<path style="stroke:none;" d="M 0.0742188 0 L 1.96875 -2.695313 L 0.214844 -5.1875 L 1.3125 -5.1875 L 2.109375 -3.96875 C 2.257813 -3.734375 2.378906 -3.542969 2.472656 -3.390625 C 2.613281 -3.601563 2.742188 -3.792969 2.867188 -3.960938 L 3.742188 -5.1875 L 4.789063 -5.1875 L 3 -2.746094 L 4.925781 0 L 3.847656 0 L 2.785156 -1.613281 L 2.5 -2.046875 L 1.136719 0 Z M 0.0742188 0 "/>
</symbol>
<symbol overflow="visible" id="glyph1-0">
<path style="stroke:none;" d="M 0 -1.25 L -6.25 -1.25 L -6.25 -6.25 L 0 -6.25 Z M -0.15625 -1.40625 L -0.15625 -6.09375 L -6.09375 -6.09375 L -6.09375 -1.40625 Z M -0.15625 -1.40625 "/>
</symbol>
<symbol overflow="visible" id="glyph1-1">
<path style="stroke:none;" d="M 1.996094 -0.621094 L 1.171875 -0.523438 C 1.222656 -0.710938 1.246094 -0.878906 1.25 -1.027344 C 1.246094 -1.21875 1.214844 -1.375 1.152344 -1.496094 C 1.085938 -1.609375 0.996094 -1.707031 0.878906 -1.78125 C 0.789063 -1.835938 0.570313 -1.925781 0.226563 -2.050781 C 0.175781 -2.066406 0.105469 -2.089844 0.0117188 -2.128906 L -5.1875 -0.160156 L -5.1875 -1.109375 L -2.183594 -2.1875 C -1.800781 -2.324219 -1.398438 -2.449219 -0.980469 -2.5625 C -1.378906 -2.660156 -1.773438 -2.78125 -2.164063 -2.925781 L -5.1875 -4.035156 L -5.1875 -4.914063 L 0.0898438 -2.941406 C 0.652344 -2.726563 1.046875 -2.558594 1.265625 -2.445313 C 1.554688 -2.285156 1.765625 -2.105469 1.902344 -1.90625 C 2.035156 -1.703125 2.101563 -1.464844 2.105469 -1.1875 C 2.101563 -1.015625 2.066406 -0.828125 1.996094 -0.621094 Z M 1.996094 -0.621094 "/>
</symbol>
<symbol overflow="visible" id="glyph2-0">
<path style="stroke:none;" d="M 1.625 0 L 1.625 -8.125 L 8.125 -8.125 L 8.125 0 Z M 1.828125 -0.203125 L 7.921875 -0.203125 L 7.921875 -7.921875 L 1.828125 -7.921875 Z M 1.828125 -0.203125 "/>
</symbol>
<symbol overflow="visible" id="glyph2-1">
<path style="stroke:none;" d="M 0.992188 0 L 0.992188 -9.304688 L 2.253906 -9.304688 L 7.140625 -2 L 7.140625 -9.304688 L 8.320313 -9.304688 L 8.320313 0 L 7.058594 0 L 2.171875 -7.3125 L 2.171875 0 Z M 0.992188 0 "/>
</symbol>
<symbol overflow="visible" id="glyph2-2">
<path style="stroke:none;" d="M 1.003906 0 L 1.003906 -9.304688 L 4.207031 -9.304688 C 4.929688 -9.304688 5.480469 -9.257813 5.867188 -9.171875 C 6.394531 -9.046875 6.851563 -8.828125 7.230469 -8.507813 C 7.71875 -8.089844 8.082031 -7.558594 8.328125 -6.914063 C 8.570313 -6.269531 8.695313 -5.53125 8.695313 -4.703125 C 8.695313 -3.996094 8.613281 -3.371094 8.449219 -2.824219 C 8.285156 -2.277344 8.070313 -1.824219 7.8125 -1.46875 C 7.550781 -1.109375 7.269531 -0.828125 6.964844 -0.625 C 6.65625 -0.417969 6.285156 -0.261719 5.855469 -0.15625 C 5.417969 -0.0507813 4.921875 0 4.359375 0 Z M 2.234375 -1.097656 L 4.222656 -1.097656 C 4.832031 -1.09375 5.3125 -1.152344 5.664063 -1.269531 C 6.011719 -1.382813 6.289063 -1.542969 6.5 -1.753906 C 6.789063 -2.042969 7.015625 -2.4375 7.179688 -2.929688 C 7.339844 -3.421875 7.421875 -4.019531 7.425781 -4.722656 C 7.421875 -5.695313 7.261719 -6.441406 6.945313 -6.964844 C 6.625 -7.484375 6.238281 -7.835938 5.78125 -8.015625 C 5.449219 -8.140625 4.917969 -8.203125 4.191406 -8.207031 L 2.234375 -8.207031 Z M 2.234375 -1.097656 "/>
</symbol>
<symbol overflow="visible" id="glyph2-3">
<path style="stroke:none;" d="M 0.585938 -2.988281 L 1.746094 -3.089844 C 1.800781 -2.621094 1.925781 -2.242188 2.128906 -1.945313 C 2.324219 -1.648438 2.636719 -1.40625 3.0625 -1.222656 C 3.484375 -1.035156 3.960938 -0.941406 4.496094 -0.945313 C 4.960938 -0.941406 5.375 -1.011719 5.738281 -1.152344 C 6.09375 -1.289063 6.363281 -1.480469 6.539063 -1.726563 C 6.714844 -1.96875 6.800781 -2.234375 6.804688 -2.527344 C 6.800781 -2.816406 6.71875 -3.070313 6.550781 -3.289063 C 6.378906 -3.503906 6.097656 -3.6875 5.714844 -3.839844 C 5.460938 -3.933594 4.910156 -4.085938 4.054688 -4.292969 C 3.199219 -4.496094 2.601563 -4.691406 2.261719 -4.875 C 1.816406 -5.105469 1.484375 -5.390625 1.265625 -5.738281 C 1.046875 -6.082031 0.9375 -6.46875 0.941406 -6.898438 C 0.9375 -7.367188 1.070313 -7.808594 1.339844 -8.214844 C 1.601563 -8.621094 1.992188 -8.929688 2.507813 -9.144531 C 3.019531 -9.355469 3.585938 -9.460938 4.214844 -9.464844 C 4.902344 -9.460938 5.511719 -9.351563 6.039063 -9.128906 C 6.566406 -8.90625 6.972656 -8.578125 7.253906 -8.148438 C 7.535156 -7.714844 7.6875 -7.226563 7.710938 -6.683594 L 6.53125 -6.59375 C 6.464844 -7.179688 6.25 -7.625 5.886719 -7.925781 C 5.519531 -8.226563 4.980469 -8.378906 4.265625 -8.378906 C 3.519531 -8.378906 2.976563 -8.242188 2.636719 -7.96875 C 2.292969 -7.695313 2.121094 -7.367188 2.125 -6.984375 C 2.121094 -6.648438 2.242188 -6.371094 2.488281 -6.15625 C 2.722656 -5.9375 3.339844 -5.714844 4.34375 -5.492188 C 5.34375 -5.265625 6.03125 -5.070313 6.40625 -4.902344 C 6.945313 -4.648438 7.347656 -4.332031 7.605469 -3.953125 C 7.863281 -3.566406 7.992188 -3.125 7.992188 -2.628906 C 7.992188 -2.132813 7.847656 -1.664063 7.566406 -1.226563 C 7.277344 -0.785156 6.871094 -0.445313 6.34375 -0.203125 C 5.808594 0.0390625 5.210938 0.15625 4.550781 0.160156 C 3.707031 0.15625 3 0.0390625 2.433594 -0.207031 C 1.863281 -0.449219 1.417969 -0.820313 1.09375 -1.316406 C 0.769531 -1.808594 0.601563 -2.367188 0.585938 -2.988281 Z M 0.585938 -2.988281 "/>
</symbol>
<symbol overflow="visible" id="glyph2-4">
<path style="stroke:none;" d="M 0.433594 -3.371094 C 0.433594 -4.613281 0.777344 -5.539063 1.472656 -6.144531 C 2.050781 -6.640625 2.757813 -6.890625 3.59375 -6.894531 C 4.515625 -6.890625 5.273438 -6.585938 5.863281 -5.980469 C 6.449219 -5.371094 6.742188 -4.53125 6.746094 -3.464844 C 6.742188 -2.59375 6.613281 -1.914063 6.355469 -1.417969 C 6.09375 -0.917969 5.714844 -0.53125 5.222656 -0.257813 C 4.722656 0.015625 4.179688 0.152344 3.59375 0.152344 C 2.644531 0.152344 1.882813 -0.148438 1.304688 -0.753906 C 0.722656 -1.359375 0.433594 -2.230469 0.433594 -3.371094 Z M 1.605469 -3.371094 C 1.605469 -2.503906 1.792969 -1.859375 2.167969 -1.429688 C 2.542969 -1 3.015625 -0.785156 3.59375 -0.789063 C 4.15625 -0.785156 4.628906 -1 5.007813 -1.433594 C 5.382813 -1.863281 5.570313 -2.523438 5.574219 -3.410156 C 5.570313 -4.242188 5.382813 -4.871094 5.003906 -5.304688 C 4.625 -5.730469 4.152344 -5.945313 3.59375 -5.949219 C 3.015625 -5.945313 2.542969 -5.730469 2.167969 -5.304688 C 1.792969 -4.875 1.605469 -4.230469 1.605469 -3.371094 Z M 1.605469 -3.371094 "/>
</symbol>
<symbol overflow="visible" id="glyph2-5">
<path style="stroke:none;" d="M 0.832031 0 L 0.832031 -9.304688 L 1.972656 -9.304688 L 1.972656 0 Z M 0.832031 0 "/>
</symbol>
<symbol overflow="visible" id="glyph2-6">
<path style="stroke:none;" d="M 2.730469 0 L 0.164063 -6.742188 L 1.371094 -6.742188 L 2.820313 -2.703125 C 2.972656 -2.265625 3.117188 -1.816406 3.25 -1.347656 C 3.347656 -1.699219 3.488281 -2.125 3.675781 -2.628906 L 5.171875 -6.742188 L 6.347656 -6.742188 L 3.796875 0 Z M 2.730469 0 "/>
</symbol>
<symbol overflow="visible" id="glyph2-7">
<path style="stroke:none;" d="M 5.472656 -2.171875 L 6.652344 -2.023438 C 6.464844 -1.332031 6.121094 -0.796875 5.617188 -0.417969 C 5.113281 -0.0351563 4.46875 0.152344 3.6875 0.152344 C 2.699219 0.152344 1.917969 -0.148438 1.34375 -0.757813 C 0.761719 -1.359375 0.472656 -2.210938 0.476563 -3.3125 C 0.472656 -4.445313 0.765625 -5.328125 1.351563 -5.953125 C 1.933594 -6.578125 2.691406 -6.890625 3.625 -6.894531 C 4.523438 -6.890625 5.257813 -6.582031 5.832031 -5.972656 C 6.402344 -5.355469 6.691406 -4.492188 6.691406 -3.382813 C 6.691406 -3.3125 6.6875 -3.210938 6.683594 -3.078125 L 1.65625 -3.078125 C 1.695313 -2.335938 1.90625 -1.769531 2.285156 -1.378906 C 2.660156 -0.980469 3.128906 -0.785156 3.695313 -0.789063 C 4.113281 -0.785156 4.46875 -0.894531 4.765625 -1.117188 C 5.058594 -1.335938 5.296875 -1.6875 5.472656 -2.171875 Z M 1.71875 -4.019531 L 5.484375 -4.019531 C 5.433594 -4.582031 5.289063 -5.003906 5.054688 -5.292969 C 4.6875 -5.730469 4.214844 -5.953125 3.636719 -5.953125 C 3.109375 -5.953125 2.667969 -5.777344 2.3125 -5.425781 C 1.953125 -5.074219 1.753906 -4.605469 1.71875 -4.019531 Z M 1.71875 -4.019531 "/>
</symbol>
<symbol overflow="visible" id="glyph2-8">
<path style="stroke:none;" d="M 0.398438 -2.011719 L 1.53125 -2.191406 C 1.589844 -1.738281 1.765625 -1.390625 2.058594 -1.148438 C 2.347656 -0.90625 2.753906 -0.785156 3.277344 -0.789063 C 3.796875 -0.785156 4.1875 -0.890625 4.441406 -1.109375 C 4.695313 -1.320313 4.820313 -1.570313 4.824219 -1.859375 C 4.820313 -2.113281 4.710938 -2.316406 4.488281 -2.46875 C 4.332031 -2.566406 3.941406 -2.695313 3.320313 -2.855469 C 2.480469 -3.066406 1.898438 -3.25 1.578125 -3.40625 C 1.25 -3.554688 1.003906 -3.769531 0.839844 -4.046875 C 0.667969 -4.316406 0.585938 -4.617188 0.589844 -4.953125 C 0.585938 -5.25 0.65625 -5.527344 0.796875 -5.785156 C 0.933594 -6.039063 1.121094 -6.253906 1.359375 -6.425781 C 1.535156 -6.554688 1.777344 -6.664063 2.085938 -6.757813 C 2.390625 -6.84375 2.71875 -6.890625 3.074219 -6.894531 C 3.601563 -6.890625 4.066406 -6.8125 4.464844 -6.664063 C 4.863281 -6.507813 5.15625 -6.304688 5.351563 -6.046875 C 5.539063 -5.785156 5.671875 -5.4375 5.746094 -5.003906 L 4.628906 -4.851563 C 4.574219 -5.195313 4.425781 -5.464844 4.183594 -5.660156 C 3.941406 -5.855469 3.597656 -5.953125 3.15625 -5.953125 C 2.628906 -5.953125 2.253906 -5.863281 2.03125 -5.691406 C 1.804688 -5.515625 1.691406 -5.316406 1.695313 -5.085938 C 1.691406 -4.9375 1.738281 -4.800781 1.835938 -4.683594 C 1.921875 -4.558594 2.070313 -4.457031 2.273438 -4.378906 C 2.386719 -4.332031 2.722656 -4.238281 3.28125 -4.089844 C 4.089844 -3.871094 4.652344 -3.691406 4.972656 -3.558594 C 5.289063 -3.417969 5.539063 -3.21875 5.726563 -2.957031 C 5.90625 -2.695313 6 -2.371094 6 -1.980469 C 6 -1.597656 5.886719 -1.238281 5.664063 -0.902344 C 5.441406 -0.566406 5.121094 -0.304688 4.703125 -0.121094 C 4.28125 0.0625 3.808594 0.152344 3.28125 0.152344 C 2.40625 0.152344 1.738281 -0.0273438 1.277344 -0.394531 C 0.816406 -0.753906 0.523438 -1.292969 0.398438 -2.011719 Z M 0.398438 -2.011719 "/>
</symbol>
<symbol overflow="visible" id="glyph2-9">
<path style="stroke:none;" d="M 1.179688 0 L 1.179688 -1.300781 L 2.480469 -1.300781 L 2.480469 0 Z M 1.179688 0 "/>
</symbol>
<symbol overflow="visible" id="glyph2-10">
<path style="stroke:none;" d="M 1.027344 0 L 1.027344 -9.304688 L 7.757813 -9.304688 L 7.757813 -8.207031 L 2.261719 -8.207031 L 2.261719 -5.359375 L 7.40625 -5.359375 L 7.40625 -4.265625 L 2.261719 -4.265625 L 2.261719 -1.097656 L 7.972656 -1.097656 L 7.972656 0 Z M 1.027344 0 "/>
</symbol>
<symbol overflow="visible" id="glyph2-11">
<path style="stroke:none;" d="M 0.09375 0 L 2.558594 -3.503906 L 0.28125 -6.742188 L 1.707031 -6.742188 L 2.742188 -5.160156 C 2.9375 -4.859375 3.09375 -4.609375 3.210938 -4.40625 C 3.398438 -4.683594 3.570313 -4.929688 3.726563 -5.148438 L 4.863281 -6.742188 L 6.226563 -6.742188 L 3.898438 -3.566406 L 6.40625 0 L 5.003906 0 L 3.617188 -2.09375 L 3.25 -2.660156 L 1.480469 0 Z M 0.09375 0 "/>
</symbol>
<symbol overflow="visible" id="glyph2-12">
<path style="stroke:none;" d="M 5.257813 -0.832031 C 4.828125 -0.472656 4.421875 -0.21875 4.03125 -0.0703125 C 3.640625 0.078125 3.21875 0.152344 2.773438 0.152344 C 2.03125 0.152344 1.464844 -0.0273438 1.066406 -0.390625 C 0.667969 -0.75 0.46875 -1.210938 0.46875 -1.777344 C 0.46875 -2.105469 0.542969 -2.40625 0.695313 -2.679688 C 0.84375 -2.949219 1.039063 -3.167969 1.285156 -3.335938 C 1.527344 -3.5 1.804688 -3.628906 2.109375 -3.714844 C 2.332031 -3.769531 2.667969 -3.824219 3.125 -3.886719 C 4.042969 -3.992188 4.722656 -4.125 5.160156 -4.277344 C 5.164063 -4.433594 5.167969 -4.53125 5.167969 -4.578125 C 5.167969 -5.039063 5.058594 -5.367188 4.84375 -5.5625 C 4.550781 -5.816406 4.117188 -5.945313 3.542969 -5.949219 C 3 -5.945313 2.601563 -5.851563 2.351563 -5.664063 C 2.09375 -5.472656 1.90625 -5.140625 1.785156 -4.664063 L 0.667969 -4.816406 C 0.769531 -5.292969 0.933594 -5.679688 1.167969 -5.976563 C 1.394531 -6.269531 1.730469 -6.496094 2.175781 -6.65625 C 2.613281 -6.8125 3.125 -6.890625 3.707031 -6.894531 C 4.28125 -6.890625 4.75 -6.824219 5.109375 -6.691406 C 5.46875 -6.554688 5.730469 -6.382813 5.902344 -6.179688 C 6.066406 -5.972656 6.1875 -5.714844 6.257813 -5.402344 C 6.296875 -5.207031 6.316406 -4.855469 6.316406 -4.347656 L 6.316406 -2.824219 C 6.316406 -1.761719 6.339844 -1.089844 6.386719 -0.808594 C 6.433594 -0.527344 6.53125 -0.257813 6.679688 0 L 5.484375 0 C 5.367188 -0.234375 5.289063 -0.511719 5.257813 -0.832031 Z M 5.160156 -3.382813 C 4.742188 -3.210938 4.121094 -3.070313 3.292969 -2.953125 C 2.824219 -2.882813 2.492188 -2.804688 2.296875 -2.722656 C 2.101563 -2.636719 1.949219 -2.511719 1.847656 -2.351563 C 1.738281 -2.1875 1.6875 -2.007813 1.6875 -1.808594 C 1.6875 -1.5 1.800781 -1.246094 2.03125 -1.046875 C 2.261719 -0.839844 2.601563 -0.738281 3.046875 -0.742188 C 3.484375 -0.738281 3.875 -0.835938 4.21875 -1.03125 C 4.5625 -1.222656 4.8125 -1.484375 4.976563 -1.820313 C 5.09375 -2.078125 5.15625 -2.460938 5.160156 -2.964844 Z M 5.160156 -3.382813 "/>
</symbol>
<symbol overflow="visible" id="glyph2-13">
<path style="stroke:none;" d="M 5.257813 -2.46875 L 6.378906 -2.324219 C 6.253906 -1.546875 5.941406 -0.941406 5.4375 -0.503906 C 4.929688 -0.0664063 4.308594 0.152344 3.574219 0.152344 C 2.652344 0.152344 1.910156 -0.148438 1.347656 -0.75 C 0.785156 -1.351563 0.503906 -2.214844 0.507813 -3.34375 C 0.503906 -4.070313 0.625 -4.707031 0.867188 -5.253906 C 1.109375 -5.796875 1.476563 -6.207031 1.96875 -6.484375 C 2.460938 -6.753906 2.996094 -6.890625 3.582031 -6.894531 C 4.308594 -6.890625 4.90625 -6.703125 5.375 -6.335938 C 5.835938 -5.960938 6.136719 -5.4375 6.273438 -4.761719 L 5.160156 -4.589844 C 5.054688 -5.039063 4.867188 -5.378906 4.597656 -5.609375 C 4.328125 -5.835938 4.003906 -5.953125 3.625 -5.953125 C 3.046875 -5.953125 2.578125 -5.746094 2.222656 -5.332031 C 1.859375 -4.917969 1.679688 -4.265625 1.683594 -3.378906 C 1.679688 -2.46875 1.855469 -1.808594 2.203125 -1.402344 C 2.546875 -0.988281 3 -0.785156 3.5625 -0.789063 C 4.007813 -0.785156 4.378906 -0.921875 4.683594 -1.199219 C 4.980469 -1.472656 5.171875 -1.894531 5.257813 -2.46875 Z M 5.257813 -2.46875 "/>
</symbol>
<symbol overflow="visible" id="glyph2-14">
<path style="stroke:none;" d="M 3.351563 -1.023438 L 3.515625 -0.0117188 C 3.195313 0.0546875 2.90625 0.0859375 2.652344 0.0898438 C 2.234375 0.0859375 1.914063 0.0234375 1.6875 -0.105469 C 1.460938 -0.238281 1.300781 -0.410156 1.207031 -0.625 C 1.113281 -0.835938 1.066406 -1.285156 1.066406 -1.972656 L 1.066406 -5.851563 L 0.230469 -5.851563 L 0.230469 -6.742188 L 1.066406 -6.742188 L 1.066406 -8.410156 L 2.203125 -9.097656 L 2.203125 -6.742188 L 3.351563 -6.742188 L 3.351563 -5.851563 L 2.203125 -5.851563 L 2.203125 -1.910156 C 2.203125 -1.582031 2.222656 -1.371094 2.261719 -1.28125 C 2.300781 -1.1875 2.367188 -1.113281 2.460938 -1.058594 C 2.550781 -1 2.679688 -0.972656 2.851563 -0.976563 C 2.972656 -0.972656 3.140625 -0.988281 3.351563 -1.023438 Z M 3.351563 -1.023438 "/>
</symbol>
<symbol overflow="visible" id="glyph2-15">
<path style="stroke:none;" d="M 5.273438 0 L 5.273438 -0.992188 C 4.75 -0.226563 4.035156 0.152344 3.136719 0.152344 C 2.734375 0.152344 2.363281 0.078125 2.019531 -0.0742188 C 1.671875 -0.226563 1.417969 -0.417969 1.253906 -0.648438 C 1.085938 -0.878906 0.96875 -1.164063 0.902344 -1.5 C 0.855469 -1.722656 0.832031 -2.078125 0.832031 -2.566406 L 0.832031 -6.742188 L 1.972656 -6.742188 L 1.972656 -3.003906 C 1.96875 -2.40625 1.992188 -2.003906 2.042969 -1.796875 C 2.113281 -1.496094 2.265625 -1.261719 2.5 -1.089844 C 2.730469 -0.917969 3.019531 -0.832031 3.363281 -0.832031 C 3.707031 -0.832031 4.027344 -0.917969 4.328125 -1.09375 C 4.628906 -1.269531 4.84375 -1.507813 4.96875 -1.8125 C 5.09375 -2.109375 5.15625 -2.550781 5.15625 -3.128906 L 5.15625 -6.742188 L 6.296875 -6.742188 L 6.296875 0 Z M 5.273438 0 "/>
</symbol>
<symbol overflow="visible" id="glyph2-16">
<path style="stroke:none;" d="M 0.863281 -7.992188 L 0.863281 -9.304688 L 2.007813 -9.304688 L 2.007813 -7.992188 Z M 0.863281 0 L 0.863281 -6.742188 L 2.007813 -6.742188 L 2.007813 0 Z M 0.863281 0 "/>
</symbol>
<symbol overflow="visible" id="glyph2-17">
<path style="stroke:none;" d="M 0.855469 0 L 0.855469 -6.742188 L 1.886719 -6.742188 L 1.886719 -5.78125 C 2.378906 -6.519531 3.09375 -6.890625 4.03125 -6.894531 C 4.4375 -6.890625 4.808594 -6.816406 5.152344 -6.675781 C 5.488281 -6.527344 5.746094 -6.335938 5.917969 -6.101563 C 6.085938 -5.859375 6.203125 -5.578125 6.273438 -5.257813 C 6.3125 -5.039063 6.332031 -4.667969 6.335938 -4.144531 L 6.335938 0 L 5.191406 0 L 5.191406 -4.101563 C 5.191406 -4.566406 5.144531 -4.914063 5.058594 -5.144531 C 4.964844 -5.375 4.808594 -5.558594 4.585938 -5.695313 C 4.355469 -5.832031 4.089844 -5.898438 3.789063 -5.902344 C 3.300781 -5.898438 2.878906 -5.746094 2.527344 -5.4375 C 2.171875 -5.128906 1.996094 -4.542969 2 -3.683594 L 2 0 Z M 0.855469 0 "/>
</symbol>
</g>
<clipPath id="clip1">
  <path d="M 25.679688 16 L 358.558594 16 L 358.558594 220 L 25.679688 220 Z M 25.679688 16 "/>
</clipPath>
<clipPath id="clip2">
  <path d="M 370.078125 112 L 410 112 L 410 116 L 370.078125 116 Z M 370.078125 112 "/>
</clipPath>
<clipPath id="clip3">
  <path d="M 370.078125 136 L 410 136 L 410 139 L 370.078125 139 Z M 370.078125 136 "/>
</clipPath>
</defs>
<g id="surface29">
<path style=" stroke:none;fill-rule:evenodd;fill:rgb(100%,99.99969%,100%);fill-opacity:1;" d="M 0 253.199219 L 473.039063 253.199219 L 473.039063 0 L 0 0 Z M 0 253.199219 "/>
<g clip-path="url(#clip1)" clip-rule="nonzero">
<path style="fill:none;stroke-width:2;stroke-linecap:square;stroke-linejoin:miter;stroke:rgb(0%,0%,100%);stroke-opacity:1;stroke-miterlimit:3.25;" d="M 32.390625 210.402344 L 32.488281 210.382813 L 32.585938 210.367188 L 32.78125 210.332031 L 33.171875 210.257813 L 33.957031 210.117188 L 35.523438 209.828125 L 38.660156 209.242188 L 45.457031 207.929688 L 51.804688 206.65625 L 58.027344 205.355469 L 64.777344 203.890625 L 71.078125 202.460938 L 77.90625 200.847656 L 84.609375 199.199219 L 90.859375 197.59375 L 97.640625 195.785156 L 103.96875 194.023438 L 110.175781 192.226563 L 116.90625 190.195313 L 123.1875 188.222656 L 129.996094 185.996094 L 136.683594 183.714844 L 142.914063 181.5 L 149.675781 178.996094 L 155.988281 176.5625 L 162.828125 173.816406 L 169.542969 171 L 175.804688 168.265625 L 182.59375 165.179688 L 188.9375 162.175781 L 195.152344 159.109375 L 201.894531 155.648438 L 208.1875 152.285156 L 215.007813 148.488281 L 221.703125 144.59375 L 227.949219 140.816406 L 234.722656 136.546875 L 241.046875 132.394531 L 247.242188 128.164063 L 253.96875 123.382813 L 260.242188 118.734375 L 267.046875 113.484375 L 273.398438 108.378906 L 279.625 103.171875 L 286.378906 97.289063 L 292.683594 91.566406 L 299.515625 85.109375 L 306.222656 78.492188 L 312.476563 72.066406 L 319.261719 64.808594 L 325.597656 57.746094 L 331.804688 50.546875 L 338.542969 42.414063 L 344.828125 34.507813 L 345.265625 33.945313 L 345.703125 33.378906 L 346.582031 32.246094 L 348.335938 29.957031 L 348.554688 29.667969 L 348.773438 29.382813 L 349.214844 28.804688 L 350.089844 27.644531 L 350.308594 27.355469 L 350.527344 27.0625 L 350.96875 26.480469 L 351.078125 26.332031 L 351.1875 26.1875 L 351.40625 25.894531 L 351.515625 25.746094 L 351.625 25.601563 L 351.84375 25.304688 "/>
<path style="fill:none;stroke-width:2;stroke-linecap:butt;stroke-linejoin:miter;stroke:rgb(0%,0%,0%);stroke-opacity:1;stroke-dasharray:4,4;stroke-miterlimit:3.25;" d="M 32.390625 210.402344 L 32.488281 210.382813 L 32.585938 210.367188 L 32.78125 210.332031 L 33.171875 210.257813 L 33.957031 210.117188 L 35.523438 209.828125 L 38.660156 209.242188 L 45.457031 207.929688 L 51.804688 206.65625 L 58.027344 205.355469 L 64.777344 203.890625 L 71.078125 202.460938 L 77.90625 200.847656 L 84.609375 199.199219 L 90.859375 197.59375 L 97.640625 195.785156 L 103.96875 194.023438 L 110.175781 192.226563 L 116.90625 190.195313 L 123.1875 188.222656 L 129.996094 185.996094 L 136.683594 183.714844 L 142.914063 181.5 L 149.675781 178.996094 L 155.988281 176.5625 L 162.828125 173.816406 L 169.542969 171 L 175.804688 168.265625 L 182.59375 165.179688 L 188.9375 162.175781 L 195.152344 159.109375 L 201.894531 155.648438 L 208.1875 152.285156 L 215.007813 148.488281 L 221.703125 144.59375 L 227.949219 140.816406 L 234.722656 136.546875 L 241.046875 132.394531 L 247.242188 128.164063 L 253.96875 123.382813 L 260.242188 118.734375 L 267.046875 113.484375 L 273.398438 108.378906 L 279.625 103.171875 L 286.378906 97.289063 L 292.683594 91.566406 L 299.515625 85.109375 L 306.222656 78.492188 L 312.476563 72.066406 L 319.261719 64.808594 L 325.597656 57.746094 L 331.804688 50.546875 L 338.542969 42.414063 L 344.828125 34.507813 L 345.265625 33.945313 L 345.703125 33.378906 L 346.582031 32.246094 L 348.335938 29.957031 L 348.554688 29.667969 L 348.773438 29.382813 L 349.214844 28.804688 L 350.089844 27.644531 L 350.308594 27.355469 L 350.527344 27.0625 L 350.96875 26.480469 L 351.078125 26.332031 L 351.1875 26.1875 L 351.40625 25.894531 L 351.515625 25.746094 L 351.625 25.601563 L 351.84375 25.304688 "/>
</g>
<path style="fill:none;stroke-width:0.5;stroke-linecap:square;stroke-linejoin:miter;stroke:rgb(40%,40%,40%);stroke-opacity:1;stroke-miterlimit:3.25;" d="M 358.5 220.683594 L 25.734375 220.683594 "/>
<path style="fill:none;stroke-width:0.5;stroke-linecap:square;stroke-linejoin:miter;stroke:rgb(40%,40%,40%);stroke-opacity:1;stroke-miterlimit:3.25;" d="M 25.734375 220.683594 L 25.734375 15.023438 "/>
<path style="fill:none;stroke-width:0.5;stroke-linecap:square;stroke-linejoin:miter;stroke:rgb(40%,40%,40%);stroke-opacity:1;stroke-miterlimit:3.25;" d="M 25.734375 15.023438 L 358.5 15.023438 "/>
<path style="fill:none;stroke-width:0.5;stroke-linecap:square;stroke-linejoin:miter;stroke:rgb(40%,40%,40%);stroke-opacity:1;stroke-miterlimit:3.25;" d="M 358.5 15.023438 L 358.5 220.683594 "/>
<path style="fill:none;stroke-width:0.5;stroke-linecap:butt;stroke-linejoin:miter;stroke:rgb(40%,40%,40%);stroke-opacity:1;stroke-miterlimit:3.25;" d="M 32.390625 220.683594 L 32.390625 216.761719 "/>
<g style="fill:rgb(25%,25%,25%);fill-opacity:1;">
  <use xlink:href="#glyph0-1" x="25.438047" y="232.737242"/>
  <use xlink:href="#glyph0-2" x="30.999571" y="232.737242"/>
  <use xlink:href="#glyph0-1" x="33.777891" y="232.737242"/>
</g>
<path style="fill:none;stroke-width:0.5;stroke-linecap:butt;stroke-linejoin:miter;stroke:rgb(40%,40%,40%);stroke-opacity:1;stroke-miterlimit:3.25;" d="M 48.363281 220.683594 L 48.363281 218.328125 "/>
<path style="fill:none;stroke-width:0.5;stroke-linecap:butt;stroke-linejoin:miter;stroke:rgb(40%,40%,40%);stroke-opacity:1;stroke-miterlimit:3.25;" d="M 64.335938 220.683594 L 64.335938 218.328125 "/>
<path style="fill:none;stroke-width:0.5;stroke-linecap:butt;stroke-linejoin:miter;stroke:rgb(40%,40%,40%);stroke-opacity:1;stroke-miterlimit:3.25;" d="M 80.308594 220.683594 L 80.308594 218.328125 "/>
<path style="fill:none;stroke-width:0.5;stroke-linecap:butt;stroke-linejoin:miter;stroke:rgb(40%,40%,40%);stroke-opacity:1;stroke-miterlimit:3.25;" d="M 96.28125 220.683594 L 96.28125 218.328125 "/>
<path style="fill:none;stroke-width:0.5;stroke-linecap:butt;stroke-linejoin:miter;stroke:rgb(40%,40%,40%);stroke-opacity:1;stroke-miterlimit:3.25;" d="M 112.253906 220.683594 L 112.253906 216.761719 "/>
<g style="fill:rgb(25%,25%,25%);fill-opacity:1;">
  <use xlink:href="#glyph0-1" x="105.302031" y="232.737242"/>
  <use xlink:href="#glyph0-2" x="110.863555" y="232.737242"/>
  <use xlink:href="#glyph0-3" x="113.641875" y="232.737242"/>
</g>
<path style="fill:none;stroke-width:0.5;stroke-linecap:butt;stroke-linejoin:miter;stroke:rgb(40%,40%,40%);stroke-opacity:1;stroke-miterlimit:3.25;" d="M 128.226563 220.683594 L 128.226563 218.328125 "/>
<path style="fill:none;stroke-width:0.5;stroke-linecap:butt;stroke-linejoin:miter;stroke:rgb(40%,40%,40%);stroke-opacity:1;stroke-miterlimit:3.25;" d="M 144.199219 220.683594 L 144.199219 218.328125 "/>
<path style="fill:none;stroke-width:0.5;stroke-linecap:butt;stroke-linejoin:miter;stroke:rgb(40%,40%,40%);stroke-opacity:1;stroke-miterlimit:3.25;" d="M 160.171875 220.683594 L 160.171875 218.328125 "/>
<path style="fill:none;stroke-width:0.5;stroke-linecap:butt;stroke-linejoin:miter;stroke:rgb(40%,40%,40%);stroke-opacity:1;stroke-miterlimit:3.25;" d="M 176.144531 220.683594 L 176.144531 218.328125 "/>
<path style="fill:none;stroke-width:0.5;stroke-linecap:butt;stroke-linejoin:miter;stroke:rgb(40%,40%,40%);stroke-opacity:1;stroke-miterlimit:3.25;" d="M 192.117188 220.683594 L 192.117188 216.761719 "/>
<g style="fill:rgb(25%,25%,25%);fill-opacity:1;">
  <use xlink:href="#glyph0-4" x="185.166015" y="232.737242"/>
  <use xlink:href="#glyph0-2" x="190.727539" y="232.737242"/>
  <use xlink:href="#glyph0-1" x="193.50586" y="232.737242"/>
</g>
<path style="fill:none;stroke-width:0.5;stroke-linecap:butt;stroke-linejoin:miter;stroke:rgb(40%,40%,40%);stroke-opacity:1;stroke-miterlimit:3.25;" d="M 208.089844 220.683594 L 208.089844 218.328125 "/>
<path style="fill:none;stroke-width:0.5;stroke-linecap:butt;stroke-linejoin:miter;stroke:rgb(40%,40%,40%);stroke-opacity:1;stroke-miterlimit:3.25;" d="M 224.0625 220.683594 L 224.0625 218.328125 "/>
<path style="fill:none;stroke-width:0.5;stroke-linecap:butt;stroke-linejoin:miter;stroke:rgb(40%,40%,40%);stroke-opacity:1;stroke-miterlimit:3.25;" d="M 240.035156 220.683594 L 240.035156 218.328125 "/>
<path style="fill:none;stroke-width:0.5;stroke-linecap:butt;stroke-linejoin:miter;stroke:rgb(40%,40%,40%);stroke-opacity:1;stroke-miterlimit:3.25;" d="M 256.007813 220.683594 L 256.007813 218.328125 "/>
<path style="fill:none;stroke-width:0.5;stroke-linecap:butt;stroke-linejoin:miter;stroke:rgb(40%,40%,40%);stroke-opacity:1;stroke-miterlimit:3.25;" d="M 271.980469 220.683594 L 271.980469 216.761719 "/>
<g style="fill:rgb(25%,25%,25%);fill-opacity:1;">
  <use xlink:href="#glyph0-4" x="265.03" y="232.737242"/>
  <use xlink:href="#glyph0-2" x="270.591523" y="232.737242"/>
  <use xlink:href="#glyph0-3" x="273.369844" y="232.737242"/>
</g>
<path style="fill:none;stroke-width:0.5;stroke-linecap:butt;stroke-linejoin:miter;stroke:rgb(40%,40%,40%);stroke-opacity:1;stroke-miterlimit:3.25;" d="M 287.953125 220.683594 L 287.953125 218.328125 "/>
<path style="fill:none;stroke-width:0.5;stroke-linecap:butt;stroke-linejoin:miter;stroke:rgb(40%,40%,40%);stroke-opacity:1;stroke-miterlimit:3.25;" d="M 303.925781 220.683594 L 303.925781 218.328125 "/>
<path style="fill:none;stroke-width:0.5;stroke-linecap:butt;stroke-linejoin:miter;stroke:rgb(40%,40%,40%);stroke-opacity:1;stroke-miterlimit:3.25;" d="M 319.898438 220.683594 L 319.898438 218.328125 "/>
<path style="fill:none;stroke-width:0.5;stroke-linecap:butt;stroke-linejoin:miter;stroke:rgb(40%,40%,40%);stroke-opacity:1;stroke-miterlimit:3.25;" d="M 335.871094 220.683594 L 335.871094 218.328125 "/>
<path style="fill:none;stroke-width:0.5;stroke-linecap:butt;stroke-linejoin:miter;stroke:rgb(40%,40%,40%);stroke-opacity:1;stroke-miterlimit:3.25;" d="M 351.84375 220.683594 L 351.84375 216.761719 "/>
<g style="fill:rgb(25%,25%,25%);fill-opacity:1;">
  <use xlink:href="#glyph0-5" x="344.893984" y="232.737242"/>
  <use xlink:href="#glyph0-2" x="350.455508" y="232.737242"/>
  <use xlink:href="#glyph0-1" x="353.233828" y="232.737242"/>
</g>
<path style="fill:none;stroke-width:0.5;stroke-linecap:butt;stroke-linejoin:miter;stroke:rgb(40%,40%,40%);stroke-opacity:1;stroke-miterlimit:3.25;" d="M 25.734375 216.195313 L 28.085938 216.195313 "/>
<path style="fill:none;stroke-width:0.5;stroke-linecap:butt;stroke-linejoin:miter;stroke:rgb(40%,40%,40%);stroke-opacity:1;stroke-miterlimit:3.25;" d="M 25.734375 210.402344 L 29.65625 210.402344 "/>
<g style="fill:rgb(25%,25%,25%);fill-opacity:1;">
  <use xlink:href="#glyph0-4" x="17.171875" y="213.868252"/>
</g>
<path style="fill:none;stroke-width:0.5;stroke-linecap:butt;stroke-linejoin:miter;stroke:rgb(40%,40%,40%);stroke-opacity:1;stroke-miterlimit:3.25;" d="M 25.734375 204.605469 L 28.085938 204.605469 "/>
<path style="fill:none;stroke-width:0.5;stroke-linecap:butt;stroke-linejoin:miter;stroke:rgb(40%,40%,40%);stroke-opacity:1;stroke-miterlimit:3.25;" d="M 25.734375 198.8125 L 28.085938 198.8125 "/>
<path style="fill:none;stroke-width:0.5;stroke-linecap:butt;stroke-linejoin:miter;stroke:rgb(40%,40%,40%);stroke-opacity:1;stroke-miterlimit:3.25;" d="M 25.734375 193.019531 L 28.085938 193.019531 "/>
<path style="fill:none;stroke-width:0.5;stroke-linecap:butt;stroke-linejoin:miter;stroke:rgb(40%,40%,40%);stroke-opacity:1;stroke-miterlimit:3.25;" d="M 25.734375 187.226563 L 28.085938 187.226563 "/>
<path style="fill:none;stroke-width:0.5;stroke-linecap:butt;stroke-linejoin:miter;stroke:rgb(40%,40%,40%);stroke-opacity:1;stroke-miterlimit:3.25;" d="M 25.734375 181.429688 L 29.65625 181.429688 "/>
<g style="fill:rgb(25%,25%,25%);fill-opacity:1;">
  <use xlink:href="#glyph0-5" x="17.171875" y="184.897625"/>
</g>
<path style="fill:none;stroke-width:0.5;stroke-linecap:butt;stroke-linejoin:miter;stroke:rgb(40%,40%,40%);stroke-opacity:1;stroke-miterlimit:3.25;" d="M 25.734375 175.636719 L 28.085938 175.636719 "/>
<path style="fill:none;stroke-width:0.5;stroke-linecap:butt;stroke-linejoin:miter;stroke:rgb(40%,40%,40%);stroke-opacity:1;stroke-miterlimit:3.25;" d="M 25.734375 169.84375 L 28.085938 169.84375 "/>
<path style="fill:none;stroke-width:0.5;stroke-linecap:butt;stroke-linejoin:miter;stroke:rgb(40%,40%,40%);stroke-opacity:1;stroke-miterlimit:3.25;" d="M 25.734375 164.046875 L 28.085938 164.046875 "/>
<path style="fill:none;stroke-width:0.5;stroke-linecap:butt;stroke-linejoin:miter;stroke:rgb(40%,40%,40%);stroke-opacity:1;stroke-miterlimit:3.25;" d="M 25.734375 158.253906 L 28.085938 158.253906 "/>
<path style="fill:none;stroke-width:0.5;stroke-linecap:butt;stroke-linejoin:miter;stroke:rgb(40%,40%,40%);stroke-opacity:1;stroke-miterlimit:3.25;" d="M 25.734375 152.460938 L 29.65625 152.460938 "/>
<g style="fill:rgb(25%,25%,25%);fill-opacity:1;">
  <use xlink:href="#glyph0-6" x="17.171875" y="155.926997"/>
</g>
<path style="fill:none;stroke-width:0.5;stroke-linecap:butt;stroke-linejoin:miter;stroke:rgb(40%,40%,40%);stroke-opacity:1;stroke-miterlimit:3.25;" d="M 25.734375 146.667969 L 28.085938 146.667969 "/>
<path style="fill:none;stroke-width:0.5;stroke-linecap:butt;stroke-linejoin:miter;stroke:rgb(40%,40%,40%);stroke-opacity:1;stroke-miterlimit:3.25;" d="M 25.734375 140.871094 L 28.085938 140.871094 "/>
<path style="fill:none;stroke-width:0.5;stroke-linecap:butt;stroke-linejoin:miter;stroke:rgb(40%,40%,40%);stroke-opacity:1;stroke-miterlimit:3.25;" d="M 25.734375 135.078125 L 28.085938 135.078125 "/>
<path style="fill:none;stroke-width:0.5;stroke-linecap:butt;stroke-linejoin:miter;stroke:rgb(40%,40%,40%);stroke-opacity:1;stroke-miterlimit:3.25;" d="M 25.734375 129.285156 L 28.085938 129.285156 "/>
<path style="fill:none;stroke-width:0.5;stroke-linecap:butt;stroke-linejoin:miter;stroke:rgb(40%,40%,40%);stroke-opacity:1;stroke-miterlimit:3.25;" d="M 25.734375 123.488281 L 29.65625 123.488281 "/>
<g style="fill:rgb(25%,25%,25%);fill-opacity:1;">
  <use xlink:href="#glyph0-7" x="17.171875" y="126.95637"/>
</g>
<path style="fill:none;stroke-width:0.5;stroke-linecap:butt;stroke-linejoin:miter;stroke:rgb(40%,40%,40%);stroke-opacity:1;stroke-miterlimit:3.25;" d="M 25.734375 117.695313 L 28.085938 117.695313 "/>
<path style="fill:none;stroke-width:0.5;stroke-linecap:butt;stroke-linejoin:miter;stroke:rgb(40%,40%,40%);stroke-opacity:1;stroke-miterlimit:3.25;" d="M 25.734375 111.902344 L 28.085938 111.902344 "/>
<path style="fill:none;stroke-width:0.5;stroke-linecap:butt;stroke-linejoin:miter;stroke:rgb(40%,40%,40%);stroke-opacity:1;stroke-miterlimit:3.25;" d="M 25.734375 106.105469 L 28.085938 106.105469 "/>
<path style="fill:none;stroke-width:0.5;stroke-linecap:butt;stroke-linejoin:miter;stroke:rgb(40%,40%,40%);stroke-opacity:1;stroke-miterlimit:3.25;" d="M 25.734375 100.3125 L 28.085938 100.3125 "/>
<path style="fill:none;stroke-width:0.5;stroke-linecap:butt;stroke-linejoin:miter;stroke:rgb(40%,40%,40%);stroke-opacity:1;stroke-miterlimit:3.25;" d="M 25.734375 94.519531 L 29.65625 94.519531 "/>
<g style="fill:rgb(25%,25%,25%);fill-opacity:1;">
  <use xlink:href="#glyph0-3" x="17.171875" y="97.985742"/>
</g>
<path style="fill:none;stroke-width:0.5;stroke-linecap:butt;stroke-linejoin:miter;stroke:rgb(40%,40%,40%);stroke-opacity:1;stroke-miterlimit:3.25;" d="M 25.734375 88.726563 L 28.085938 88.726563 "/>
<path style="fill:none;stroke-width:0.5;stroke-linecap:butt;stroke-linejoin:miter;stroke:rgb(40%,40%,40%);stroke-opacity:1;stroke-miterlimit:3.25;" d="M 25.734375 82.929688 L 28.085938 82.929688 "/>
<path style="fill:none;stroke-width:0.5;stroke-linecap:butt;stroke-linejoin:miter;stroke:rgb(40%,40%,40%);stroke-opacity:1;stroke-miterlimit:3.25;" d="M 25.734375 77.136719 L 28.085938 77.136719 "/>
<path style="fill:none;stroke-width:0.5;stroke-linecap:butt;stroke-linejoin:miter;stroke:rgb(40%,40%,40%);stroke-opacity:1;stroke-miterlimit:3.25;" d="M 25.734375 71.34375 L 28.085938 71.34375 "/>
<path style="fill:none;stroke-width:0.5;stroke-linecap:butt;stroke-linejoin:miter;stroke:rgb(40%,40%,40%);stroke-opacity:1;stroke-miterlimit:3.25;" d="M 25.734375 65.546875 L 29.65625 65.546875 "/>
<g style="fill:rgb(25%,25%,25%);fill-opacity:1;">
  <use xlink:href="#glyph0-8" x="17.171875" y="69.015115"/>
</g>
<path style="fill:none;stroke-width:0.5;stroke-linecap:butt;stroke-linejoin:miter;stroke:rgb(40%,40%,40%);stroke-opacity:1;stroke-miterlimit:3.25;" d="M 25.734375 59.753906 L 28.085938 59.753906 "/>
<path style="fill:none;stroke-width:0.5;stroke-linecap:butt;stroke-linejoin:miter;stroke:rgb(40%,40%,40%);stroke-opacity:1;stroke-miterlimit:3.25;" d="M 25.734375 53.960938 L 28.085938 53.960938 "/>
<path style="fill:none;stroke-width:0.5;stroke-linecap:butt;stroke-linejoin:miter;stroke:rgb(40%,40%,40%);stroke-opacity:1;stroke-miterlimit:3.25;" d="M 25.734375 48.164063 L 28.085938 48.164063 "/>
<path style="fill:none;stroke-width:0.5;stroke-linecap:butt;stroke-linejoin:miter;stroke:rgb(40%,40%,40%);stroke-opacity:1;stroke-miterlimit:3.25;" d="M 25.734375 42.371094 L 28.085938 42.371094 "/>
<path style="fill:none;stroke-width:0.5;stroke-linecap:butt;stroke-linejoin:miter;stroke:rgb(40%,40%,40%);stroke-opacity:1;stroke-miterlimit:3.25;" d="M 25.734375 36.578125 L 29.65625 36.578125 "/>
<g style="fill:rgb(25%,25%,25%);fill-opacity:1;">
  <use xlink:href="#glyph0-9" x="17.171875" y="40.044488"/>
</g>
<path style="fill:none;stroke-width:0.5;stroke-linecap:butt;stroke-linejoin:miter;stroke:rgb(40%,40%,40%);stroke-opacity:1;stroke-miterlimit:3.25;" d="M 25.734375 30.785156 L 28.085938 30.785156 "/>
<path style="fill:none;stroke-width:0.5;stroke-linecap:butt;stroke-linejoin:miter;stroke:rgb(40%,40%,40%);stroke-opacity:1;stroke-miterlimit:3.25;" d="M 25.734375 24.988281 L 28.085938 24.988281 "/>
<path style="fill:none;stroke-width:0.5;stroke-linecap:butt;stroke-linejoin:miter;stroke:rgb(40%,40%,40%);stroke-opacity:1;stroke-miterlimit:3.25;" d="M 25.734375 19.195313 L 28.085938 19.195313 "/>
<path style="fill:none;stroke-width:0.5;stroke-linecap:butt;stroke-linejoin:miter;stroke:rgb(40%,40%,40%);stroke-opacity:1;stroke-miterlimit:3.25;" d="M 32.390625 15.023438 L 32.390625 18.949219 "/>
<path style="fill:none;stroke-width:0.5;stroke-linecap:butt;stroke-linejoin:miter;stroke:rgb(40%,40%,40%);stroke-opacity:1;stroke-miterlimit:3.25;" d="M 48.363281 15.023438 L 48.363281 17.378906 "/>
<path style="fill:none;stroke-width:0.5;stroke-linecap:butt;stroke-linejoin:miter;stroke:rgb(40%,40%,40%);stroke-opacity:1;stroke-miterlimit:3.25;" d="M 64.335938 15.023438 L 64.335938 17.378906 "/>
<path style="fill:none;stroke-width:0.5;stroke-linecap:butt;stroke-linejoin:miter;stroke:rgb(40%,40%,40%);stroke-opacity:1;stroke-miterlimit:3.25;" d="M 80.308594 15.023438 L 80.308594 17.378906 "/>
<path style="fill:none;stroke-width:0.5;stroke-linecap:butt;stroke-linejoin:miter;stroke:rgb(40%,40%,40%);stroke-opacity:1;stroke-miterlimit:3.25;" d="M 96.28125 15.023438 L 96.28125 17.378906 "/>
<path style="fill:none;stroke-width:0.5;stroke-linecap:butt;stroke-linejoin:miter;stroke:rgb(40%,40%,40%);stroke-opacity:1;stroke-miterlimit:3.25;" d="M 112.253906 15.023438 L 112.253906 18.949219 "/>
<path style="fill:none;stroke-width:0.5;stroke-linecap:butt;stroke-linejoin:miter;stroke:rgb(40%,40%,40%);stroke-opacity:1;stroke-miterlimit:3.25;" d="M 128.226563 15.023438 L 128.226563 17.378906 "/>
<path style="fill:none;stroke-width:0.5;stroke-linecap:butt;stroke-linejoin:miter;stroke:rgb(40%,40%,40%);stroke-opacity:1;stroke-miterlimit:3.25;" d="M 144.199219 15.023438 L 144.199219 17.378906 "/>
<path style="fill:none;stroke-width:0.5;stroke-linecap:butt;stroke-linejoin:miter;stroke:rgb(40%,40%,40%);stroke-opacity:1;stroke-miterlimit:3.25;" d="M 160.171875 15.023438 L 160.171875 17.378906 "/>
<path style="fill:none;stroke-width:0.5;stroke-linecap:butt;stroke-linejoin:miter;stroke:rgb(40%,40%,40%);stroke-opacity:1;stroke-miterlimit:3.25;" d="M 176.144531 15.023438 L 176.144531 17.378906 "/>
<path style="fill:none;stroke-width:0.5;stroke-linecap:butt;stroke-linejoin:miter;stroke:rgb(40%,40%,40%);stroke-opacity:1;stroke-miterlimit:3.25;" d="M 192.117188 15.023438 L 192.117188 18.949219 "/>
<path style="fill:none;stroke-width:0.5;stroke-linecap:butt;stroke-linejoin:miter;stroke:rgb(40%,40%,40%);stroke-opacity:1;stroke-miterlimit:3.25;" d="M 208.089844 15.023438 L 208.089844 17.378906 "/>
<path style="fill:none;stroke-width:0.5;stroke-linecap:butt;stroke-linejoin:miter;stroke:rgb(40%,40%,40%);stroke-opacity:1;stroke-miterlimit:3.25;" d="M 224.0625 15.023438 L 224.0625 17.378906 "/>
<path style="fill:none;stroke-width:0.5;stroke-linecap:butt;stroke-linejoin:miter;stroke:rgb(40%,40%,40%);stroke-opacity:1;stroke-miterlimit:3.25;" d="M 240.035156 15.023438 L 240.035156 17.378906 "/>
<path style="fill:none;stroke-width:0.5;stroke-linecap:butt;stroke-linejoin:miter;stroke:rgb(40%,40%,40%);stroke-opacity:1;stroke-miterlimit:3.25;" d="M 256.007813 15.023438 L 256.007813 17.378906 "/>
<path style="fill:none;stroke-width:0.5;stroke-linecap:butt;stroke-linejoin:miter;stroke:rgb(40%,40%,40%);stroke-opacity:1;stroke-miterlimit:3.25;" d="M 271.980469 15.023438 L 271.980469 18.949219 "/>
<path style="fill:none;stroke-width:0.5;stroke-linecap:butt;stroke-linejoin:miter;stroke:rgb(40%,40%,40%);stroke-opacity:1;stroke-miterlimit:3.25;" d="M 287.953125 15.023438 L 287.953125 17.378906 "/>
<path style="fill:none;stroke-width:0.5;stroke-linecap:butt;stroke-linejoin:miter;stroke:rgb(40%,40%,40%);stroke-opacity:1;stroke-miterlimit:3.25;" d="M 303.925781 15.023438 L 303.925781 17.378906 "/>
<path style="fill:none;stroke-width:0.5;stroke-linecap:butt;stroke-linejoin:miter;stroke:rgb(40%,40%,40%);stroke-opacity:1;stroke-miterlimit:3.25;" d="M 319.898438 15.023438 L 319.898438 17.378906 "/>
<path style="fill:none;stroke-width:0.5;stroke-linecap:butt;stroke-linejoin:miter;stroke:rgb(40%,40%,40%);stroke-opacity:1;stroke-miterlimit:3.25;" d="M 335.871094 15.023438 L 335.871094 17.378906 "/>
<path style="fill:none;stroke-width:0.5;stroke-linecap:butt;stroke-linejoin:miter;stroke:rgb(40%,40%,40%);stroke-opacity:1;stroke-miterlimit:3.25;" d="M 351.84375 15.023438 L 351.84375 18.949219 "/>
<path style="fill:none;stroke-width:0.5;stroke-linecap:butt;stroke-linejoin:miter;stroke:rgb(40%,40%,40%);stroke-opacity:1;stroke-miterlimit:3.25;" d="M 358.5 216.195313 L 356.144531 216.195313 "/>
<path style="fill:none;stroke-width:0.5;stroke-linecap:butt;stroke-linejoin:miter;stroke:rgb(40%,40%,40%);stroke-opacity:1;stroke-miterlimit:3.25;" d="M 358.5 210.402344 L 354.574219 210.402344 "/>
<path style="fill:none;stroke-width:0.5;stroke-linecap:butt;stroke-linejoin:miter;stroke:rgb(40%,40%,40%);stroke-opacity:1;stroke-miterlimit:3.25;" d="M 358.5 204.605469 L 356.144531 204.605469 "/>
<path style="fill:none;stroke-width:0.5;stroke-linecap:butt;stroke-linejoin:miter;stroke:rgb(40%,40%,40%);stroke-opacity:1;stroke-miterlimit:3.25;" d="M 358.5 198.8125 L 356.144531 198.8125 "/>
<path style="fill:none;stroke-width:0.5;stroke-linecap:butt;stroke-linejoin:miter;stroke:rgb(40%,40%,40%);stroke-opacity:1;stroke-miterlimit:3.25;" d="M 358.5 193.019531 L 356.144531 193.019531 "/>
<path style="fill:none;stroke-width:0.5;stroke-linecap:butt;stroke-linejoin:miter;stroke:rgb(40%,40%,40%);stroke-opacity:1;stroke-miterlimit:3.25;" d="M 358.5 187.226563 L 356.144531 187.226563 "/>
<path style="fill:none;stroke-width:0.5;stroke-linecap:butt;stroke-linejoin:miter;stroke:rgb(40%,40%,40%);stroke-opacity:1;stroke-miterlimit:3.25;" d="M 358.5 181.429688 L 354.574219 181.429688 "/>
<path style="fill:none;stroke-width:0.5;stroke-linecap:butt;stroke-linejoin:miter;stroke:rgb(40%,40%,40%);stroke-opacity:1;stroke-miterlimit:3.25;" d="M 358.5 175.636719 L 356.144531 175.636719 "/>
<path style="fill:none;stroke-width:0.5;stroke-linecap:butt;stroke-linejoin:miter;stroke:rgb(40%,40%,40%);stroke-opacity:1;stroke-miterlimit:3.25;" d="M 358.5 169.84375 L 356.144531 169.84375 "/>
<path style="fill:none;stroke-width:0.5;stroke-linecap:butt;stroke-linejoin:miter;stroke:rgb(40%,40%,40%);stroke-opacity:1;stroke-miterlimit:3.25;" d="M 358.5 164.046875 L 356.144531 164.046875 "/>
<path style="fill:none;stroke-width:0.5;stroke-linecap:butt;stroke-linejoin:miter;stroke:rgb(40%,40%,40%);stroke-opacity:1;stroke-miterlimit:3.25;" d="M 358.5 158.253906 L 356.144531 158.253906 "/>
<path style="fill:none;stroke-width:0.5;stroke-linecap:butt;stroke-linejoin:miter;stroke:rgb(40%,40%,40%);stroke-opacity:1;stroke-miterlimit:3.25;" d="M 358.5 152.460938 L 354.574219 152.460938 "/>
<path style="fill:none;stroke-width:0.5;stroke-linecap:butt;stroke-linejoin:miter;stroke:rgb(40%,40%,40%);stroke-opacity:1;stroke-miterlimit:3.25;" d="M 358.5 146.667969 L 356.144531 146.667969 "/>
<path style="fill:none;stroke-width:0.5;stroke-linecap:butt;stroke-linejoin:miter;stroke:rgb(40%,40%,40%);stroke-opacity:1;stroke-miterlimit:3.25;" d="M 358.5 140.871094 L 356.144531 140.871094 "/>
<path style="fill:none;stroke-width:0.5;stroke-linecap:butt;stroke-linejoin:miter;stroke:rgb(40%,40%,40%);stroke-opacity:1;stroke-miterlimit:3.25;" d="M 358.5 135.078125 L 356.144531 135.078125 "/>
<path style="fill:none;stroke-width:0.5;stroke-linecap:butt;stroke-linejoin:miter;stroke:rgb(40%,40%,40%);stroke-opacity:1;stroke-miterlimit:3.25;" d="M 358.5 129.285156 L 356.144531 129.285156 "/>
<path style="fill:none;stroke-width:0.5;stroke-linecap:butt;stroke-linejoin:miter;stroke:rgb(40%,40%,40%);stroke-opacity:1;stroke-miterlimit:3.25;" d="M 358.5 123.488281 L 354.574219 123.488281 "/>
<path style="fill:none;stroke-width:0.5;stroke-linecap:butt;stroke-linejoin:miter;stroke:rgb(40%,40%,40%);stroke-opacity:1;stroke-miterlimit:3.25;" d="M 358.5 117.695313 L 356.144531 117.695313 "/>
<path style="fill:none;stroke-width:0.5;stroke-linecap:butt;stroke-linejoin:miter;stroke:rgb(40%,40%,40%);stroke-opacity:1;stroke-miterlimit:3.25;" d="M 358.5 111.902344 L 356.144531 111.902344 "/>
<path style="fill:none;stroke-width:0.5;stroke-linecap:butt;stroke-linejoin:miter;stroke:rgb(40%,40%,40%);stroke-opacity:1;stroke-miterlimit:3.25;" d="M 358.5 106.105469 L 356.144531 106.105469 "/>
<path style="fill:none;stroke-width:0.5;stroke-linecap:butt;stroke-linejoin:miter;stroke:rgb(40%,40%,40%);stroke-opacity:1;stroke-miterlimit:3.25;" d="M 358.5 100.3125 L 356.144531 100.3125 "/>
<path style="fill:none;stroke-width:0.5;stroke-linecap:butt;stroke-linejoin:miter;stroke:rgb(40%,40%,40%);stroke-opacity:1;stroke-miterlimit:3.25;" d="M 358.5 94.519531 L 354.574219 94.519531 "/>
<path style="fill:none;stroke-width:0.5;stroke-linecap:butt;stroke-linejoin:miter;stroke:rgb(40%,40%,40%);stroke-opacity:1;stroke-miterlimit:3.25;" d="M 358.5 88.726563 L 356.144531 88.726563 "/>
<path style="fill:none;stroke-width:0.5;stroke-linecap:butt;stroke-linejoin:miter;stroke:rgb(40%,40%,40%);stroke-opacity:1;stroke-miterlimit:3.25;" d="M 358.5 82.929688 L 356.144531 82.929688 "/>
<path style="fill:none;stroke-width:0.5;stroke-linecap:butt;stroke-linejoin:miter;stroke:rgb(40%,40%,40%);stroke-opacity:1;stroke-miterlimit:3.25;" d="M 358.5 77.136719 L 356.144531 77.136719 "/>
<path style="fill:none;stroke-width:0.5;stroke-linecap:butt;stroke-linejoin:miter;stroke:rgb(40%,40%,40%);stroke-opacity:1;stroke-miterlimit:3.25;" d="M 358.5 71.34375 L 356.144531 71.34375 "/>
<path style="fill:none;stroke-width:0.5;stroke-linecap:butt;stroke-linejoin:miter;stroke:rgb(40%,40%,40%);stroke-opacity:1;stroke-miterlimit:3.25;" d="M 358.5 65.546875 L 354.574219 65.546875 "/>
<path style="fill:none;stroke-width:0.5;stroke-linecap:butt;stroke-linejoin:miter;stroke:rgb(40%,40%,40%);stroke-opacity:1;stroke-miterlimit:3.25;" d="M 358.5 59.753906 L 356.144531 59.753906 "/>
<path style="fill:none;stroke-width:0.5;stroke-linecap:butt;stroke-linejoin:miter;stroke:rgb(40%,40%,40%);stroke-opacity:1;stroke-miterlimit:3.25;" d="M 358.5 53.960938 L 356.144531 53.960938 "/>
<path style="fill:none;stroke-width:0.5;stroke-linecap:butt;stroke-linejoin:miter;stroke:rgb(40%,40%,40%);stroke-opacity:1;stroke-miterlimit:3.25;" d="M 358.5 48.164063 L 356.144531 48.164063 "/>
<path style="fill:none;stroke-width:0.5;stroke-linecap:butt;stroke-linejoin:miter;stroke:rgb(40%,40%,40%);stroke-opacity:1;stroke-miterlimit:3.25;" d="M 358.5 42.371094 L 356.144531 42.371094 "/>
<path style="fill:none;stroke-width:0.5;stroke-linecap:butt;stroke-linejoin:miter;stroke:rgb(40%,40%,40%);stroke-opacity:1;stroke-miterlimit:3.25;" d="M 358.5 36.578125 L 354.574219 36.578125 "/>
<path style="fill:none;stroke-width:0.5;stroke-linecap:butt;stroke-linejoin:miter;stroke:rgb(40%,40%,40%);stroke-opacity:1;stroke-miterlimit:3.25;" d="M 358.5 30.785156 L 356.144531 30.785156 "/>
<path style="fill:none;stroke-width:0.5;stroke-linecap:butt;stroke-linejoin:miter;stroke:rgb(40%,40%,40%);stroke-opacity:1;stroke-miterlimit:3.25;" d="M 358.5 24.988281 L 356.144531 24.988281 "/>
<path style="fill:none;stroke-width:0.5;stroke-linecap:butt;stroke-linejoin:miter;stroke:rgb(40%,40%,40%);stroke-opacity:1;stroke-miterlimit:3.25;" d="M 358.5 19.195313 L 356.144531 19.195313 "/>
<g style="fill:rgb(25%,25%,25%);fill-opacity:1;">
  <use xlink:href="#glyph0-10" x="189.616699" y="249.909117"/>
</g>
<g style="fill:rgb(25%,25%,25%);fill-opacity:1;">
  <use xlink:href="#glyph1-1" x="9.052734" y="120.353973"/>
</g>
<g style="fill:rgb(25%,25%,25%);fill-opacity:1;">
  <use xlink:href="#glyph2-1" x="112.999509" y="11.768555"/>
  <use xlink:href="#glyph2-2" x="122.387693" y="11.768555"/>
  <use xlink:href="#glyph2-3" x="131.775876" y="11.768555"/>
  <use xlink:href="#glyph2-4" x="140.446775" y="11.768555"/>
  <use xlink:href="#glyph2-5" x="147.676756" y="11.768555"/>
  <use xlink:href="#glyph2-6" x="150.56494" y="11.768555"/>
  <use xlink:href="#glyph2-7" x="157.06494" y="11.768555"/>
</g>
<g style="fill:rgb(25%,25%,25%);fill-opacity:1;">
  <use xlink:href="#glyph2-6" x="167.906737" y="11.768555"/>
  <use xlink:href="#glyph2-8" x="174.406737" y="11.768555"/>
</g>
<g style="fill:rgb(25%,25%,25%);fill-opacity:1;">
  <use xlink:href="#glyph2-9" x="180.906738" y="11.768555"/>
</g>
<g style="fill:rgb(25%,25%,25%);fill-opacity:1;">
  <use xlink:href="#glyph2-10" x="188.130371" y="11.768555"/>
  <use xlink:href="#glyph2-11" x="196.80127" y="11.768555"/>
  <use xlink:href="#glyph2-12" x="203.30127" y="11.768555"/>
  <use xlink:href="#glyph2-13" x="210.53125" y="11.768555"/>
  <use xlink:href="#glyph2-14" x="217.031251" y="11.768555"/>
</g>
<g style="fill:rgb(25%,25%,25%);fill-opacity:1;">
  <use xlink:href="#glyph2-3" x="224.254884" y="11.768555"/>
  <use xlink:href="#glyph2-4" x="232.925783" y="11.768555"/>
  <use xlink:href="#glyph2-5" x="240.155763" y="11.768555"/>
  <use xlink:href="#glyph2-15" x="243.043947" y="11.768555"/>
  <use xlink:href="#glyph2-14" x="250.273928" y="11.768555"/>
  <use xlink:href="#glyph2-16" x="253.885744" y="11.768555"/>
  <use xlink:href="#glyph2-4" x="256.773928" y="11.768555"/>
  <use xlink:href="#glyph2-17" x="264.003909" y="11.768555"/>
</g>
<g clip-path="url(#clip2)" clip-rule="nonzero">
<path style="fill:none;stroke-width:2;stroke-linecap:square;stroke-linejoin:miter;stroke:rgb(0%,0%,100%);stroke-opacity:1;stroke-miterlimit:3.25;" d="M 371.199219 114.078125 L 408.199219 114.078125 "/>
</g>
<g style="fill:rgb(0%,0%,0%);fill-opacity:1;">
  <use xlink:href="#glyph2-1" x="416.7" y="118.578289"/>
  <use xlink:href="#glyph2-2" x="426.088184" y="118.578289"/>
  <use xlink:href="#glyph2-3" x="435.476367" y="118.578289"/>
  <use xlink:href="#glyph2-4" x="444.147266" y="118.578289"/>
  <use xlink:href="#glyph2-5" x="451.377247" y="118.578289"/>
  <use xlink:href="#glyph2-6" x="454.265431" y="118.578289"/>
  <use xlink:href="#glyph2-7" x="460.765431" y="118.578289"/>
</g>
<g clip-path="url(#clip3)" clip-rule="nonzero">
<path style="fill:none;stroke-width:2;stroke-linecap:butt;stroke-linejoin:miter;stroke:rgb(0%,0%,0%);stroke-opacity:1;stroke-dasharray:4,4;stroke-miterlimit:3.25;" d="M 371.199219 137.464844 L 408.199219 137.464844 "/>
</g>
<g style="fill:rgb(0%,0%,0%);fill-opacity:1;">
  <use xlink:href="#glyph2-10" x="416.7" y="141.964129"/>
  <use xlink:href="#glyph2-11" x="425.370899" y="141.964129"/>
  <use xlink:href="#glyph2-12" x="431.870899" y="141.964129"/>
  <use xlink:href="#glyph2-13" x="439.10088" y="141.964129"/>
  <use xlink:href="#glyph2-14" x="445.60088" y="141.964129"/>
</g>
</g>
</svg>
