<?xml version="1.0" encoding="utf-8" standalone="no"?>
<!DOCTYPE svg PUBLIC "-//W3C//DTD SVG 1.1//EN"
  "http://www.w3.org/Graphics/SVG/1.1/DTD/svg11.dtd">
<svg xmlns:xlink="http://www.w3.org/1999/xlink" width="432pt" height="288pt" viewBox="0 0 432 288" xmlns="http://www.w3.org/2000/svg" version="1.1">
 <metadata>
  <rdf:RDF xmlns:dc="http://purl.org/dc/elements/1.1/" xmlns:cc="http://creativecommons.org/ns#" xmlns:rdf="http://www.w3.org/1999/02/22-rdf-syntax-ns#">
   <cc:Work>
    <dc:type rdf:resource="http://purl.org/dc/dcmitype/StillImage"/>
    <dc:date>2026-05-04T08:29:47.495123</dc:date>
    <dc:format>image/svg+xml</dc:format>
    <dc:creator>
     <cc:Agent>
      <dc:title>Matplotlib v3.10.8, https://matplotlib.org/</dc:title>
     </cc:Agent>
    </dc:creator>
   </cc:Work>
  </rdf:RDF>
 </metadata>
 <defs>
  <style type="text/css">*{stroke-linejoin: round; stroke-linecap: butt}</style>
 </defs>
 <g id="figure_1">
  <g id="patch_1">
   <path d="M 0 288 
L 432 288 
L 432 0 
L 0 0 
z
" style="fill: #ffffff"/>
  </g>
  <g id="axes_1">
   <g id="patch_2">
    <path d="M 46.45625 246.7 
L 413.23125 246.7 
L 413.23125 25.8 
L 46.45625 25.8 
z
" style="fill: #ffffff"/>
   </g>
   <g id="matplotlib.axis_1">
    <g id="xtick_1">
     <g id="line2d_1">
      <defs>
       <path id="m7c3bde73fe" d="M 0 0 
L 0 3.5 
" style="stroke: #000000; stroke-width: 0.8"/>
      </defs>
      <g>
       <use xlink:href="#m7c3bde73fe" x="46.45625" y="246.7" style="stroke: #000000; stroke-width: 0.8"/>
      </g>
     </g>
     <g id="text_1">
      <!-- −0.5 -->
      <g transform="translate(34.314844 261.298437) scale(0.1 -0.1)">
       <defs>
        <path id="DejaVuSans-2212" d="M 678 2272 
L 4684 2272 
L 4684 1741 
L 678 1741 
L 678 2272 
z
" transform="scale(0.015625)"/>
        <path id="DejaVuSans-30" d="M 2034 4250 
Q 1547 4250 1301 3770 
Q 1056 3291 1056 2328 
Q 1056 1369 1301 889 
Q 1547 409 2034 409 
Q 2525 409 2770 889 
Q 3016 1369 3016 2328 
Q 3016 3291 2770 3770 
Q 2525 4250 2034 4250 
z
M 2034 4750 
Q 2819 4750 3233 4129 
Q 3647 3509 3647 2328 
Q 3647 1150 3233 529 
Q 2819 -91 2034 -91 
Q 1250 -91 836 529 
Q 422 1150 422 2328 
Q 422 3509 836 4129 
Q 1250 4750 2034 4750 
z
" transform="scale(0.015625)"/>
        <path id="DejaVuSans-2e" d="M 684 794 
L 1344 794 
L 1344 0 
L 684 0 
L 684 794 
z
" transform="scale(0.015625)"/>
        <path id="DejaVuSans-35" d="M 691 4666 
L 3169 4666 
L 3169 4134 
L 1269 4134 
L 1269 2991 
Q 1406 3038 1543 3061 
Q 1681 3084 1819 3084 
Q 2600 3084 3056 2656 
Q 3513 2228 3513 1497 
Q 3513 744 3044 326 
Q 2575 -91 1722 -91 
Q 1428 -91 1123 -41 
Q 819 9 494 109 
L 494 744 
Q 775 591 1075 516 
Q 1375 441 1709 441 
Q 2250 441 2565 725 
Q 2881 1009 2881 1497 
Q 2881 1984 2565 2268 
Q 2250 2553 1709 2553 
Q 1456 2553 1204 2497 
Q 953 2441 691 2322 
L 691 4666 
z
" transform="scale(0.015625)"/>
       </defs>
       <use xlink:href="#DejaVuSans-2212"/>
       <use xlink:href="#DejaVuSans-30" transform="translate(83.789062 0)"/>
       <use xlink:href="#DejaVuSans-2e" transform="translate(147.412109 0)"/>
       <use xlink:href="#DejaVuSans-35" transform="translate(179.199219 0)"/>
      </g>
     </g>
    </g>
    <g id="xtick_2">
     <g id="line2d_2">
      <g>
       <use xlink:href="#m7c3bde73fe" x="98.852679" y="246.7" style="stroke: #000000; stroke-width: 0.8"/>
      </g>
     </g>
     <g id="text_2">
      <!-- 0.0 -->
      <g transform="translate(90.901116 261.298437) scale(0.1 -0.1)">
       <use xlink:href="#DejaVuSans-30"/>
       <use xlink:href="#DejaVuSans-2e" transform="translate(63.623047 0)"/>
       <use xlink:href="#DejaVuSans-30" transform="translate(95.410156 0)"/>
      </g>
     </g>
    </g>
    <g id="xtick_3">
     <g id="line2d_3">
      <g>
       <use xlink:href="#m7c3bde73fe" x="151.249107" y="246.7" style="stroke: #000000; stroke-width: 0.8"/>
      </g>
     </g>
     <g id="text_3">
      <!-- 0.5 -->
      <g transform="translate(143.297545 261.298437) scale(0.1 -0.1)">
       <use xlink:href="#DejaVuSans-30"/>
       <use xlink:href="#DejaVuSans-2e" transform="translate(63.623047 0)"/>
       <use xlink:href="#DejaVuSans-35" transform="translate(95.410156 0)"/>
      </g>
     </g>
    </g>
    <g id="xtick_4">
     <g id="line2d_4">
      <g>
       <use xlink:href="#m7c3bde73fe" x="203.645536" y="246.7" style="stroke: #000000; stroke-width: 0.8"/>
      </g>
     </g>
     <g id="text_4">
      <!-- 1.0 -->
      <g transform="translate(195.693973 261.298437) scale(0.1 -0.1)">
       <defs>
        <path id="DejaVuSans-31" d="M 794 531 
L 1825 531 
L 1825 4091 
L 703 3866 
L 703 4441 
L 1819 4666 
L 2450 4666 
L 2450 531 
L 3481 531 
L 3481 0 
L 794 0 
L 794 531 
z
" transform="scale(0.015625)"/>
       </defs>
       <use xlink:href="#DejaVuSans-31"/>
       <use xlink:href="#DejaVuSans-2e" transform="translate(63.623047 0)"/>
       <use xlink:href="#DejaVuSans-30" transform="translate(95.410156 0)"/>
      </g>
     </g>
    </g>
    <g id="xtick_5">
     <g id="line2d_5">
      <g>
       <use xlink:href="#m7c3bde73fe" x="256.041964" y="246.7" style="stroke: #000000; stroke-width: 0.8"/>
      </g>
     </g>
     <g id="text_5">
      <!-- 1.5 -->
      <g transform="translate(248.090402 261.298437) scale(0.1 -0.1)">
       <use xlink:href="#DejaVuSans-31"/>
       <use xlink:href="#DejaVuSans-2e" transform="translate(63.623047 0)"/>
       <use xlink:href="#DejaVuSans-35" transform="translate(95.410156 0)"/>
      </g>
     </g>
    </g>
    <g id="xtick_6">
     <g id="line2d_6">
      <g>
       <use xlink:href="#m7c3bde73fe" x="308.438393" y="246.7" style="stroke: #000000; stroke-width: 0.8"/>
      </g>
     </g>
     <g id="text_6">
      <!-- 2.0 -->
      <g transform="translate(300.48683 261.298437) scale(0.1 -0.1)">
       <defs>
        <path id="DejaVuSans-32" d="M 1228 531 
L 3431 531 
L 3431 0 
L 469 0 
L 469 531 
Q 828 903 1448 1529 
Q 2069 2156 2228 2338 
Q 2531 2678 2651 2914 
Q 2772 3150 2772 3378 
Q 2772 3750 2511 3984 
Q 2250 4219 1831 4219 
Q 1534 4219 1204 4116 
Q 875 4013 500 3803 
L 500 4441 
Q 881 4594 1212 4672 
Q 1544 4750 1819 4750 
Q 2544 4750 2975 4387 
Q 3406 4025 3406 3419 
Q 3406 3131 3298 2873 
Q 3191 2616 2906 2266 
Q 2828 2175 2409 1742 
Q 1991 1309 1228 531 
z
" transform="scale(0.015625)"/>
       </defs>
       <use xlink:href="#DejaVuSans-32"/>
       <use xlink:href="#DejaVuSans-2e" transform="translate(63.623047 0)"/>
       <use xlink:href="#DejaVuSans-30" transform="translate(95.410156 0)"/>
      </g>
     </g>
    </g>
    <g id="xtick_7">
     <g id="line2d_7">
      <g>
       <use xlink:href="#m7c3bde73fe" x="360.834821" y="246.7" style="stroke: #000000; stroke-width: 0.8"/>
      </g>
     </g>
     <g id="text_7">
      <!-- 2.5 -->
      <g transform="translate(352.883259 261.298437) scale(0.1 -0.1)">
       <use xlink:href="#DejaVuSans-32"/>
       <use xlink:href="#DejaVuSans-2e" transform="translate(63.623047 0)"/>
       <use xlink:href="#DejaVuSans-35" transform="translate(95.410156 0)"/>
      </g>
     </g>
    </g>
    <g id="xtick_8">
     <g id="line2d_8">
      <g>
       <use xlink:href="#m7c3bde73fe" x="413.23125" y="246.7" style="stroke: #000000; stroke-width: 0.8"/>
      </g>
     </g>
     <g id="text_8">
      <!-- 3.0 -->
      <g transform="translate(405.279688 261.298437) scale(0.1 -0.1)">
       <defs>
        <path id="DejaVuSans-33" d="M 2597 2516 
Q 3050 2419 3304 2112 
Q 3559 1806 3559 1356 
Q 3559 666 3084 287 
Q 2609 -91 1734 -91 
Q 1441 -91 1130 -33 
Q 819 25 488 141 
L 488 750 
Q 750 597 1062 519 
Q 1375 441 1716 441 
Q 2309 441 2620 675 
Q 2931 909 2931 1356 
Q 2931 1769 2642 2001 
Q 2353 2234 1838 2234 
L 1294 2234 
L 1294 2753 
L 1863 2753 
Q 2328 2753 2575 2939 
Q 2822 3125 2822 3475 
Q 2822 3834 2567 4026 
Q 2313 4219 1838 4219 
Q 1578 4219 1281 4162 
Q 984 4106 628 3988 
L 628 4550 
Q 988 4650 1302 4700 
Q 1616 4750 1894 4750 
Q 2613 4750 3031 4423 
Q 3450 4097 3450 3541 
Q 3450 3153 3228 2886 
Q 3006 2619 2597 2516 
z
" transform="scale(0.015625)"/>
       </defs>
       <use xlink:href="#DejaVuSans-33"/>
       <use xlink:href="#DejaVuSans-2e" transform="translate(63.623047 0)"/>
       <use xlink:href="#DejaVuSans-30" transform="translate(95.410156 0)"/>
      </g>
     </g>
    </g>
    <g id="text_9">
     <!-- x -->
     <g transform="translate(226.884375 274.976562) scale(0.1 -0.1)">
      <defs>
       <path id="DejaVuSans-78" d="M 3513 3500 
L 2247 1797 
L 3578 0 
L 2900 0 
L 1881 1375 
L 863 0 
L 184 0 
L 1544 1831 
L 300 3500 
L 978 3500 
L 1906 2253 
L 2834 3500 
L 3513 3500 
z
" transform="scale(0.015625)"/>
      </defs>
      <use xlink:href="#DejaVuSans-78"/>
     </g>
    </g>
   </g>
   <g id="matplotlib.axis_2">
    <g id="ytick_1">
     <g id="line2d_9">
      <defs>
       <path id="m6a9fe005bc" d="M 0 0 
L -3.5 0 
" style="stroke: #000000; stroke-width: 0.8"/>
      </defs>
      <g>
       <use xlink:href="#m6a9fe005bc" x="46.45625" y="246.7" style="stroke: #000000; stroke-width: 0.8"/>
      </g>
     </g>
     <g id="text_10">
      <!-- −2 -->
      <g transform="translate(24.714063 250.499219) scale(0.1 -0.1)">
       <use xlink:href="#DejaVuSans-2212"/>
       <use xlink:href="#DejaVuSans-32" transform="translate(83.789062 0)"/>
      </g>
     </g>
    </g>
    <g id="ytick_2">
     <g id="line2d_10">
      <g>
       <use xlink:href="#m6a9fe005bc" x="46.45625" y="209.883333" style="stroke: #000000; stroke-width: 0.8"/>
      </g>
     </g>
     <g id="text_11">
      <!-- −1 -->
      <g transform="translate(24.714063 213.682552) scale(0.1 -0.1)">
       <use xlink:href="#DejaVuSans-2212"/>
       <use xlink:href="#DejaVuSans-31" transform="translate(83.789062 0)"/>
      </g>
     </g>
    </g>
    <g id="ytick_3">
     <g id="line2d_11">
      <g>
       <use xlink:href="#m6a9fe005bc" x="46.45625" y="173.066667" style="stroke: #000000; stroke-width: 0.8"/>
      </g>
     </g>
     <g id="text_12">
      <!-- 0 -->
      <g transform="translate(33.09375 176.865885) scale(0.1 -0.1)">
       <use xlink:href="#DejaVuSans-30"/>
      </g>
     </g>
    </g>
    <g id="ytick_4">
     <g id="line2d_12">
      <g>
       <use xlink:href="#m6a9fe005bc" x="46.45625" y="136.25" style="stroke: #000000; stroke-width: 0.8"/>
      </g>
     </g>
     <g id="text_13">
      <!-- 1 -->
      <g transform="translate(33.09375 140.049219) scale(0.1 -0.1)">
       <use xlink:href="#DejaVuSans-31"/>
      </g>
     </g>
    </g>
    <g id="ytick_5">
     <g id="line2d_13">
      <g>
       <use xlink:href="#m6a9fe005bc" x="46.45625" y="99.433333" style="stroke: #000000; stroke-width: 0.8"/>
      </g>
     </g>
     <g id="text_14">
      <!-- 2 -->
      <g transform="translate(33.09375 103.232552) scale(0.1 -0.1)">
       <use xlink:href="#DejaVuSans-32"/>
      </g>
     </g>
    </g>
    <g id="ytick_6">
     <g id="line2d_14">
      <g>
       <use xlink:href="#m6a9fe005bc" x="46.45625" y="62.616667" style="stroke: #000000; stroke-width: 0.8"/>
      </g>
     </g>
     <g id="text_15">
      <!-- 3 -->
      <g transform="translate(33.09375 66.415885) scale(0.1 -0.1)">
       <use xlink:href="#DejaVuSans-33"/>
      </g>
     </g>
    </g>
    <g id="ytick_7">
     <g id="line2d_15">
      <g>
       <use xlink:href="#m6a9fe005bc" x="46.45625" y="25.8" style="stroke: #000000; stroke-width: 0.8"/>
      </g>
     </g>
     <g id="text_16">
      <!-- 4 -->
      <g transform="translate(33.09375 29.599219) scale(0.1 -0.1)">
       <defs>
        <path id="DejaVuSans-34" d="M 2419 4116 
L 825 1625 
L 2419 1625 
L 2419 4116 
z
M 2253 4666 
L 3047 4666 
L 3047 1625 
L 3713 1625 
L 3713 1100 
L 3047 1100 
L 3047 0 
L 2419 0 
L 2419 1100 
L 313 1100 
L 313 1709 
L 2253 4666 
z
" transform="scale(0.015625)"/>
       </defs>
       <use xlink:href="#DejaVuSans-34"/>
      </g>
     </g>
    </g>
    <g id="text_17">
     <!-- y -->
     <g transform="translate(18.634375 139.209375) rotate(-90) scale(0.1 -0.1)">
      <defs>
       <path id="DejaVuSans-79" d="M 2059 -325 
Q 1816 -950 1584 -1140 
Q 1353 -1331 966 -1331 
L 506 -1331 
L 506 -850 
L 844 -850 
Q 1081 -850 1212 -737 
Q 1344 -625 1503 -206 
L 1606 56 
L 191 3500 
L 800 3500 
L 1894 763 
L 2988 3500 
L 3597 3500 
L 2059 -325 
z
" transform="scale(0.015625)"/>
      </defs>
      <use xlink:href="#DejaVuSans-79"/>
     </g>
    </g>
   </g>
   <g id="LineCollection_1">
    <path d="M 46.45625 246.7 
L 46.45625 246.7 
L 54.161219 242.6893 
L 61.941607 238.733035 
L 69.794267 234.828661 
L 77.714154 230.974548 
L 85.697694 227.168333 
L 93.740976 223.407844 
L 101.839251 219.69134 
L 109.990542 216.015877 
L 118.190181 212.379837 
L 126.434248 208.781344 
L 134.721022 205.217686 
L 143.045902 201.687526 
L 151.4061 198.188865 
L 159.799851 194.719431 
L 168.224814 191.277339 
L 176.676833 187.861579 
L 185.1572 184.469083 
L 193.661332 181.099294 
L 202.18861 177.750199 
L 210.737702 174.420217 
L 219.305823 171.108454 
L 227.890839 167.813877 
L 236.491871 164.535091 
L 245.109023 161.270444 
L 253.737944 158.02008 
L 262.382294 154.781224 
L 271.038369 151.553971 
L 279.704206 148.337844 
L 288.380909 145.131312 
L 297.065656 141.934377 
L 305.759435 138.745714 
L 314.460087 135.565222 
L 323.17117 132.390779 
L 331.888247 129.223244 
L 340.608873 126.062794 
L 349.337167 122.907283 
L 358.068889 119.757642 
L 366.806435 116.612451 
L 375.549086 113.471456 
L 384.295688 110.334598 
L 393.045235 107.201799 
L 401.797016 104.072911 
L 410.554066 100.946475 
L 413.23125 99.991277 
" clip-path="url(#pba09d33064)" style="fill: none; stroke: #808080; stroke-width: 0.7"/>
    <path d="M 67.414821 246.7 
L 67.414821 246.7 
L 74.697667 242.412499 
L 82.077292 238.186322 
L 89.549875 234.019998 
L 97.110904 229.91222 
L 104.756177 225.86131 
L 112.480189 221.866114 
" clip-path="url(#pba09d33064)" style="fill: none; stroke: #808080; stroke-width: 0.7"/>
    <path d="M 88.373393 246.7 
L 88.373393 246.7 
L 95.255069 242.177763 
L 102.24822 237.719202 
L 109.350548 233.323197 
L 116.557027 228.989938 
L 123.864509 224.718095 
L 131.268042 220.507093 
L 138.763904 216.35536 
L 146.347368 212.261667 
L 154.013343 208.224764 
L 161.757785 204.242697 
L 169.576086 200.313706 
L 177.463666 196.435943 
L 185.417287 192.606882 
L 193.432227 188.824732 
L 201.504075 185.087565 
L 209.630085 181.392745 
" clip-path="url(#pba09d33064)" style="fill: none; stroke: #808080; stroke-width: 0.7"/>
    <path d="M 98.852679 246.7 
L 98.852679 246.7 
L 105.542566 242.074326 
L 112.349382 237.512132 
L 119.271201 233.01276 
L 126.303513 228.5768 
" clip-path="url(#pba09d33064)" style="fill: none; stroke: #808080; stroke-width: 0.7"/>
    <path d="M 109.331964 246.7 
L 109.331964 246.7 
L 115.836451 241.979068 
L 122.462247 237.320711 
L 129.207791 232.724751 
L 136.069182 228.192137 
L 143.044168 223.722231 
L 150.12833 219.315367 
L 157.317194 214.97144 
L 164.607454 210.689262 
L 171.994468 206.468122 
L 179.474456 202.306522 
" clip-path="url(#pba09d33064)" style="fill: none; stroke: #808080; stroke-width: 0.7"/>
    <path d="M 130.290536 246.7 
L 130.290536 246.7 
L 136.443283 241.810732 
L 142.722619 236.981151 
L 149.128216 232.211583 
L 155.657385 227.503633 
L 162.307862 222.858024 
L 169.077323 218.275026 
L 175.961777 213.75553 
L 182.959169 209.298677 
L 190.064733 204.904925 
L 197.275246 200.573337 
L 204.586186 196.303409 
L 211.992596 192.094536 
L 219.490999 187.944986 
L 227.075865 183.853943 
L 234.744112 179.819069 
L 242.490187 175.839214 
L 250.310409 171.912137 
L 258.200169 168.036019 
L 266.154915 164.208973 
L 274.171562 160.428418 
L 282.245443 156.692565 
L 290.372116 152.999556 
L 298.549181 149.346688 
L 306.772752 145.732038 
L 315.038751 142.15386 
L 323.346026 138.609274 
L 331.689891 135.09705 
L 340.068833 131.614744 
L 348.480184 128.160548 
L 356.922096 124.732462 
" clip-path="url(#pba09d33064)" style="fill: none; stroke: #808080; stroke-width: 0.7"/>
    <path d="M 151.249107 246.7 
L 151.249107 246.7 
L 157.075744 241.667702 
L 163.031008 236.691067 
L 169.115465 231.77095 
L 175.32772 226.909335 
L 181.666077 222.107873 
L 188.129742 217.367012 
L 194.715843 212.688226 
L 201.422385 208.071813 
L 208.246429 203.518243 
L 215.183799 199.028289 
L 222.232327 194.600958 
" clip-path="url(#pba09d33064)" style="fill: none; stroke: #808080; stroke-width: 0.7"/>
    <path d="M 172.207679 246.7 
L 172.207679 246.7 
L 177.733118 241.545639 
L 183.386562 236.4426 
L 189.169475 231.391975 
L 195.081529 226.396033 
L 201.121964 221.456882 
L 207.291108 216.575263 
L 213.587233 211.753071 
L 220.008401 206.991786 
L 226.553481 202.291769 
L 233.219337 197.65432 
L 240.003966 193.079418 
L 246.903959 188.567527 
L 253.914899 184.119252 
L 261.034466 179.733426 
L 268.257582 175.410208 
L 275.581101 171.148217 
L 283.000017 166.946862 
L 290.510293 162.804705 
L 298.107551 158.720285 
L 305.786349 154.692512 
L 313.542913 150.719267 
L 321.372651 146.798769 
L 329.270981 142.929165 
L 337.234704 139.107913 
L 345.259098 135.333222 
L 353.339743 131.603177 
" clip-path="url(#pba09d33064)" style="fill: none; stroke: #808080; stroke-width: 0.7"/>
    <path d="M 193.16625 246.7 
L 193.16625 246.7 
L 198.413847 241.441171 
L 203.787149 236.229147 
L 209.288018 231.06543 
L 214.917302 225.952157 
L 220.675096 220.891724 
L 226.562424 215.885278 
L 232.578767 210.934861 
L 238.722982 206.042494 
L 244.995099 201.208763 
L 251.392987 196.435441 
L 257.914249 191.723913 
L 264.557519 187.074295 
L 271.319344 182.487676 
L 278.19754 177.963773 
L 285.188324 173.502904 
L 292.287021 169.105467 
L 299.491127 164.770097 
L 306.79538 160.496749 
L 314.196264 156.284003 
L 321.688974 152.13091 
" clip-path="url(#pba09d33064)" style="fill: none; stroke: #808080; stroke-width: 0.7"/>
    <path d="M 214.124821 246.7 
L 214.124821 246.7 
L 219.116248 241.351444 
L 224.229873 236.04529 
L 229.467936 230.783244 
L 234.83202 225.56743 
L 240.323118 220.400218 
L 245.942531 215.283324 
L 251.691055 210.218565 
L 257.568379 205.208292 
L 263.574918 200.253764 
L 269.710015 195.356673 
L 275.972079 190.51892 
L 282.360747 185.740941 
L 288.873513 181.024289 
L 295.50735 176.370302 
L 302.260719 171.778752 
L 309.129832 167.250479 
L 316.112218 162.784961 
" clip-path="url(#pba09d33064)" style="fill: none; stroke: #808080; stroke-width: 0.7"/>
    <path d="M 235.083393 246.7 
L 235.083393 246.7 
L 239.838807 241.273831 
L 244.711952 235.886115 
L 249.705548 230.538425 
L 254.821682 225.23286 
L 260.061961 219.971778 
L 265.428188 214.757055 
L 270.921885 209.590557 
L 276.543733 204.474588 
L 282.29433 199.411112 
L 288.174447 194.401535 
L 294.183307 189.448132 
L 300.32055 184.552315 
L 306.585436 179.71532 
L 312.975882 174.938887 
L 319.490829 170.223458 
L 326.127591 165.570157 
L 332.88272 160.980076 
L 339.754292 156.452763 
L 346.738187 151.988776 
L 353.831621 147.587351 
L 361.030267 143.248304 
L 368.328974 138.971524 
L 375.72476 134.755291 
L 383.212252 130.598989 
L 390.787473 126.500965 
L 398.445886 122.459689 
L 406.183203 118.473354 
L 413.23125 114.883144 
" clip-path="url(#pba09d33064)" style="fill: none; stroke: #808080; stroke-width: 0.7"/>
    <path d="M 256.041964 246.7 
L 256.041964 246.7 
L 260.579636 241.206537 
L 265.230259 235.747738 
L 269.996619 230.325319 
L 274.881358 224.941075 
L 279.886489 219.597351 
L 285.014141 214.296159 
L 290.266574 209.039167 
L 295.645001 203.828835 
L 301.150608 198.667297 
L 306.784945 193.556012 
L 312.548271 188.497242 
L 318.44031 183.493244 
L 324.461819 178.544941 
L 330.611549 173.654456 
L 336.888145 168.823433 
L 343.290916 164.052495 
L 349.817276 159.343175 
L 356.465357 154.695935 
L 363.232376 150.111384 
L 370.114432 145.59036 
L 377.109209 141.132172 
L 384.212284 136.737065 
L 391.420601 132.404012 
L 398.7296 128.132552 
L 406.133961 123.922293 
L 413.23125 119.939132 
" clip-path="url(#pba09d33064)" style="fill: none; stroke: #808080; stroke-width: 0.7"/>
    <path d="M 277.000536 246.7 
L 277.000536 246.7 
L 281.337133 241.147902 
L 285.781631 235.627064 
L 290.336982 230.139095 
L 295.005942 224.685814 
L 299.791014 219.269262 
L 304.694557 213.891521 
L 309.719175 208.55426 
L 314.866783 203.259709 
L 320.138831 198.010309 
L 325.537465 192.807527 
L 331.063751 187.653592 
L 336.718207 182.550847 
L 342.501891 177.500744 
L 348.414819 172.505241 
L 354.456217 167.566466 
L 360.626246 162.685289 
L 366.923391 157.863439 
L 373.345408 153.102624 
L 379.89147 148.402977 
L 386.55847 143.765783 
L 393.343676 139.191514 
L 400.244427 134.680114 
L 407.256269 130.232221 
L 413.23125 126.496669 
" clip-path="url(#pba09d33064)" style="fill: none; stroke: #808080; stroke-width: 0.7"/>
    <path d="M 297.959107 246.7 
L 297.959107 246.7 
L 302.109827 241.096509 
L 306.363286 235.521282 
L 310.722531 229.975777 
L 315.190512 224.461619 
L 319.769821 218.980862 
L 324.463154 213.535369 
L 329.273297 208.126834 
L 334.202537 202.757404 
L 339.252953 197.429274 
L 344.426729 192.14432 
L 349.725862 186.904392 
L 355.151445 181.711945 
L 360.704685 176.568964 
L 366.386845 171.477038 
L 372.197852 166.43855 
L 378.137889 161.455187 
L 384.206977 156.528325 
L 390.403777 151.659949 
L 396.727424 146.851135 
L 403.176376 142.102973 
L 409.747823 137.41694 
L 413.23125 134.97118 
" clip-path="url(#pba09d33064)" style="fill: none; stroke: #808080; stroke-width: 0.7"/>
    <path d="M 308.438393 246.7 
L 308.438393 246.7 
L 312.501403 241.073207 
L 316.664624 235.473251 
L 320.931054 229.901611 
L 325.30374 224.359766 
L 329.785353 218.84969 
" clip-path="url(#pba09d33064)" style="fill: none; stroke: #808080; stroke-width: 0.7"/>
    <path d="M 318.917679 246.7 
L 318.917679 246.7 
L 322.896226 241.051364 
L 326.972481 235.428211 
L 331.149425 229.831984 
L 335.430088 224.264142 
L 339.817252 218.72651 
L 344.313626 213.221002 
L 348.922202 207.749164 
L 353.645644 202.312901 
L 358.486233 196.914453 
L 363.446516 191.555623 
L 368.528878 186.238243 
L 373.735004 180.964668 
L 379.066467 175.737083 
L 384.52521 170.557024 
L 390.112035 165.426804 
L 395.827177 160.348824 
L 401.672008 155.324071 
L 407.645883 150.354861 
L 413.23125 145.783081 
" clip-path="url(#pba09d33064)" style="fill: none; stroke: #808080; stroke-width: 0.7"/>
    <path d="M 329.396964 246.7 
L 329.396964 246.7 
L 333.294172 241.030827 
L 337.286614 235.385861 
L 341.37726 229.766488 
L 345.569094 224.174169 
L 349.864986 218.610583 
L 354.267694 213.077581 
L 358.780164 207.576777 
L 363.405264 202.109876 
L 368.14541 196.679056 
L 373.003122 191.286259 
L 377.981111 185.933101 
L 383.081222 180.621966 
L 388.305243 175.355048 
L 393.655254 170.133993 
L 399.132434 164.961047 
" clip-path="url(#pba09d33064)" style="fill: none; stroke: #808080; stroke-width: 0.7"/>
    <path d="M 339.87625 246.7 
L 339.87625 246.7 
L 343.695097 241.01149 
L 347.606704 235.346038 
L 351.61406 229.704915 
L 355.720142 224.089518 
L 359.927783 218.501529 
L 364.239831 212.942651 
L 368.659258 207.414462 
L 373.188949 201.918664 
L 377.831508 196.457271 
L 382.589493 191.032267 
L 387.465761 185.64521 
" clip-path="url(#pba09d33064)" style="fill: none; stroke: #808080; stroke-width: 0.7"/>
    <path d="M 360.834821 246.7 
L 360.834821 246.7 
L 364.505287 240.976113 
L 368.263754 235.273123 
L 372.113122 229.592211 
L 376.056382 223.93457 
L 380.096341 218.301778 
L 384.235816 212.695472 
L 388.477881 207.117021 
L 392.825483 201.568027 
L 397.281327 196.050416 
L 401.848199 190.565995 
L 406.528966 185.11644 
L 411.326182 179.703728 
L 413.23125 177.587327 
" clip-path="url(#pba09d33064)" style="fill: none; stroke: #808080; stroke-width: 0.7"/>
    <path d="M 381.793393 246.7 
L 381.793393 246.7 
L 385.325712 240.944665 
L 388.941516 235.208253 
L 392.643593 229.491875 
L 396.434816 223.796668 
L 400.318022 218.123971 
L 404.296004 212.4753 
L 408.371723 206.852037 
L 412.548247 201.255519 
L 413.23125 200.353483 
" clip-path="url(#pba09d33064)" style="fill: none; stroke: #808080; stroke-width: 0.7"/>
    <path d="M 392.272679 246.7 
L 392.272679 246.7 
L 395.739478 240.930226 
L 399.287576 235.178491 
L 402.919721 229.445835 
L 406.638728 223.733363 
L 410.447381 218.042376 
L 413.23125 213.939405 
" clip-path="url(#pba09d33064)" style="fill: none; stroke: #808080; stroke-width: 0.7"/>
    <path d="M 46.45625 32.111429 
L 46.45625 32.111429 
L 50.2816 37.798164 
L 54.260842 43.446304 
L 58.406149 49.05102 
L 62.730727 54.606314 
L 67.249025 60.105032 
L 71.977327 65.539218 
L 76.933405 70.899289 
L 82.136216 76.173407 
L 87.606481 81.347828 
L 93.366936 86.406768 
L 99.4403 91.33046 
L 105.84967 96.095813 
L 112.61869 100.676822 
L 119.766797 105.042135 
L 127.311138 109.157966 
L 135.259532 112.986194 
L 143.610539 116.487838 
L 152.347918 119.624308 
L 161.443179 122.362432 
L 170.860784 124.678407 
L 180.541035 126.55577 
L 190.418608 127.991992 
L 200.440122 128.998764 
L 210.554563 129.59683 
L 220.712281 129.813635 
L 230.87212 129.681226 
L 241.006487 129.233269 
L 251.096876 128.502668 
L 261.132234 127.520207 
L 271.103907 126.314297 
L 281.009275 124.910268 
L 290.842638 123.331524 
L 300.599 121.599332 
L 310.285392 119.730675 
L 319.909143 117.740133 
L 329.470821 115.641769 
L 338.969496 113.448512 
L 348.414173 111.169581 
L 357.810429 108.813576 
L 367.155842 106.390028 
L 376.456076 103.905472 
L 385.72019 101.364556 
L 394.943896 98.774802 
L 404.130162 96.141131 
L 413.23125 93.507281 
" clip-path="url(#pba09d33064)" style="fill: none; stroke: #808080; stroke-width: 0.7"/>
    <path d="M 46.45625 44.734286 
L 46.45625 44.734286 
L 50.566233 50.348352 
L 54.85268 55.914346 
L 59.329883 61.425492 
L 64.013463 66.873683 
L 68.92095 72.2498 
" clip-path="url(#pba09d33064)" style="fill: none; stroke: #808080; stroke-width: 0.7"/>
    <path d="M 46.45625 57.357143 
L 46.45625 57.357143 
L 50.891575 62.880609 
L 55.529813 68.342942 
L 60.388025 73.735209 
L 65.485077 79.046992 
L 70.840888 84.265274 
L 76.47671 89.374571 
L 82.416202 94.357628 
L 88.682341 99.19267 
L 95.297705 103.854244 
L 102.284983 108.314111 
L 109.661502 112.538788 
L 117.440286 116.492347 
L 125.622327 120.135093 
L 134.200357 123.429027 
L 143.151529 126.338213 
L 152.43539 128.832497 
L 162.007699 130.89394 
L 171.816978 132.515805 
L 181.796356 133.701728 
L 191.880296 134.467815 
L 202.023126 134.840225 
L 212.186751 134.849767 
L 222.339558 134.52942 
L 232.456271 133.912499 
L 242.522174 133.030822 
L 252.528401 131.913773 
L 262.463063 130.588968 
" clip-path="url(#pba09d33064)" style="fill: none; stroke: #808080; stroke-width: 0.7"/>
    <path d="M 46.45625 69.98 
L 46.45625 69.98 
L 51.264888 75.388469 
L 56.307851 80.718629 
L 61.605278 85.958534 
L 67.178047 91.093145 
" clip-path="url(#pba09d33064)" style="fill: none; stroke: #808080; stroke-width: 0.7"/>
    <path d="M 46.45625 82.602857 
L 46.45625 82.602857 
L 51.695289 87.863879 
L 57.20513 93.023374 
L 63.007729 98.064297 
L 69.12663 102.967114 
L 75.585486 107.708602 
L 82.406046 112.260991 
L 89.6095 116.59385 
L 97.21003 120.671568 
L 105.215853 124.456618 
L 113.6214 127.908896 
L 122.411869 130.991651 
L 131.557486 133.672484 
L 141.008948 135.926027 
L 150.714479 137.740511 
L 160.623355 139.116928 
L 170.67527 140.066061 
L 180.809613 140.60874 
L 190.976857 140.773716 
L 201.145084 140.593673 
L 211.291251 140.101845 
L 221.391207 139.331081 
L 231.422565 138.313338 
L 241.380147 137.077138 
" clip-path="url(#pba09d33064)" style="fill: none; stroke: #808080; stroke-width: 0.7"/>
    <path d="M 46.45625 95.225714 
L 46.45625 95.225714 
L 52.192157 100.294787 
L 58.238746 105.230076 
L 64.620279 110.009677 
L 71.35941 114.607029 
L 78.47586 118.991169 
L 85.986988 123.128524 
L 93.901209 126.981219 
L 102.217696 130.510285 
L 110.924723 133.678215 
L 119.992921 136.450319 
L 129.381379 138.800572 
L 139.040796 140.71408 
" clip-path="url(#pba09d33064)" style="fill: none; stroke: #808080; stroke-width: 0.7"/>
    <path d="M 46.45625 107.848571 
L 46.45625 107.848571 
L 52.763187 112.663635 
L 59.423528 117.302945 
L 66.457681 121.736294 
L 73.882359 125.929852 
L 81.709558 129.847376 
L 89.940295 133.449714 
L 98.564481 136.698472 
L 107.560298 139.559233 
" clip-path="url(#pba09d33064)" style="fill: none; stroke: #808080; stroke-width: 0.7"/>
    <path d="M 46.45625 114.16 
L 46.45625 114.16 
L 53.078569 118.81815 
L 60.073156 123.273972 
L 67.456866 127.493709 
L 75.242523 131.44143 
" clip-path="url(#pba09d33064)" style="fill: none; stroke: #808080; stroke-width: 0.7"/>
    <path d="M 46.45625 120.471429 
L 46.45625 120.471429 
L 53.414367 124.94848 
L 60.760603 129.193036 
L 68.507276 133.168783 
L 76.657922 136.837072 
L 85.207249 140.16006 
L 94.131844 143.100677 
L 103.391527 145.627974 
L 112.947175 147.724141 
L 122.740314 149.379925 
L 132.701556 150.598333 
L 142.774678 151.396021 
L 152.911396 151.79815 
L 163.071433 151.835097 
L 173.223309 151.539708 
L 183.340377 150.945328 
L 193.403969 150.084268 
L 203.407111 148.986067 
L 213.349113 147.676958 
L 223.221781 146.181685 
L 233.014356 144.523547 
L 242.732243 142.721102 
L 252.386791 140.789265 
L 261.981316 138.742313 
L 271.510702 136.594773 
L 280.980012 134.35756 
L 290.400915 132.038492 
L 299.772798 129.647088 
L 309.095018 127.191975 
L 318.378129 124.677895 
L 327.62151 122.11171 
L 336.826007 119.49924 
" clip-path="url(#pba09d33064)" style="fill: none; stroke: #808080; stroke-width: 0.7"/>
    <path d="M 46.45625 133.094286 
L 46.45625 133.094286 
L 54.136152 137.117333 
L 62.220089 140.839369 
L 70.703285 144.221837 
L 79.567595 147.228174 
L 88.776902 149.826292 
L 98.283128 151.994035 
L 108.036033 153.722311 
" clip-path="url(#pba09d33064)" style="fill: none; stroke: #808080; stroke-width: 0.7"/>
    <path d="M 46.45625 145.717143 
L 46.45625 145.717143 
L 54.89944 149.135997 
L 63.722896 152.181188 
L 72.900581 154.822707 
L 82.384273 157.036164 
L 92.111865 158.808722 
L 102.027342 160.14267 
L 112.077674 161.051575 
L 122.212073 161.557579 
L 132.381224 161.689137 
L 142.544324 161.478899 
L 152.674716 160.960743 
L 162.754904 160.167473 
L 172.775152 159.129525 
L 182.727712 157.874854 
L 192.610464 156.428298 
" clip-path="url(#pba09d33064)" style="fill: none; stroke: #808080; stroke-width: 0.7"/>
    <path d="M 46.45625 158.34 
L 46.45625 158.34 
L 55.636157 160.974334 
L 65.122557 163.180907 
L 74.858228 164.94762 
L 84.779807 166.275277 
L 94.831023 167.17757 
L 104.95774 167.677206 
" clip-path="url(#pba09d33064)" style="fill: none; stroke: #808080; stroke-width: 0.7"/>
    <path d="M 46.45625 164.651429 
L 46.45625 164.651429 
L 55.961702 166.822762 
L 65.70952 168.553813 
L 75.647534 169.847862 
L 85.717825 170.718129 
L 95.8637 171.187102 
L 106.035297 171.284235 
L 116.199696 171.042658 
L 126.335512 170.495778 
L 136.422704 169.676083 
L 146.443119 168.614682 
L 156.38893 167.339785 
L 166.260033 165.87608 
L 176.062726 164.244481 
L 185.802902 162.463226 
" clip-path="url(#pba09d33064)" style="fill: none; stroke: #808080; stroke-width: 0.7"/>
    <path d="M 46.45625 177.274286 
L 46.45625 177.274286 
L 56.457707 178.397262 
L 66.560945 179.103781 
L 76.714481 179.420338 
L 86.882362 179.378507 
L 97.037486 179.011409 
L 107.15657 178.352046 
L 117.219008 177.432486 
L 127.209995 176.282897 
L 137.126817 174.929898 
" clip-path="url(#pba09d33064)" style="fill: none; stroke: #808080; stroke-width: 0.7"/>
    <path d="M 46.45625 183.585714 
L 46.45625 183.585714 
L 56.582172 184.139333 
L 66.74505 184.314838 
L 76.907873 184.144671 
L 87.04305 183.662474 
L 97.132109 182.901055 
L 107.160126 181.891503 
L 117.118846 180.662274 
" clip-path="url(#pba09d33064)" style="fill: none; stroke: #808080; stroke-width: 0.7"/>
    <path d="M 46.45625 189.897143 
L 46.45625 189.897143 
L 56.619694 189.869598 
L 66.764094 189.516051 
L 76.868852 188.869876 
L 86.921676 187.962562 
L 96.916991 186.822798 
" clip-path="url(#pba09d33064)" style="fill: none; stroke: #808080; stroke-width: 0.7"/>
    <path d="M 46.45625 202.52 
L 46.45625 202.52 
L 56.446188 201.349973 
L 66.365087 199.978114 
L 76.205315 198.42887 
L 85.971469 196.722468 
L 95.671404 194.875947 
L 105.308978 192.904792 
L 114.879707 190.824465 
L 124.386866 188.647317 
L 133.843474 186.381824 
L 143.248771 184.038293 
L 152.600024 181.626574 
L 161.909018 179.151775 
L 171.179633 176.620053 
L 180.407788 174.03902 
L 189.60139 171.412311 
L 198.765555 168.743653 
L 207.896983 166.038699 
L 217.002254 163.299739 
L 226.082926 160.530102 
L 235.138049 157.733534 
L 244.174772 154.910935 
L 253.19016 152.066036 
" clip-path="url(#pba09d33064)" style="fill: none; stroke: #808080; stroke-width: 0.7"/>
    <path d="M 46.45625 215.142857 
L 46.45625 215.142857 
L 55.954219 212.943699 
L 65.393172 210.660674 
L 74.786339 208.300502 
L 84.13285 205.872179 
L 93.430969 203.384106 
L 102.691667 200.840424 
L 111.914798 198.247465 
L 121.100382 195.610924 
L 130.257353 192.933326 
L 139.38309 190.220009 
L 148.480666 187.474207 
L 157.556418 184.697721 
L 166.606349 181.895136 
" clip-path="url(#pba09d33064)" style="fill: none; stroke: #808080; stroke-width: 0.7"/>
    <path d="M 46.45625 227.765714 
L 46.45625 227.765714 
L 55.279517 224.708273 
L 64.099608 221.648513 
L 72.916211 218.586821 
L 81.733373 215.522047 
L 90.546867 212.455895 
L 99.358756 209.387863 
L 108.170542 206.317625 
L 116.978152 203.246782 
" clip-path="url(#pba09d33064)" style="fill: none; stroke: #808080; stroke-width: 0.7"/>
    <path d="M 394.391407 213.710713 
L 398.52054 208.101512 
L 402.751964 202.52 
L 407.088458 196.968032 
L 411.532946 191.447203 
L 413.23125 189.369008 
" clip-path="url(#pba09d33064)" style="fill: none; stroke: #808080; stroke-width: 0.7"/>
    <path d="M 324.924464 153.65467 
L 332.352228 149.459033 
L 339.869976 145.322988 
L 347.474538 141.244376 
L 355.160377 137.222152 
L 362.924312 133.253896 
L 370.761068 129.338181 
L 378.666013 125.473178 
L 386.635828 121.656398 
L 394.665745 117.886072 
L 402.751964 114.16 
L 410.89113 110.475942 
L 413.23125 109.42556 
" clip-path="url(#pba09d33064)" style="fill: none; stroke: #808080; stroke-width: 0.7"/>
    <path d="M 143.235099 25.8 
L 144.478274 27.338635 
L 149.038447 32.825011 
L 153.812007 38.244859 
L 158.81685 43.588061 
L 164.072951 48.843102 
L 169.601106 53.995463 
L 175.423396 59.027992 
L 181.564045 63.921454 
L 188.045828 68.651694 
L 194.890682 73.190944 
L 202.118873 77.508146 
L 209.744894 81.567986 
L 217.775208 85.332295 
L 226.205954 88.762146 
L 235.019121 91.819993 
L 244.187784 94.475014 
L 253.66107 96.701859 
L 263.381547 98.488388 
L 273.297054 99.836673 
L 283.349352 100.758889 
L 293.483625 101.276823 
L 303.654308 101.419179 
L 313.824313 101.218367 
L 323.964533 100.70805 
L 334.051781 99.921472 
L 344.07263 98.889854 
L 354.023976 97.641058 
L 363.90785 96.199461 
L 373.727401 94.586465 
L 383.474923 92.823004 
L 393.146344 90.927673 
L 402.751964 88.914286 
L 412.303331 86.793965 
L 413.23125 86.582766 
" clip-path="url(#pba09d33064)" style="fill: none; stroke: #808080; stroke-width: 0.7"/>
    <path d="M 193.306649 25.8 
L 197.522614 30.1549 
L 202.784528 35.407462 
L 208.319296 40.55728 
L 214.149004 45.587062 
L 220.296711 50.476541 
L 226.786536 55.202591 
L 233.640221 59.737174 
L 240.878186 64.04921 
L 248.51438 68.103015 
L 256.555517 71.860544 
L 264.995419 75.282018 
L 273.819408 78.331372 
L 282.995343 80.976319 
L 292.47053 83.191859 
L 302.197272 84.968325 
L 312.124364 86.307347 
L 322.188408 87.220159 
L 332.324736 87.72835 
L 342.49109 87.861723 
L 352.655991 87.653066 
L 362.796858 87.135582 
L 372.891196 86.341897 
L 382.919279 85.303448 
L 392.872248 84.048864 
L 402.751964 82.602857 
L 412.562666 80.986538 
L 413.23125 80.870836 
" clip-path="url(#pba09d33064)" style="fill: none; stroke: #808080; stroke-width: 0.7"/>
    <path d="M 231.22778 25.8 
L 231.880954 26.422723 
L 237.465508 31.552924 
L 243.348746 36.559601 
L 249.554898 41.422765 
L 256.106802 46.117647 
L 263.025888 50.615604 
L 270.331986 54.885003 
L 278.037283 58.889339 
L 286.147923 62.590871 
L 294.656846 65.950336 
L 303.540899 68.930184 
L 312.775075 71.502529 
L 322.305941 73.643715 
L 332.068997 75.342915 
L 342.01134 76.605047 
L 352.080014 77.445187 
L 362.224401 77.886654 
L 372.396214 77.958764 
L 382.556683 77.694578 
L 392.680642 77.127957 
L 402.751964 76.291429 
L 412.760855 75.21463 
L 413.23125 75.158822 
" clip-path="url(#pba09d33064)" style="fill: none; stroke: #808080; stroke-width: 0.7"/>
    <path d="M 261.943173 25.8 
L 264.357136 27.806711 
L 270.498716 32.699539 
L 276.98138 37.428993 
L 283.827749 41.967751 
L 291.057257 46.284172 
L 298.684697 50.343136 
L 306.716205 54.106331 
L 315.148316 57.535032 
L 323.963143 60.591727 
L 333.131164 63.244886 
L 342.6065 65.470587 
L 352.328612 67.255805 
L 362.243415 68.602477 
L 372.29314 69.52313 
L 382.422905 70.039758 
L 392.58793 70.181234 
L 402.751964 69.98 
L 412.886723 69.468978 
L 413.23125 69.446848 
" clip-path="url(#pba09d33064)" style="fill: none; stroke: #808080; stroke-width: 0.7"/>
    <path d="M 288.158865 25.8 
L 290.054004 27.222709 
L 296.607202 31.916752 
L 303.527754 36.413824 
L 310.836068 40.682579 
L 318.543929 44.686195 
L 326.656953 48.386654 
L 335.168626 51.744959 
L 344.05533 54.723378 
L 353.288102 57.293098 
L 362.816217 59.431661 
L 372.582128 61.129477 
L 382.528845 62.390257 
L 392.60239 63.228854 
L 402.751964 63.668571 
L 412.931541 63.737915 
L 413.23125 63.735009 
" clip-path="url(#pba09d33064)" style="fill: none; stroke: #808080; stroke-width: 0.7"/>
    <path d="M 311.126791 25.8 
L 315.32861 28.545295 
L 322.426342 32.941525 
L 329.917306 37.092355 
L 337.81297 40.961395 
L 346.111606 44.508802 
L 354.798907 47.695785 
L 363.852133 50.489515 
L 373.225449 52.861707 
L 382.869854 54.797227 
L 392.733966 56.293298 
L 402.751964 57.357143 
L 412.863229 58.006862 
L 413.23125 58.023506 
" clip-path="url(#pba09d33064)" style="fill: none; stroke: #808080; stroke-width: 0.7"/>
    <path d="M 332.041777 25.8 
L 333.410606 26.636291 
L 340.759417 30.878536 
L 348.509209 34.852048 
L 356.662751 38.517818 
L 365.21399 41.837799 
L 374.139853 44.775263 
L 383.403959 47.300288 
L 392.962136 49.393609 
L 402.751964 51.045714 
L 412.712865 52.260312 
L 413.23125 52.312444 
" clip-path="url(#pba09d33064)" style="fill: none; stroke: #808080; stroke-width: 0.7"/>
    <path d="M 358.700685 29.748064 
L 366.763309 33.488553 
L 375.225967 36.891633 
L 384.068834 39.919725 
L 393.260722 42.541791 
L 402.751964 44.734286 
L 412.491607 46.486372 
L 413.23125 46.602056 
" clip-path="url(#pba09d33064)" style="fill: none; stroke: #808080; stroke-width: 0.7"/>
    <path d="M 376.673416 25.8 
L 383.736575 28.779121 
L 392.272679 32.111429 
L 401.186609 35.062539 
L 410.439141 37.601693 
L 413.23125 38.29433 
" clip-path="url(#pba09d33064)" style="fill: none; stroke: #808080; stroke-width: 0.7"/>
    <path d="M 367.436355 25.8 
L 373.487764 28.572255 
L 381.793393 32.111429 
L 390.48929 35.289658 
L 399.547444 38.073027 
" clip-path="url(#pba09d33064)" style="fill: none; stroke: #808080; stroke-width: 0.7"/>
    <path d="M 299.206459 25.8 
L 301.657084 27.53704 
L 308.438393 32.111429 
L 315.599383 36.468888 
L 323.157391 40.57585 
L 331.118756 44.393513 
L 339.482421 47.883343 
L 348.23335 51.007391 
" clip-path="url(#pba09d33064)" style="fill: none; stroke: #808080; stroke-width: 0.7"/>
    <path d="M 279.10156 25.8 
L 281.078566 27.341418 
L 287.479821 32.111429 
L 294.239349 36.697112 
L 301.37882 41.06872 
L 308.913349 45.191167 
L 316.851299 49.026727 
" clip-path="url(#pba09d33064)" style="fill: none; stroke: #808080; stroke-width: 0.7"/>
    <path d="M 248.684686 25.8 
L 250.157905 27.104678 
L 256.041964 32.111429 
L 262.248305 36.974023 
L 268.800679 41.668472 
L 275.721013 46.166373 
L 283.027311 50.434924 
L 290.733563 54.43869 
L 298.8446 58.139229 
L 307.353206 61.497316 
" clip-path="url(#pba09d33064)" style="fill: none; stroke: #808080; stroke-width: 0.7"/>
    <path d="M 218.046572 25.8 
L 219.176684 26.920194 
L 224.604107 32.111429 
L 230.317554 37.189323 
L 236.340467 42.135414 
L 242.696413 46.927462 
L 249.407674 51.538934 
L 256.496478 55.940625 
" clip-path="url(#pba09d33064)" style="fill: none; stroke: #808080; stroke-width: 0.7"/>
    <path d="M 176.960235 25.8 
L 177.784953 26.733398 
L 182.686964 32.111429 
L 187.831139 37.406347 
L 193.237949 42.605028 
L 198.929728 47.692219 
L 204.928827 52.648744 
L 211.259046 57.45289 
L 217.943616 62.079009 
L 225.002758 66.496751 
L 232.454982 70.673265 
L 240.309098 74.570584 
L 248.568047 78.15077 
L 257.219016 81.374627 
L 266.233967 84.206647 
L 275.581992 86.621651 
L 285.207942 88.6008 
L 295.044941 90.137916 
" clip-path="url(#pba09d33064)" style="fill: none; stroke: #808080; stroke-width: 0.7"/>
    <path d="M 125.347499 25.8 
L 125.933116 26.565529 
L 130.290536 32.111429 
L 134.84448 37.599539 
L 139.611311 43.02142 
L 144.609184 48.36732 
L 149.857438 53.62515 
L 155.376798 58.780489 
L 161.190562 63.817369 
L 167.321329 68.715227 
L 173.792142 73.45032 
L 180.626447 77.995988 
L 187.842902 82.320093 
L 195.458009 86.388454 
L 203.476739 90.161943 
L 211.896978 93.602278 
L 220.700914 96.671598 
L 229.853983 99.336717 
L 239.319707 101.576145 
L 249.042001 103.376561 
L 258.953469 104.736936 
L 268.99444 105.670125 
L 279.115059 106.198901 
L 289.27229 106.352131 
L 299.431497 106.162037 
L 309.562371 105.662065 
L 319.643438 104.885165 
" clip-path="url(#pba09d33064)" style="fill: none; stroke: #808080; stroke-width: 0.7"/>
    <path d="M 114.999981 25.8 
L 115.550083 26.538395 
L 119.81125 32.111429 
L 124.261013 37.630516 
L 128.914942 43.087916 
L 133.790444 48.474814 
" clip-path="url(#pba09d33064)" style="fill: none; stroke: #808080; stroke-width: 0.7"/>
    <path d="M 104.645643 25.8 
L 105.163294 26.512987 
L 109.331964 32.111429 
L 113.681683 37.65945 
L 118.227265 43.149956 
L 122.98534 48.574945 
" clip-path="url(#pba09d33064)" style="fill: none; stroke: #808080; stroke-width: 0.7"/>
    <path d="M 94.285001 25.8 
L 94.772978 26.489225 
L 98.852679 32.111429 
L 103.106248 37.686459 
L 107.547819 43.207861 
L 112.193146 48.668234 
" clip-path="url(#pba09d33064)" style="fill: none; stroke: #808080; stroke-width: 0.7"/>
    <path d="M 83.918518 25.8 
L 84.379275 26.466933 
L 88.373393 32.111429 
L 92.534555 37.711744 
L 96.87624 43.262011 
L 101.413355 48.755358 
" clip-path="url(#pba09d33064)" style="fill: none; stroke: #808080; stroke-width: 0.7"/>
    <path d="M 73.546615 25.8 
L 73.982381 26.446035 
L 77.894107 32.111429 
L 81.966424 37.73545 
L 86.212096 43.31265 
L 90.645271 48.836707 
L 95.281325 54.29989 
L 100.137045 59.692972 
L 105.231158 65.005459 
L 110.584018 70.224833 
L 116.216746 75.335489 
L 122.152472 80.31977 
L 128.414838 85.156519 
L 135.026439 89.820277 
L 142.010231 94.282945 
L 149.383019 98.510671 
L 157.157037 102.467169 
L 165.334882 106.11355 
L 173.910712 109.41216 
L 182.85937 112.325956 
L 192.139919 114.824677 
L 201.713292 116.891423 
L 211.519733 118.5176 
L 221.491962 119.70733 
L 231.571788 120.477609 
L 241.711268 120.854149 
L 251.871113 120.867677 
L 262.020891 120.551149 
L 272.135439 119.9378 
L 282.196897 119.059707 
" clip-path="url(#pba09d33064)" style="fill: none; stroke: #808080; stroke-width: 0.7"/>
    <path d="M 63.169673 25.8 
L 63.58242 26.426377 
L 67.414821 32.111429 
L 71.401676 37.757698 
L 75.555067 43.360111 
L 79.888427 48.912859 
L 84.41645 54.408934 
L 89.155079 59.839811 
L 94.122168 65.195876 
L 99.33726 70.465737 
L 104.820802 75.635155 
L 110.595204 80.687896 
" clip-path="url(#pba09d33064)" style="fill: none; stroke: #808080; stroke-width: 0.7"/>
    <path d="M 52.788037 25.8 
L 53.179544 26.407867 
L 56.935536 32.111429 
L 60.840111 37.778556 
L 64.904739 43.404561 
L 69.142207 48.984147 
L 73.56645 54.510839 
L 78.19265 59.976829 
L 83.037874 65.373377 
L 88.120778 70.69004 
L 93.46107 75.913823 
L 99.080341 81.029789 
L 105.001814 86.020507 
L 111.248432 90.864418 
L 117.843405 95.536714 
L 124.808917 100.008914 
L 132.162414 104.247715 
L 139.917139 108.21734 
L 148.076547 111.879049 
L 156.631926 115.193751 
" clip-path="url(#pba09d33064)" style="fill: none; stroke: #808080; stroke-width: 0.7"/>
    <path d="M 270.272983 25.8 
L 274.385528 29.032362 
L 280.754389 33.818266 
L 287.479821 38.422857 
L 294.582018 42.815398 
L 302.078274 46.962414 
" clip-path="url(#pba09d33064)" style="fill: none; stroke: #808080; stroke-width: 0.7"/>
    <path d="M 160.884056 25.8 
L 162.458974 27.649609 
L 167.218217 33.07413 
L 172.207679 38.422857 
L 177.446589 43.683755 
L 182.956446 48.843273 
L 188.759379 53.884482 
L 194.878048 58.787105 
L 201.33715 63.528768 
L 208.158283 68.081503 
L 215.361174 72.413989 
L 222.9616 76.491639 
L 230.966009 80.276055 
L 239.370645 83.728069 
L 248.162857 86.811511 
L 257.308884 89.492472 
L 266.758973 91.74573 
L 276.469641 93.561112 
L 286.38202 94.937756 
L 296.429457 95.886258 
L 306.553123 96.428478 
L 316.711417 96.593757 
L 326.871258 96.414547 
L 337.007904 95.924064 
" clip-path="url(#pba09d33064)" style="fill: none; stroke: #808080; stroke-width: 0.7"/>
    <path d="M 161.728393 227.765714 
L 168.258489 223.058257 
L 174.910196 218.412925 
L 181.680023 213.83078 
L 188.566021 209.31134 
" clip-path="url(#pba09d33064)" style="fill: none; stroke: #808080; stroke-width: 0.7"/>
    <path d="M 204.012774 25.8 
L 207.632116 29.440615 
L 213.00038 34.65394 
L 218.650206 39.757981 
L 224.604107 44.734286 
L 230.885828 49.561551 
" clip-path="url(#pba09d33064)" style="fill: none; stroke: #808080; stroke-width: 0.7"/>
    <path d="M 77.894107 101.537143 
L 84.436194 106.237013 
L 91.345171 110.740919 
L 98.640465 115.016976 
L 106.33479 119.02896 
L 114.433436 122.738676 
L 122.931481 126.107666 
L 131.807436 129.098522 
" clip-path="url(#pba09d33064)" style="fill: none; stroke: #808080; stroke-width: 0.7"/>
    <path d="M 119.81125 221.454286 
L 127.484242 217.422924 
L 135.235494 213.446107 
L 143.060665 209.521942 
L 150.954397 205.648972 
" clip-path="url(#pba09d33064)" style="fill: none; stroke: #808080; stroke-width: 0.7"/>
    <path d="M 258.308258 61.216423 
L 266.139795 65.130528 
L 274.375488 68.729399 
L 283.006562 71.975055 
L 292.003813 74.830682 
L 301.329884 77.268869 
L 310.943962 79.273667 
L 320.778185 80.836892 
L 330.766188 81.965093 
L 340.857087 82.677405 
L 351.005018 83.000124 
L 361.168772 82.96416 
L 371.314107 82.602857 
" clip-path="url(#pba09d33064)" style="fill: none; stroke: #808080; stroke-width: 0.7"/>
    <path d="M 140.769821 57.357143 
L 146.311068 62.504401 
L 152.147596 67.531032 
L 158.303084 72.417187 
L 164.801068 77.139158 
L 171.663147 81.668773 
L 178.910024 85.975108 
L 186.554916 90.022061 
L 194.605226 93.772024 
L 203.054224 97.185013 
L 211.884827 100.224389 
L 221.067272 102.859036 
L 230.551101 105.064619 
L 240.280397 106.830042 
L 250.203855 108.15792 
" clip-path="url(#pba09d33064)" style="fill: none; stroke: #808080; stroke-width: 0.7"/>
    <path d="M 119.81125 57.357143 
L 125.069728 62.611279 
L 130.600237 67.762383 
L 136.425498 72.793844 
L 142.569005 77.685742 
L 149.053598 82.413992 
L 155.902618 86.951726 
L 163.134966 91.266851 
L 170.764869 95.323945 
L 178.79897 99.084988 
L 187.234172 102.511408 
L 196.052248 105.565521 
L 205.219831 108.214853 
L 214.695419 110.437041 
L 224.422088 112.219591 
L 234.337077 113.562936 
L 244.383148 114.480277 
L 254.508527 114.994168 
L 264.669356 115.133519 
L 274.830241 114.930661 
L 284.961581 114.419112 
L 295.041398 113.631878 
L 305.059255 112.599636 
L 315.012554 111.349819 
L 324.903533 109.906442 
L 334.724165 108.292573 
L 344.465045 106.52977 
L 354.134379 104.63445 
L 363.744423 102.619788 
" clip-path="url(#pba09d33064)" style="fill: none; stroke: #808080; stroke-width: 0.7"/>
    <path d="M 119.81125 88.914286 
L 126.461197 93.558599 
L 133.484181 97.997736 
L 140.898552 102.198805 
L 148.715199 106.12478 
" clip-path="url(#pba09d33064)" style="fill: none; stroke: #808080; stroke-width: 0.7"/>
    <path d="M 151.249107 76.291429 
L 157.817314 80.977228 
L 164.754754 85.465359 
L 172.079257 89.722787 
L 179.804872 93.714049 
" clip-path="url(#pba09d33064)" style="fill: none; stroke: #808080; stroke-width: 0.7"/>
    <path d="M 118.821386 66.154566 
L 124.406457 71.28466 
L 130.290536 76.291429 
L 136.496718 81.153905 
L 143.049229 85.848457 
" clip-path="url(#pba09d33064)" style="fill: none; stroke: #808080; stroke-width: 0.7"/>
    <path d="M 120.548251 143.971826 
L 130.290536 145.717143 
L 140.223898 147.024021 
L 150.289924 147.906482 
L 160.433976 148.386983 
L 170.606426 148.494709 
L 180.771767 148.262682 
L 190.908008 147.724425 
L 200.99598 146.912466 
" clip-path="url(#pba09d33064)" style="fill: none; stroke: #808080; stroke-width: 0.7"/>
    <path d="M 256.041964 145.717143 
L 265.325948 143.212463 
L 274.574742 140.653543 
L 283.788234 138.046476 
L 292.962586 135.397875 
L 302.109562 132.709289 
L 311.229693 129.984962 
" clip-path="url(#pba09d33064)" style="fill: none; stroke: #808080; stroke-width: 0.7"/>
   </g>
   <g id="patch_3">
    <path d="M 221.171219 170.392591 
Q 221.452091 170.284804 221.002295 170.457418 
" clip-path="url(#pba09d33064)" style="fill: none; stroke: #808080; stroke-width: 0.7; stroke-linecap: round"/>
    <path d="M 216.551277 170.023321 
L 221.002295 170.457418 
L 217.984407 173.757774 
z
" clip-path="url(#pba09d33064)" style="fill: #808080; stroke: #808080; stroke-width: 0.7; stroke-linecap: round"/>
   </g>
   <g id="patch_4">
    <path d="M 83.82503 237.211874 
Q 83.947372 237.143662 83.386158 237.456566 
" clip-path="url(#pba09d33064)" style="fill: none; stroke: #808080; stroke-width: 0.7; stroke-linecap: round"/>
    <path d="M 78.918543 237.657619 
L 83.386158 237.456566 
L 80.866432 241.151289 
z
" clip-path="url(#pba09d33064)" style="fill: #808080; stroke: #808080; stroke-width: 0.7; stroke-linecap: round"/>
   </g>
   <g id="patch_5">
    <path d="M 140.522764 215.405895 
Q 140.659744 215.331951 140.108038 215.629772 
" clip-path="url(#pba09d33064)" style="fill: none; stroke: #808080; stroke-width: 0.7; stroke-linecap: round"/>
    <path d="M 135.638099 215.769928 
L 140.108038 215.629772 
L 137.538199 219.289817 
z
" clip-path="url(#pba09d33064)" style="fill: #808080; stroke: #808080; stroke-width: 0.7; stroke-linecap: round"/>
   </g>
   <g id="patch_6">
    <path d="M 107.201063 240.962737 
Q 107.243663 240.934184 106.636155 241.34136 
" clip-path="url(#pba09d33064)" style="fill: none; stroke: #808080; stroke-width: 0.7; stroke-linecap: round"/>
    <path d="M 102.199936 241.907016 
L 106.636155 241.34136 
L 104.426948 245.229728 
z
" clip-path="url(#pba09d33064)" style="fill: #808080; stroke: #808080; stroke-width: 0.7; stroke-linecap: round"/>
   </g>
   <g id="patch_7">
    <path d="M 137.75503 227.111764 
Q 137.813091 227.074556 137.212224 227.45962 
" clip-path="url(#pba09d33064)" style="fill: none; stroke: #808080; stroke-width: 0.7; stroke-linecap: round"/>
    <path d="M 132.765316 227.933966 
L 137.212224 227.45962 
L 134.923556 231.301755 
z
" clip-path="url(#pba09d33064)" style="fill: #808080; stroke: #808080; stroke-width: 0.7; stroke-linecap: round"/>
   </g>
   <g id="patch_8">
    <path d="M 228.8469 182.92206 
Q 228.993976 182.844672 228.448454 183.131714 
" clip-path="url(#pba09d33064)" style="fill: none; stroke: #808080; stroke-width: 0.7; stroke-linecap: round"/>
    <path d="M 223.977279 183.224386 
L 228.448454 183.131714 
L 225.839886 186.764258 
z
" clip-path="url(#pba09d33064)" style="fill: #808080; stroke: #808080; stroke-width: 0.7; stroke-linecap: round"/>
   </g>
   <g id="patch_9">
    <path d="M 183.278837 220.924973 
Q 183.283581 220.921494 182.657251 221.380883 
" clip-path="url(#pba09d33064)" style="fill: none; stroke: #808080; stroke-width: 0.7; stroke-linecap: round"/>
    <path d="M 178.248968 222.1339 
L 182.657251 221.380883 
L 180.614695 225.35932 
z
" clip-path="url(#pba09d33064)" style="fill: #808080; stroke: #808080; stroke-width: 0.7; stroke-linecap: round"/>
   </g>
   <g id="patch_10">
    <path d="M 248.591651 187.496727 
Q 248.657333 187.455053 248.06218 187.832663 
" clip-path="url(#pba09d33064)" style="fill: none; stroke: #808080; stroke-width: 0.7; stroke-linecap: round"/>
    <path d="M 243.613168 188.286861 
L 248.06218 187.832663 
L 245.756131 191.664391 
z
" clip-path="url(#pba09d33064)" style="fill: #808080; stroke: #808080; stroke-width: 0.7; stroke-linecap: round"/>
   </g>
   <g id="patch_11">
    <path d="M 246.597695 200.013102 
Q 247.395869 199.417602 247.566765 199.2901 
" clip-path="url(#pba09d33064)" style="fill: none; stroke: #808080; stroke-width: 0.7; stroke-linecap: round"/>
    <path d="M 243.164767 200.079032 
L 247.566765 199.2901 
L 245.556711 203.285058 
z
" clip-path="url(#pba09d33064)" style="fill: #808080; stroke: #808080; stroke-width: 0.7; stroke-linecap: round"/>
   </g>
   <g id="patch_12">
    <path d="M 259.114007 203.933372 
Q 259.842828 203.3322 259.967911 203.229025 
" clip-path="url(#pba09d33064)" style="fill: none; stroke: #808080; stroke-width: 0.7; stroke-linecap: round"/>
    <path d="M 255.609566 204.231436 
L 259.967911 203.229025 
L 258.154833 207.317148 
z
" clip-path="url(#pba09d33064)" style="fill: #808080; stroke: #808080; stroke-width: 0.7; stroke-linecap: round"/>
   </g>
   <g id="patch_13">
    <path d="M 308.186168 178.518879 
Q 308.983413 177.922991 309.153788 177.795647 
" clip-path="url(#pba09d33064)" style="fill: none; stroke: #808080; stroke-width: 0.7; stroke-linecap: round"/>
    <path d="M 304.752478 178.58841 
L 309.153788 177.795647 
L 307.147212 181.792353 
z
" clip-path="url(#pba09d33064)" style="fill: #808080; stroke: #808080; stroke-width: 0.7; stroke-linecap: round"/>
   </g>
   <g id="patch_14">
    <path d="M 319.98391 182.224758 
Q 320.717487 181.621925 320.846412 181.515978 
" clip-path="url(#pba09d33064)" style="fill: none; stroke: #808080; stroke-width: 0.7; stroke-linecap: round"/>
    <path d="M 316.486232 182.510376 
L 320.846412 181.515978 
L 319.025822 185.600761 
z
" clip-path="url(#pba09d33064)" style="fill: #808080; stroke: #808080; stroke-width: 0.7; stroke-linecap: round"/>
   </g>
   <g id="patch_15">
    <path d="M 332.546389 186.315616 
Q 333.218684 185.708918 333.309961 185.626546 
" clip-path="url(#pba09d33064)" style="fill: none; stroke: #808080; stroke-width: 0.7; stroke-linecap: round"/>
    <path d="M 329.000453 186.821594 
L 333.309961 185.626546 
L 331.680295 189.791182 
z
" clip-path="url(#pba09d33064)" style="fill: #808080; stroke: #808080; stroke-width: 0.7; stroke-linecap: round"/>
   </g>
   <g id="patch_16">
    <path d="M 345.847249 190.739671 
Q 346.461772 190.132014 346.519797 190.074637 
" clip-path="url(#pba09d33064)" style="fill: none; stroke: #808080; stroke-width: 0.7; stroke-linecap: round"/>
    <path d="M 342.269279 191.464995 
L 346.519797 190.074637 
L 345.081772 194.309266 
z
" clip-path="url(#pba09d33064)" style="fill: #808080; stroke: #808080; stroke-width: 0.7; stroke-linecap: round"/>
   </g>
   <g id="patch_17">
    <path d="M 317.87914 233.887183 
Q 318.33849 233.287307 318.322029 233.308804 
" clip-path="url(#pba09d33064)" style="fill: none; stroke: #808080; stroke-width: 0.7; stroke-linecap: round"/>
    <path d="M 314.302233 235.268713 
L 318.322029 233.308804 
L 317.478078 237.700586 
z
" clip-path="url(#pba09d33064)" style="fill: #808080; stroke: #808080; stroke-width: 0.7; stroke-linecap: round"/>
   </g>
   <g id="patch_18">
    <path d="M 359.844983 195.446531 
Q 360.405679 194.840785 360.434746 194.809382 
" clip-path="url(#pba09d33064)" style="fill: none; stroke: #808080; stroke-width: 0.7; stroke-linecap: round"/>
    <path d="M 356.249845 196.38628 
L 360.434746 194.809382 
L 359.185324 199.103441 
z
" clip-path="url(#pba09d33064)" style="fill: #808080; stroke: #808080; stroke-width: 0.7; stroke-linecap: round"/>
   </g>
   <g id="patch_19">
    <path d="M 360.069682 206.052558 
Q 360.581198 205.447942 360.587231 205.44081 
" clip-path="url(#pba09d33064)" style="fill: none; stroke: #808080; stroke-width: 0.7; stroke-linecap: round"/>
    <path d="M 356.476829 207.202795 
L 360.587231 205.44081 
L 359.530577 209.786323 
z
" clip-path="url(#pba09d33064)" style="fill: #808080; stroke: #808080; stroke-width: 0.7; stroke-linecap: round"/>
   </g>
   <g id="patch_20">
    <path d="M 361.155285 216.919095 
Q 361.619546 216.320592 361.604121 216.340477 
" clip-path="url(#pba09d33064)" style="fill: none; stroke: #808080; stroke-width: 0.7; stroke-linecap: round"/>
    <path d="M 357.572153 218.275219 
L 361.604121 216.340477 
L 360.732734 220.726897 
z
" clip-path="url(#pba09d33064)" style="fill: #808080; stroke: #808080; stroke-width: 0.7; stroke-linecap: round"/>
   </g>
   <g id="patch_21">
    <path d="M 385.447539 211.102018 
Q 385.902194 210.504132 385.883123 210.52921 
" clip-path="url(#pba09d33064)" style="fill: none; stroke: #808080; stroke-width: 0.7; stroke-linecap: round"/>
    <path d="M 381.869918 212.502579 
L 385.883123 210.52921 
L 385.053895 214.923796 
z
" clip-path="url(#pba09d33064)" style="fill: #808080; stroke: #808080; stroke-width: 0.7; stroke-linecap: round"/>
   </g>
   <g id="patch_22">
    <path d="M 397.562994 222.148594 
Q 397.969706 221.554457 397.934338 221.606124 
" clip-path="url(#pba09d33064)" style="fill: none; stroke: #808080; stroke-width: 0.7; stroke-linecap: round"/>
    <path d="M 394.024496 223.7771 
L 397.934338 221.606124 
L 397.325213 226.036584 
z
" clip-path="url(#pba09d33064)" style="fill: #808080; stroke: #808080; stroke-width: 0.7; stroke-linecap: round"/>
   </g>
   <g id="patch_23">
    <path d="M 400.357002 233.490604 
Q 400.730325 232.901384 400.684784 232.973262 
" clip-path="url(#pba09d33064)" style="fill: none; stroke: #808080; stroke-width: 0.7; stroke-linecap: round"/>
    <path d="M 396.854517 235.281737 
L 400.684784 232.973262 
L 400.233403 237.42256 
z
" clip-path="url(#pba09d33064)" style="fill: #808080; stroke: #808080; stroke-width: 0.7; stroke-linecap: round"/>
   </g>
   <g id="patch_24">
    <path d="M 163.388319 122.84078 
Q 163.799899 122.941996 163.451499 122.856318 
" clip-path="url(#pba09d33064)" style="fill: none; stroke: #808080; stroke-width: 0.7; stroke-linecap: round"/>
    <path d="M 160.044839 119.958963 
L 163.451499 122.856318 
L 159.089619 123.843234 
z
" clip-path="url(#pba09d33064)" style="fill: #808080; stroke: #808080; stroke-width: 0.7; stroke-linecap: round"/>
   </g>
   <g id="patch_25">
    <path d="M 56.11408 57.467047 
Q 56.602681 58.068483 56.597805 58.062481 
" clip-path="url(#pba09d33064)" style="fill: none; stroke: #808080; stroke-width: 0.7; stroke-linecap: round"/>
    <path d="M 55.62795 53.696776 
L 56.597805 58.062481 
L 52.523328 56.218942 
z
" clip-path="url(#pba09d33064)" style="fill: #808080; stroke: #808080; stroke-width: 0.7; stroke-linecap: round"/>
   </g>
   <g id="patch_26">
    <path d="M 111.442874 113.444169 
Q 111.605505 113.526826 111.070452 113.254886 
" clip-path="url(#pba09d33064)" style="fill: none; stroke: #808080; stroke-width: 0.7; stroke-linecap: round"/>
    <path d="M 108.410761 109.659606 
L 111.070452 113.254886 
L 106.598413 113.225471 
z
" clip-path="url(#pba09d33064)" style="fill: #808080; stroke: #808080; stroke-width: 0.7; stroke-linecap: round"/>
   </g>
   <g id="patch_27">
    <path d="M 52.641361 76.843332 
Q 53.213865 77.448441 53.248499 77.485046 
" clip-path="url(#pba09d33064)" style="fill: none; stroke: #808080; stroke-width: 0.7; stroke-linecap: round"/>
    <path d="M 51.952246 73.204891 
L 53.248499 77.485046 
L 49.046623 75.953955 
z
" clip-path="url(#pba09d33064)" style="fill: #808080; stroke: #808080; stroke-width: 0.7; stroke-linecap: round"/>
   </g>
   <g id="patch_28">
    <path d="M 107.066879 125.216861 
Q 107.317211 125.319676 106.843601 125.125158 
" clip-path="url(#pba09d33064)" style="fill: none; stroke: #808080; stroke-width: 0.7; stroke-linecap: round"/>
    <path d="M 103.90336 121.755443 
L 106.843601 125.125158 
L 102.383684 125.455522 
z
" clip-path="url(#pba09d33064)" style="fill: #808080; stroke: #808080; stroke-width: 0.7; stroke-linecap: round"/>
   </g>
   <g id="patch_29">
    <path d="M 80.225278 119.954801 
Q 80.352621 120.024945 79.794457 119.717492 
" clip-path="url(#pba09d33064)" style="fill: none; stroke: #808080; stroke-width: 0.7; stroke-linecap: round"/>
    <path d="M 77.255776 116.035767 
L 79.794457 119.717492 
L 75.325869 119.539402 
z
" clip-path="url(#pba09d33064)" style="fill: #808080; stroke: #808080; stroke-width: 0.7; stroke-linecap: round"/>
   </g>
   <g id="patch_30">
    <path d="M 68.201466 122.721207 
Q 68.314888 122.78527 67.74687 122.464445 
" clip-path="url(#pba09d33064)" style="fill: none; stroke: #808080; stroke-width: 0.7; stroke-linecap: round"/>
    <path d="M 65.247597 118.755856 
L 67.74687 122.464445 
L 63.280434 122.23871 
z
" clip-path="url(#pba09d33064)" style="fill: #808080; stroke: #808080; stroke-width: 0.7; stroke-linecap: round"/>
   </g>
   <g id="patch_31">
    <path d="M 54.762325 119.890767 
Q 54.824311 119.930255 54.226229 119.549254 
" clip-path="url(#pba09d33064)" style="fill: none; stroke: #808080; stroke-width: 0.7; stroke-linecap: round"/>
    <path d="M 51.927176 115.713324 
L 54.226229 119.549254 
L 49.778054 119.086938 
z
" clip-path="url(#pba09d33064)" style="fill: #808080; stroke: #808080; stroke-width: 0.7; stroke-linecap: round"/>
   </g>
   <g id="patch_32">
    <path d="M 185.330491 150.77505 
Q 185.854766 150.730192 185.599265 150.752053 
" clip-path="url(#pba09d33064)" style="fill: none; stroke: #808080; stroke-width: 0.7; stroke-linecap: round"/>
    <path d="M 181.443326 149.100336 
L 185.599265 150.752053 
L 181.784328 153.085774 
z
" clip-path="url(#pba09d33064)" style="fill: #808080; stroke: #808080; stroke-width: 0.7; stroke-linecap: round"/>
   </g>
   <g id="patch_33">
    <path d="M 72.594742 144.863326 
Q 72.918532 144.973139 72.501163 144.831589 
" clip-path="url(#pba09d33064)" style="fill: none; stroke: #808080; stroke-width: 0.7; stroke-linecap: round"/>
    <path d="M 69.355457 141.652827 
L 72.501163 144.831589 
L 68.07073 145.440897 
z
" clip-path="url(#pba09d33064)" style="fill: #808080; stroke: #808080; stroke-width: 0.7; stroke-linecap: round"/>
   </g>
   <g id="patch_34">
    <path d="M 114.071894 161.151146 
Q 114.610566 161.178041 114.367587 161.165909 
" clip-path="url(#pba09d33064)" style="fill: none; stroke: #808080; stroke-width: 0.7; stroke-linecap: round"/>
    <path d="M 110.472298 158.968929 
L 114.367587 161.165909 
L 110.272829 162.963952 
z
" clip-path="url(#pba09d33064)" style="fill: #808080; stroke: #808080; stroke-width: 0.7; stroke-linecap: round"/>
   </g>
   <g id="patch_35">
    <path d="M 67.085854 163.537183 
Q 67.555288 163.62237 67.254676 163.567819 
" clip-path="url(#pba09d33064)" style="fill: none; stroke: #808080; stroke-width: 0.7; stroke-linecap: round"/>
    <path d="M 63.676058 160.88575 
L 67.254676 163.567819 
L 62.96185 164.821472 
z
" clip-path="url(#pba09d33064)" style="fill: #808080; stroke: #808080; stroke-width: 0.7; stroke-linecap: round"/>
   </g>
   <g id="patch_36">
    <path d="M 118.194195 170.935045 
Q 118.732942 170.905976 118.490201 170.919074 
" clip-path="url(#pba09d33064)" style="fill: none; stroke: #808080; stroke-width: 0.7; stroke-linecap: round"/>
    <path d="M 114.388257 169.137486 
L 118.490201 170.919074 
L 114.603765 173.131676 
z
" clip-path="url(#pba09d33064)" style="fill: #808080; stroke: #808080; stroke-width: 0.7; stroke-linecap: round"/>
   </g>
   <g id="patch_37">
    <path d="M 88.88066 179.30627 
Q 89.420434 179.286758 89.178094 179.295518 
" clip-path="url(#pba09d33064)" style="fill: none; stroke: #808080; stroke-width: 0.7; stroke-linecap: round"/>
    <path d="M 85.108454 177.441325 
L 89.178094 179.295518 
L 85.252956 181.438714 
z
" clip-path="url(#pba09d33064)" style="fill: #808080; stroke: #808080; stroke-width: 0.7; stroke-linecap: round"/>
   </g>
   <g id="patch_38">
    <path d="M 78.902246 184.049786 
Q 79.440959 184.024155 79.197932 184.035718 
" clip-path="url(#pba09d33064)" style="fill: none; stroke: #808080; stroke-width: 0.7; stroke-linecap: round"/>
    <path d="M 75.107406 182.228069 
L 79.197932 184.035718 
L 75.297497 186.223549 
z
" clip-path="url(#pba09d33064)" style="fill: #808080; stroke: #808080; stroke-width: 0.7; stroke-linecap: round"/>
   </g>
   <g id="patch_39">
    <path d="M 68.76235 189.388268 
Q 69.291751 189.354414 69.040124 189.370505 
" clip-path="url(#pba09d33064)" style="fill: none; stroke: #808080; stroke-width: 0.7; stroke-linecap: round"/>
    <path d="M 64.920643 187.629851 
L 69.040124 189.370505 
L 65.175912 191.621697 
z
" clip-path="url(#pba09d33064)" style="fill: #808080; stroke: #808080; stroke-width: 0.7; stroke-linecap: round"/>
   </g>
   <g id="patch_40">
    <path d="M 154.531822 181.113005 
Q 154.926666 181.008035 154.565159 181.104142 
" clip-path="url(#pba09d33064)" style="fill: none; stroke: #808080; stroke-width: 0.7; stroke-linecap: round"/>
    <path d="M 150.185583 180.198983 
L 154.565159 181.104142 
L 151.213286 184.064708 
z
" clip-path="url(#pba09d33064)" style="fill: #808080; stroke: #808080; stroke-width: 0.7; stroke-linecap: round"/>
   </g>
   <g id="patch_41">
    <path d="M 104.614654 200.299802 
Q 104.996673 200.192402 104.625277 200.296815 
" clip-path="url(#pba09d33064)" style="fill: none; stroke: #808080; stroke-width: 0.7; stroke-linecap: round"/>
    <path d="M 100.233271 199.454034 
L 104.625277 200.296815 
L 101.315848 203.304751 
z
" clip-path="url(#pba09d33064)" style="fill: #808080; stroke: #808080; stroke-width: 0.7; stroke-linecap: round"/>
   </g>
   <g id="patch_42">
    <path d="M 83.622594 214.864801 
Q 83.936056 214.75575 83.510347 214.903851 
" clip-path="url(#pba09d33064)" style="fill: none; stroke: #808080; stroke-width: 0.7; stroke-linecap: round"/>
    <path d="M 79.075284 214.329204 
L 83.510347 214.903851 
L 80.389592 218.107113 
z
" clip-path="url(#pba09d33064)" style="fill: #808080; stroke: #808080; stroke-width: 0.7; stroke-linecap: round"/>
   </g>
   <g id="patch_43">
    <path d="M 403.98219 200.944954 
Q 404.451201 200.344485 404.438461 200.360796 
" clip-path="url(#pba09d33064)" style="fill: none; stroke: #808080; stroke-width: 0.7; stroke-linecap: round"/>
    <path d="M 400.400047 202.282048 
L 404.438461 200.360796 
L 403.552415 204.744278 
z
" clip-path="url(#pba09d33064)" style="fill: #808080; stroke: #808080; stroke-width: 0.7; stroke-linecap: round"/>
   </g>
   <g id="patch_44">
    <path d="M 364.711307 132.361006 
Q 364.884065 132.274685 364.356729 132.538174 
" clip-path="url(#pba09d33064)" style="fill: none; stroke: #808080; stroke-width: 0.7; stroke-linecap: round"/>
    <path d="M 359.884593 132.536958 
L 364.356729 132.538174 
L 361.672474 136.115153 
z
" clip-path="url(#pba09d33064)" style="fill: #808080; stroke: #808080; stroke-width: 0.7; stroke-linecap: round"/>
   </g>
   <g id="patch_45">
    <path d="M 228.095104 89.417612 
Q 228.408554 89.526368 227.982621 89.378584 
" clip-path="url(#pba09d33064)" style="fill: none; stroke: #808080; stroke-width: 0.7; stroke-linecap: round"/>
    <path d="M 224.85921 86.177911 
L 227.982621 89.378584 
L 223.548036 89.956909 
z
" clip-path="url(#pba09d33064)" style="fill: #808080; stroke: #808080; stroke-width: 0.7; stroke-linecap: round"/>
   </g>
   <g id="patch_46">
    <path d="M 266.88689 75.935663 
Q 267.203186 76.044968 266.779781 75.898649 
" clip-path="url(#pba09d33064)" style="fill: none; stroke: #808080; stroke-width: 0.7; stroke-linecap: round"/>
    <path d="M 263.652407 72.70185 
L 266.779781 75.898649 
L 262.345917 76.48247 
z
" clip-path="url(#pba09d33064)" style="fill: #808080; stroke: #808080; stroke-width: 0.7; stroke-linecap: round"/>
   </g>
   <g id="patch_47">
    <path d="M 288.005095 63.324114 
Q 288.273152 63.429947 287.813266 63.248376 
" clip-path="url(#pba09d33064)" style="fill: none; stroke: #808080; stroke-width: 0.7; stroke-linecap: round"/>
    <path d="M 284.827208 59.919193 
L 287.813266 63.248376 
L 283.358285 63.639713 
z
" clip-path="url(#pba09d33064)" style="fill: #808080; stroke: #808080; stroke-width: 0.7; stroke-linecap: round"/>
   </g>
   <g id="patch_48">
    <path d="M 317.037823 58.190251 
Q 317.351332 58.298966 316.925412 58.151271 
" clip-path="url(#pba09d33064)" style="fill: none; stroke: #808080; stroke-width: 0.7; stroke-linecap: round"/>
    <path d="M 313.801442 54.951144 
L 316.925412 58.151271 
L 312.490929 58.730371 
z
" clip-path="url(#pba09d33064)" style="fill: #808080; stroke: #808080; stroke-width: 0.7; stroke-linecap: round"/>
   </g>
   <g id="patch_49">
    <path d="M 328.514725 49.119643 
Q 328.782868 49.22544 328.323004 49.043999 
" clip-path="url(#pba09d33064)" style="fill: none; stroke: #808080; stroke-width: 0.7; stroke-linecap: round"/>
    <path d="M 325.336186 45.715498 
L 328.323004 49.043999 
L 323.868112 49.436353 
z
" clip-path="url(#pba09d33064)" style="fill: #808080; stroke: #808080; stroke-width: 0.7; stroke-linecap: round"/>
   </g>
   <g id="patch_50">
    <path d="M 347.990744 45.198174 
Q 348.283164 45.30545 347.840842 45.143181 
" clip-path="url(#pba09d33064)" style="fill: none; stroke: #808080; stroke-width: 0.7; stroke-linecap: round"/>
    <path d="M 344.774387 41.8879 
L 347.840842 45.143181 
L 343.396744 45.643176 
z
" clip-path="url(#pba09d33064)" style="fill: #808080; stroke: #808080; stroke-width: 0.7; stroke-linecap: round"/>
   </g>
   <g id="patch_51">
    <path d="M 367.109864 42.461723 
Q 367.444534 42.571862 367.035803 42.43735 
" clip-path="url(#pba09d33064)" style="fill: none; stroke: #808080; stroke-width: 0.7; stroke-linecap: round"/>
    <path d="M 363.861472 39.287171 
L 367.035803 42.43735 
L 362.611061 43.086707 
z
" clip-path="url(#pba09d33064)" style="fill: #808080; stroke: #808080; stroke-width: 0.7; stroke-linecap: round"/>
   </g>
   <g id="patch_52">
    <path d="M 377.121484 37.540721 
Q 377.438457 37.649263 377.015014 37.504262 
" clip-path="url(#pba09d33064)" style="fill: none; stroke: #808080; stroke-width: 0.7; stroke-linecap: round"/>
    <path d="M 373.87867 34.316262 
L 377.015014 37.504262 
L 372.582807 38.100538 
z
" clip-path="url(#pba09d33064)" style="fill: #808080; stroke: #808080; stroke-width: 0.7; stroke-linecap: round"/>
   </g>
   <g id="patch_53">
    <path d="M 394.174723 32.741133 
Q 394.502821 32.849756 394.087953 32.712407 
" clip-path="url(#pba09d33064)" style="fill: none; stroke: #808080; stroke-width: 0.7; stroke-linecap: round"/>
    <path d="M 390.919228 29.556589 
L 394.087953 32.712407 
L 389.662064 33.353896 
z
" clip-path="url(#pba09d33064)" style="fill: #808080; stroke: #808080; stroke-width: 0.7; stroke-linecap: round"/>
   </g>
   <g id="patch_54">
    <path d="M 383.67439 32.798907 
Q 383.969509 32.906769 383.529561 32.745974 
" clip-path="url(#pba09d33064)" style="fill: none; stroke: #808080; stroke-width: 0.7; stroke-linecap: round"/>
    <path d="M 380.459178 29.494397 
L 383.529561 32.745974 
L 379.08607 33.251334 
z
" clip-path="url(#pba09d33064)" style="fill: #808080; stroke: #808080; stroke-width: 0.7; stroke-linecap: round"/>
   </g>
   <g id="patch_55">
    <path d="M 317.35972 37.425441 
Q 317.4918 37.497213 316.936224 37.195317 
" clip-path="url(#pba09d33064)" style="fill: none; stroke: #808080; stroke-width: 0.7; stroke-linecap: round"/>
    <path d="M 314.376509 33.528185 
L 316.936224 37.195317 
L 312.466689 37.04281 
z
" clip-path="url(#pba09d33064)" style="fill: #808080; stroke: #808080; stroke-width: 0.7; stroke-linecap: round"/>
   </g>
   <g id="patch_56">
    <path d="M 295.944037 37.740919 
Q 296.022355 37.788874 295.433231 37.428145 
" clip-path="url(#pba09d33064)" style="fill: none; stroke: #808080; stroke-width: 0.7; stroke-linecap: round"/>
    <path d="M 293.066329 33.633705 
L 295.433231 37.428145 
L 290.977538 37.045003 
z
" clip-path="url(#pba09d33064)" style="fill: #808080; stroke: #808080; stroke-width: 0.7; stroke-linecap: round"/>
   </g>
   <g id="patch_57">
    <path d="M 270.480077 42.760004 
Q 270.530509 42.792782 269.924741 42.399061 
" clip-path="url(#pba09d33064)" style="fill: none; stroke: #808080; stroke-width: 0.7; stroke-linecap: round"/>
    <path d="M 267.660819 38.542293 
L 269.924741 42.399061 
L 265.480974 41.896137 
z
" clip-path="url(#pba09d33064)" style="fill: #808080; stroke: #808080; stroke-width: 0.7; stroke-linecap: round"/>
   </g>
   <g id="patch_58">
    <path d="M 231.861514 38.457241 
Q 232.595262 39.059805 232.724193 39.165684 
" clip-path="url(#pba09d33064)" style="fill: none; stroke: #808080; stroke-width: 0.7; stroke-linecap: round"/>
    <path d="M 230.90224 35.081509 
L 232.724193 39.165684 
L 228.363681 38.172741 
z
" clip-path="url(#pba09d33064)" style="fill: #808080; stroke: #808080; stroke-width: 0.7; stroke-linecap: round"/>
   </g>
   <g id="patch_59">
    <path d="M 219.636018 63.138145 
Q 219.705988 63.181934 219.112539 62.810542 
" clip-path="url(#pba09d33064)" style="fill: none; stroke: #808080; stroke-width: 0.7; stroke-linecap: round"/>
    <path d="M 216.78279 58.993178 
L 219.112539 62.810542 
L 214.660798 62.383923 
z
" clip-path="url(#pba09d33064)" style="fill: #808080; stroke: #808080; stroke-width: 0.7; stroke-linecap: round"/>
   </g>
   <g id="patch_60">
    <path d="M 182.342469 79.02423 
Q 182.429319 79.07627 181.844837 78.726048 
" clip-path="url(#pba09d33064)" style="fill: none; stroke: #808080; stroke-width: 0.7; stroke-linecap: round"/>
    <path d="M 179.441639 74.954492 
L 181.844837 78.726048 
L 177.385673 78.385672 
z
" clip-path="url(#pba09d33064)" style="fill: #808080; stroke: #808080; stroke-width: 0.7; stroke-linecap: round"/>
   </g>
   <g id="patch_61">
    <path d="M 121.064919 33.666367 
Q 121.550525 34.26867 121.544912 34.261708 
" clip-path="url(#pba09d33064)" style="fill: none; stroke: #808080; stroke-width: 0.7; stroke-linecap: round"/>
    <path d="M 120.591263 29.892434 
L 121.544912 34.261708 
L 117.477304 32.403063 
z
" clip-path="url(#pba09d33064)" style="fill: #808080; stroke: #808080; stroke-width: 0.7; stroke-linecap: round"/>
   </g>
   <g id="patch_62">
    <path d="M 110.565942 33.685355 
Q 111.036383 34.285397 111.02395 34.269539 
" clip-path="url(#pba09d33064)" style="fill: none; stroke: #808080; stroke-width: 0.7; stroke-linecap: round"/>
    <path d="M 110.129914 29.887679 
L 111.02395 34.269539 
L 106.98204 32.355652 
z
" clip-path="url(#pba09d33064)" style="fill: #808080; stroke: #808080; stroke-width: 0.7; stroke-linecap: round"/>
   </g>
   <g id="patch_63">
    <path d="M 100.067687 33.703905 
Q 100.523575 34.301425 100.504741 34.276739 
" clip-path="url(#pba09d33064)" style="fill: none; stroke: #808080; stroke-width: 0.7; stroke-linecap: round"/>
    <path d="M 99.668478 29.883487 
L 100.504741 34.276739 
L 96.488381 32.309799 
z
" clip-path="url(#pba09d33064)" style="fill: #808080; stroke: #808080; stroke-width: 0.7; stroke-linecap: round"/>
   </g>
   <g id="patch_64">
    <path d="M 89.56607 33.716597 
Q 90.010022 34.314092 89.98721 34.28339 
" clip-path="url(#pba09d33064)" style="fill: none; stroke: #808080; stroke-width: 0.7; stroke-linecap: round"/>
    <path d="M 89.206931 29.87985 
L 89.98721 34.28339 
L 85.99621 32.265489 
z
" clip-path="url(#pba09d33064)" style="fill: #808080; stroke: #808080; stroke-width: 0.7; stroke-linecap: round"/>
   </g>
   <g id="patch_65">
    <path d="M 130.051596 86.311072 
Q 130.069526 86.323719 129.447928 85.885251 
" clip-path="url(#pba09d33064)" style="fill: none; stroke: #808080; stroke-width: 0.7; stroke-linecap: round"/>
    <path d="M 127.332128 81.945277 
L 129.447928 85.885251 
L 125.026469 85.213907 
z
" clip-path="url(#pba09d33064)" style="fill: #808080; stroke: #808080; stroke-width: 0.7; stroke-linecap: round"/>
   </g>
   <g id="patch_66">
    <path d="M 81.159722 50.455946 
Q 81.65608 51.058421 81.654798 51.056865 
" clip-path="url(#pba09d33064)" style="fill: none; stroke: #808080; stroke-width: 0.7; stroke-linecap: round"/>
    <path d="M 80.654958 46.697929 
L 81.654798 51.056865 
L 77.567745 49.241376 
z
" clip-path="url(#pba09d33064)" style="fill: #808080; stroke: #808080; stroke-width: 0.7; stroke-linecap: round"/>
   </g>
   <g id="patch_67">
    <path d="M 89.552331 72.090361 
Q 90.171627 72.696146 90.231456 72.75467 
" clip-path="url(#pba09d33064)" style="fill: none; stroke: #808080; stroke-width: 0.7; stroke-linecap: round"/>
    <path d="M 88.77054 68.527883 
L 90.231456 72.75467 
L 85.973477 71.387331 
z
" clip-path="url(#pba09d33064)" style="fill: #808080; stroke: #808080; stroke-width: 0.7; stroke-linecap: round"/>
   </g>
   <g id="patch_68">
    <path d="M 282.406192 34.949179 
Q 282.437938 34.970914 281.823911 34.550518 
" clip-path="url(#pba09d33064)" style="fill: none; stroke: #808080; stroke-width: 0.7; stroke-linecap: round"/>
    <path d="M 279.65323 30.640513 
L 281.823911 34.550518 
L 277.393498 33.941061 
z
" clip-path="url(#pba09d33064)" style="fill: #808080; stroke: #808080; stroke-width: 0.7; stroke-linecap: round"/>
   </g>
   <g id="patch_69">
    <path d="M 217.123968 73.359733 
Q 217.261255 73.433388 216.708901 73.137049 
" clip-path="url(#pba09d33064)" style="fill: none; stroke: #808080; stroke-width: 0.7; stroke-linecap: round"/>
    <path d="M 214.129661 69.483623 
L 216.708901 73.137049 
L 212.238617 73.008385 
z
" clip-path="url(#pba09d33064)" style="fill: #808080; stroke: #808080; stroke-width: 0.7; stroke-linecap: round"/>
   </g>
   <g id="patch_70">
    <path d="M 169.89868 221.912802 
Q 169.92008 221.897857 169.299838 222.331014 
" clip-path="url(#pba09d33064)" style="fill: none; stroke: #808080; stroke-width: 0.7; stroke-linecap: round"/>
    <path d="M 164.875269 222.981546 
L 169.299838 222.331014 
L 167.165523 226.260988 
z
" clip-path="url(#pba09d33064)" style="fill: #808080; stroke: #808080; stroke-width: 0.7; stroke-linecap: round"/>
   </g>
   <g id="patch_71">
    <path d="M 214.481804 35.992256 
Q 215.153549 36.599108 215.244556 36.681324 
" clip-path="url(#pba09d33064)" style="fill: none; stroke: #808080; stroke-width: 0.7; stroke-linecap: round"/>
    <path d="M 213.617113 32.515819 
L 215.244556 36.681324 
L 210.935686 35.483975 
z
" clip-path="url(#pba09d33064)" style="fill: #808080; stroke: #808080; stroke-width: 0.7; stroke-linecap: round"/>
   </g>
   <g id="patch_72">
    <path d="M 100.417523 115.943572 
Q 100.565099 116.020521 100.018722 115.735629 
" clip-path="url(#pba09d33064)" style="fill: none; stroke: #808080; stroke-width: 0.7; stroke-linecap: round"/>
    <path d="M 97.396609 112.11285 
L 100.018722 115.735629 
L 95.547231 115.659652 
z
" clip-path="url(#pba09d33064)" style="fill: #808080; stroke: #808080; stroke-width: 0.7; stroke-linecap: round"/>
   </g>
   <g id="patch_73">
    <path d="M 129.266879 216.508333 
Q 129.424262 216.427587 128.885319 216.704095 
" clip-path="url(#pba09d33064)" style="fill: none; stroke: #808080; stroke-width: 0.7; stroke-linecap: round"/>
    <path d="M 124.413424 216.750556 
L 128.885319 216.704095 
L 126.239351 220.309487 
z
" clip-path="url(#pba09d33064)" style="fill: #808080; stroke: #808080; stroke-width: 0.7; stroke-linecap: round"/>
   </g>
   <g id="patch_74">
    <path d="M 303.287438 77.677073 
Q 303.734061 77.770206 303.414541 77.703577 
" clip-path="url(#pba09d33064)" style="fill: none; stroke: #808080; stroke-width: 0.7; stroke-linecap: round"/>
    <path d="M 299.907043 74.929147 
L 303.414541 77.703577 
L 299.090498 78.844917 
z
" clip-path="url(#pba09d33064)" style="fill: #808080; stroke: #808080; stroke-width: 0.7; stroke-linecap: round"/>
   </g>
   <g id="patch_75">
    <path d="M 180.675666 86.90978 
Q 180.818276 86.985273 180.2692 86.694611 
" clip-path="url(#pba09d33064)" style="fill: none; stroke: #808080; stroke-width: 0.7; stroke-linecap: round"/>
    <path d="M 177.669697 83.055575 
L 180.2692 86.694611 
L 175.79827 86.590792 
z
" clip-path="url(#pba09d33064)" style="fill: #808080; stroke: #808080; stroke-width: 0.7; stroke-linecap: round"/>
   </g>
   <g id="patch_76">
    <path d="M 197.972606 106.120483 
Q 198.34325 106.227595 197.962036 106.117429 
" clip-path="url(#pba09d33064)" style="fill: none; stroke: #808080; stroke-width: 0.7; stroke-linecap: round"/>
    <path d="M 194.674539 103.085537 
L 197.962036 106.117429 
L 193.564025 106.928291 
z
" clip-path="url(#pba09d33064)" style="fill: #808080; stroke: #808080; stroke-width: 0.7; stroke-linecap: round"/>
   </g>
   <g id="patch_77">
    <path d="M 128.151788 94.6272 
Q 128.217583 94.668787 127.621829 94.292219 
" clip-path="url(#pba09d33064)" style="fill: none; stroke: #808080; stroke-width: 0.7; stroke-linecap: round"/>
    <path d="M 125.309249 90.464429 
L 127.621829 94.292219 
L 123.172049 93.845609 
z
" clip-path="url(#pba09d33064)" style="fill: #808080; stroke: #808080; stroke-width: 0.7; stroke-linecap: round"/>
   </g>
   <g id="patch_78">
    <path d="M 159.494088 82.062006 
Q 159.551836 82.099366 158.952482 81.711618 
" clip-path="url(#pba09d33064)" style="fill: none; stroke: #808080; stroke-width: 0.7; stroke-linecap: round"/>
    <path d="M 156.680391 77.859657 
L 158.952482 81.711618 
L 154.507659 81.218115 
z
" clip-path="url(#pba09d33064)" style="fill: #808080; stroke: #808080; stroke-width: 0.7; stroke-linecap: round"/>
   </g>
   <g id="patch_79">
    <path d="M 125.932066 72.582802 
Q 126.640281 73.185423 126.75245 73.280868 
" clip-path="url(#pba09d33064)" style="fill: none; stroke: #808080; stroke-width: 0.7; stroke-linecap: round"/>
    <path d="M 125.002141 69.16548 
L 126.75245 73.280868 
L 122.409954 72.211882 
z
" clip-path="url(#pba09d33064)" style="fill: #808080; stroke: #808080; stroke-width: 0.7; stroke-linecap: round"/>
   </g>
   <g id="patch_80">
    <path d="M 152.286043 148.001034 
Q 152.825228 148.026574 152.582666 148.015084 
" clip-path="url(#pba09d33064)" style="fill: none; stroke: #808080; stroke-width: 0.7; stroke-linecap: round"/>
    <path d="M 148.681775 145.828065 
L 152.582666 148.015084 
L 148.492516 149.823585 
z
" clip-path="url(#pba09d33064)" style="fill: #808080; stroke: #808080; stroke-width: 0.7; stroke-linecap: round"/>
   </g>
   <g id="patch_81">
    <path d="M 285.71001 137.491667 
Q 286.080928 137.384584 285.699929 137.494577 
" clip-path="url(#pba09d33064)" style="fill: none; stroke: #808080; stroke-width: 0.7; stroke-linecap: round"/>
    <path d="M 281.302137 136.682525 
L 285.699929 137.494577 
L 282.411612 140.525579 
z
" clip-path="url(#pba09d33064)" style="fill: #808080; stroke: #808080; stroke-width: 0.7; stroke-linecap: round"/>
   </g>
   <g id="patch_82">
    <path d="M 46.45625 246.7 
L 46.45625 25.8 
" style="fill: none; stroke: #000000; stroke-width: 0.8; stroke-linejoin: miter; stroke-linecap: square"/>
   </g>
   <g id="patch_83">
    <path d="M 413.23125 246.7 
L 413.23125 25.8 
" style="fill: none; stroke: #000000; stroke-width: 0.8; stroke-linejoin: miter; stroke-linecap: square"/>
   </g>
   <g id="patch_84">
    <path d="M 46.45625 246.7 
L 413.23125 246.7 
" style="fill: none; stroke: #000000; stroke-width: 0.8; stroke-linejoin: miter; stroke-linecap: square"/>
   </g>
   <g id="patch_85">
    <path d="M 46.45625 25.8 
L 413.23125 25.8 
" style="fill: none; stroke: #000000; stroke-width: 0.8; stroke-linejoin: miter; stroke-linecap: square"/>
   </g>
   <g id="text_18">
    <!-- Direction field of y' = x - y -->
    <g transform="translate(151.167813 19.8) scale(0.12 -0.12)">
     <defs>
      <path id="DejaVuSans-44" d="M 1259 4147 
L 1259 519 
L 2022 519 
Q 2988 519 3436 956 
Q 3884 1394 3884 2338 
Q 3884 3275 3436 3711 
Q 2988 4147 2022 4147 
L 1259 4147 
z
M 628 4666 
L 1925 4666 
Q 3281 4666 3915 4102 
Q 4550 3538 4550 2338 
Q 4550 1131 3912 565 
Q 3275 0 1925 0 
L 628 0 
L 628 4666 
z
" transform="scale(0.015625)"/>
      <path id="DejaVuSans-69" d="M 603 3500 
L 1178 3500 
L 1178 0 
L 603 0 
L 603 3500 
z
M 603 4863 
L 1178 4863 
L 1178 4134 
L 603 4134 
L 603 4863 
z
" transform="scale(0.015625)"/>
      <path id="DejaVuSans-72" d="M 2631 2963 
Q 2534 3019 2420 3045 
Q 2306 3072 2169 3072 
Q 1681 3072 1420 2755 
Q 1159 2438 1159 1844 
L 1159 0 
L 581 0 
L 581 3500 
L 1159 3500 
L 1159 2956 
Q 1341 3275 1631 3429 
Q 1922 3584 2338 3584 
Q 2397 3584 2469 3576 
Q 2541 3569 2628 3553 
L 2631 2963 
z
" transform="scale(0.015625)"/>
      <path id="DejaVuSans-65" d="M 3597 1894 
L 3597 1613 
L 953 1613 
Q 991 1019 1311 708 
Q 1631 397 2203 397 
Q 2534 397 2845 478 
Q 3156 559 3463 722 
L 3463 178 
Q 3153 47 2828 -22 
Q 2503 -91 2169 -91 
Q 1331 -91 842 396 
Q 353 884 353 1716 
Q 353 2575 817 3079 
Q 1281 3584 2069 3584 
Q 2775 3584 3186 3129 
Q 3597 2675 3597 1894 
z
M 3022 2063 
Q 3016 2534 2758 2815 
Q 2500 3097 2075 3097 
Q 1594 3097 1305 2825 
Q 1016 2553 972 2059 
L 3022 2063 
z
" transform="scale(0.015625)"/>
      <path id="DejaVuSans-63" d="M 3122 3366 
L 3122 2828 
Q 2878 2963 2633 3030 
Q 2388 3097 2138 3097 
Q 1578 3097 1268 2742 
Q 959 2388 959 1747 
Q 959 1106 1268 751 
Q 1578 397 2138 397 
Q 2388 397 2633 464 
Q 2878 531 3122 666 
L 3122 134 
Q 2881 22 2623 -34 
Q 2366 -91 2075 -91 
Q 1284 -91 818 406 
Q 353 903 353 1747 
Q 353 2603 823 3093 
Q 1294 3584 2113 3584 
Q 2378 3584 2631 3529 
Q 2884 3475 3122 3366 
z
" transform="scale(0.015625)"/>
      <path id="DejaVuSans-74" d="M 1172 4494 
L 1172 3500 
L 2356 3500 
L 2356 3053 
L 1172 3053 
L 1172 1153 
Q 1172 725 1289 603 
Q 1406 481 1766 481 
L 2356 481 
L 2356 0 
L 1766 0 
Q 1100 0 847 248 
Q 594 497 594 1153 
L 594 3053 
L 172 3053 
L 172 3500 
L 594 3500 
L 594 4494 
L 1172 4494 
z
" transform="scale(0.015625)"/>
      <path id="DejaVuSans-6f" d="M 1959 3097 
Q 1497 3097 1228 2736 
Q 959 2375 959 1747 
Q 959 1119 1226 758 
Q 1494 397 1959 397 
Q 2419 397 2687 759 
Q 2956 1122 2956 1747 
Q 2956 2369 2687 2733 
Q 2419 3097 1959 3097 
z
M 1959 3584 
Q 2709 3584 3137 3096 
Q 3566 2609 3566 1747 
Q 3566 888 3137 398 
Q 2709 -91 1959 -91 
Q 1206 -91 779 398 
Q 353 888 353 1747 
Q 353 2609 779 3096 
Q 1206 3584 1959 3584 
z
" transform="scale(0.015625)"/>
      <path id="DejaVuSans-6e" d="M 3513 2113 
L 3513 0 
L 2938 0 
L 2938 2094 
Q 2938 2591 2744 2837 
Q 2550 3084 2163 3084 
Q 1697 3084 1428 2787 
Q 1159 2491 1159 1978 
L 1159 0 
L 581 0 
L 581 3500 
L 1159 3500 
L 1159 2956 
Q 1366 3272 1645 3428 
Q 1925 3584 2291 3584 
Q 2894 3584 3203 3211 
Q 3513 2838 3513 2113 
z
" transform="scale(0.015625)"/>
      <path id="DejaVuSans-20" transform="scale(0.015625)"/>
      <path id="DejaVuSans-66" d="M 2375 4863 
L 2375 4384 
L 1825 4384 
Q 1516 4384 1395 4259 
Q 1275 4134 1275 3809 
L 1275 3500 
L 2222 3500 
L 2222 3053 
L 1275 3053 
L 1275 0 
L 697 0 
L 697 3053 
L 147 3053 
L 147 3500 
L 697 3500 
L 697 3744 
Q 697 4328 969 4595 
Q 1241 4863 1831 4863 
L 2375 4863 
z
" transform="scale(0.015625)"/>
      <path id="DejaVuSans-6c" d="M 603 4863 
L 1178 4863 
L 1178 0 
L 603 0 
L 603 4863 
z
" transform="scale(0.015625)"/>
      <path id="DejaVuSans-64" d="M 2906 2969 
L 2906 4863 
L 3481 4863 
L 3481 0 
L 2906 0 
L 2906 525 
Q 2725 213 2448 61 
Q 2172 -91 1784 -91 
Q 1150 -91 751 415 
Q 353 922 353 1747 
Q 353 2572 751 3078 
Q 1150 3584 1784 3584 
Q 2172 3584 2448 3432 
Q 2725 3281 2906 2969 
z
M 947 1747 
Q 947 1113 1208 752 
Q 1469 391 1925 391 
Q 2381 391 2643 752 
Q 2906 1113 2906 1747 
Q 2906 2381 2643 2742 
Q 2381 3103 1925 3103 
Q 1469 3103 1208 2742 
Q 947 2381 947 1747 
z
" transform="scale(0.015625)"/>
      <path id="DejaVuSans-27" d="M 1147 4666 
L 1147 2931 
L 616 2931 
L 616 4666 
L 1147 4666 
z
" transform="scale(0.015625)"/>
      <path id="DejaVuSans-3d" d="M 678 2906 
L 4684 2906 
L 4684 2381 
L 678 2381 
L 678 2906 
z
M 678 1631 
L 4684 1631 
L 4684 1100 
L 678 1100 
L 678 1631 
z
" transform="scale(0.015625)"/>
      <path id="DejaVuSans-2d" d="M 313 2009 
L 1997 2009 
L 1997 1497 
L 313 1497 
L 313 2009 
z
" transform="scale(0.015625)"/>
     </defs>
     <use xlink:href="#DejaVuSans-44"/>
     <use xlink:href="#DejaVuSans-69" transform="translate(77.001953 0)"/>
     <use xlink:href="#DejaVuSans-72" transform="translate(104.785156 0)"/>
     <use xlink:href="#DejaVuSans-65" transform="translate(143.648438 0)"/>
     <use xlink:href="#DejaVuSans-63" transform="translate(205.171875 0)"/>
     <use xlink:href="#DejaVuSans-74" transform="translate(260.152344 0)"/>
     <use xlink:href="#DejaVuSans-69" transform="translate(299.361328 0)"/>
     <use xlink:href="#DejaVuSans-6f" transform="translate(327.144531 0)"/>
     <use xlink:href="#DejaVuSans-6e" transform="translate(388.326172 0)"/>
     <use xlink:href="#DejaVuSans-20" transform="translate(451.705078 0)"/>
     <use xlink:href="#DejaVuSans-66" transform="translate(483.492188 0)"/>
     <use xlink:href="#DejaVuSans-69" transform="translate(518.697266 0)"/>
     <use xlink:href="#DejaVuSans-65" transform="translate(546.480469 0)"/>
     <use xlink:href="#DejaVuSans-6c" transform="translate(608.003906 0)"/>
     <use xlink:href="#DejaVuSans-64" transform="translate(635.787109 0)"/>
     <use xlink:href="#DejaVuSans-20" transform="translate(699.263672 0)"/>
     <use xlink:href="#DejaVuSans-6f" transform="translate(731.050781 0)"/>
     <use xlink:href="#DejaVuSans-66" transform="translate(792.232422 0)"/>
     <use xlink:href="#DejaVuSans-20" transform="translate(827.4375 0)"/>
     <use xlink:href="#DejaVuSans-79" transform="translate(859.224609 0)"/>
     <use xlink:href="#DejaVuSans-27" transform="translate(918.404297 0)"/>
     <use xlink:href="#DejaVuSans-20" transform="translate(945.894531 0)"/>
     <use xlink:href="#DejaVuSans-3d" transform="translate(977.681641 0)"/>
     <use xlink:href="#DejaVuSans-20" transform="translate(1061.470703 0)"/>
     <use xlink:href="#DejaVuSans-78" transform="translate(1093.257812 0)"/>
     <use xlink:href="#DejaVuSans-20" transform="translate(1152.4375 0)"/>
     <use xlink:href="#DejaVuSans-2d" transform="translate(1184.224609 0)"/>
     <use xlink:href="#DejaVuSans-20" transform="translate(1220.308594 0)"/>
     <use xlink:href="#DejaVuSans-79" transform="translate(1252.095703 0)"/>
    </g>
   </g>
  </g>
 </g>
 <defs>
  <clipPath id="pba09d33064">
   <rect x="46.45625" y="25.8" width="366.775" height="220.9"/>
  </clipPath>
 </defs>
</svg>
