<?xml version="1.0" encoding="utf-8" standalone="no"?>
<!DOCTYPE svg PUBLIC "-//W3C//DTD SVG 1.1//EN"
  "http://www.w3.org/Graphics/SVG/1.1/DTD/svg11.dtd">
<svg xmlns:xlink="http://www.w3.org/1999/xlink" width="432pt" height="288pt" viewBox="0 0 432 288" xmlns="http://www.w3.org/2000/svg" version="1.1">
 <metadata>
  <rdf:RDF xmlns:dc="http://purl.org/dc/elements/1.1/" xmlns:cc="http://creativecommons.org/ns#" xmlns:rdf="http://www.w3.org/1999/02/22-rdf-syntax-ns#">
   <cc:Work>
    <dc:type rdf:resource="http://purl.org/dc/dcmitype/StillImage"/>
    <dc:date>2026-05-04T08:29:47.632534</dc:date>
    <dc:format>image/svg+xml</dc:format>
    <dc:creator>
     <cc:Agent>
      <dc:title>Matplotlib v3.10.8, https://matplotlib.org/</dc:title>
     </cc:Agent>
    </dc:creator>
   </cc:Work>
  </rdf:RDF>
 </metadata>
 <defs>
  <style type="text/css">*{stroke-linejoin: round; stroke-linecap: butt}</style>
 </defs>
 <g id="figure_1">
  <g id="patch_1">
   <path d="M 0 288 
L 432 288 
L 432 0 
L 0 0 
z
" style="fill: #ffffff"/>
  </g>
  <g id="axes_1">
   <g id="patch_2">
    <path d="M 46.3625 246.7 
L 421.2 246.7 
L 421.2 25.8 
L 46.3625 25.8 
z
" style="fill: #ffffff"/>
   </g>
   <g id="matplotlib.axis_1">
    <g id="xtick_1">
     <g id="line2d_1">
      <defs>
       <path id="ma1ea669513" d="M 0 0 
L 0 3.5 
" style="stroke: #000000; stroke-width: 0.8"/>
      </defs>
      <g>
       <use xlink:href="#ma1ea669513" x="63.400568" y="246.7" style="stroke: #000000; stroke-width: 0.8"/>
      </g>
     </g>
     <g id="text_1">
      <!-- −0.5 -->
      <g transform="translate(51.259162 261.298437) scale(0.1 -0.1)">
       <defs>
        <path id="DejaVuSans-2212" d="M 678 2272 
L 4684 2272 
L 4684 1741 
L 678 1741 
L 678 2272 
z
" transform="scale(0.015625)"/>
        <path id="DejaVuSans-30" d="M 2034 4250 
Q 1547 4250 1301 3770 
Q 1056 3291 1056 2328 
Q 1056 1369 1301 889 
Q 1547 409 2034 409 
Q 2525 409 2770 889 
Q 3016 1369 3016 2328 
Q 3016 3291 2770 3770 
Q 2525 4250 2034 4250 
z
M 2034 4750 
Q 2819 4750 3233 4129 
Q 3647 3509 3647 2328 
Q 3647 1150 3233 529 
Q 2819 -91 2034 -91 
Q 1250 -91 836 529 
Q 422 1150 422 2328 
Q 422 3509 836 4129 
Q 1250 4750 2034 4750 
z
" transform="scale(0.015625)"/>
        <path id="DejaVuSans-2e" d="M 684 794 
L 1344 794 
L 1344 0 
L 684 0 
L 684 794 
z
" transform="scale(0.015625)"/>
        <path id="DejaVuSans-35" d="M 691 4666 
L 3169 4666 
L 3169 4134 
L 1269 4134 
L 1269 2991 
Q 1406 3038 1543 3061 
Q 1681 3084 1819 3084 
Q 2600 3084 3056 2656 
Q 3513 2228 3513 1497 
Q 3513 744 3044 326 
Q 2575 -91 1722 -91 
Q 1428 -91 1123 -41 
Q 819 9 494 109 
L 494 744 
Q 775 591 1075 516 
Q 1375 441 1709 441 
Q 2250 441 2565 725 
Q 2881 1009 2881 1497 
Q 2881 1984 2565 2268 
Q 2250 2553 1709 2553 
Q 1456 2553 1204 2497 
Q 953 2441 691 2322 
L 691 4666 
z
" transform="scale(0.015625)"/>
       </defs>
       <use xlink:href="#DejaVuSans-2212"/>
       <use xlink:href="#DejaVuSans-30" transform="translate(83.789062 0)"/>
       <use xlink:href="#DejaVuSans-2e" transform="translate(147.412109 0)"/>
       <use xlink:href="#DejaVuSans-35" transform="translate(179.199219 0)"/>
      </g>
     </g>
    </g>
    <g id="xtick_2">
     <g id="line2d_2">
      <g>
       <use xlink:href="#ma1ea669513" x="131.552841" y="246.7" style="stroke: #000000; stroke-width: 0.8"/>
      </g>
     </g>
     <g id="text_2">
      <!-- 0.0 -->
      <g transform="translate(123.601278 261.298437) scale(0.1 -0.1)">
       <use xlink:href="#DejaVuSans-30"/>
       <use xlink:href="#DejaVuSans-2e" transform="translate(63.623047 0)"/>
       <use xlink:href="#DejaVuSans-30" transform="translate(95.410156 0)"/>
      </g>
     </g>
    </g>
    <g id="xtick_3">
     <g id="line2d_3">
      <g>
       <use xlink:href="#ma1ea669513" x="199.705114" y="246.7" style="stroke: #000000; stroke-width: 0.8"/>
      </g>
     </g>
     <g id="text_3">
      <!-- 0.5 -->
      <g transform="translate(191.753551 261.298437) scale(0.1 -0.1)">
       <use xlink:href="#DejaVuSans-30"/>
       <use xlink:href="#DejaVuSans-2e" transform="translate(63.623047 0)"/>
       <use xlink:href="#DejaVuSans-35" transform="translate(95.410156 0)"/>
      </g>
     </g>
    </g>
    <g id="xtick_4">
     <g id="line2d_4">
      <g>
       <use xlink:href="#ma1ea669513" x="267.857386" y="246.7" style="stroke: #000000; stroke-width: 0.8"/>
      </g>
     </g>
     <g id="text_4">
      <!-- 1.0 -->
      <g transform="translate(259.905824 261.298437) scale(0.1 -0.1)">
       <defs>
        <path id="DejaVuSans-31" d="M 794 531 
L 1825 531 
L 1825 4091 
L 703 3866 
L 703 4441 
L 1819 4666 
L 2450 4666 
L 2450 531 
L 3481 531 
L 3481 0 
L 794 0 
L 794 531 
z
" transform="scale(0.015625)"/>
       </defs>
       <use xlink:href="#DejaVuSans-31"/>
       <use xlink:href="#DejaVuSans-2e" transform="translate(63.623047 0)"/>
       <use xlink:href="#DejaVuSans-30" transform="translate(95.410156 0)"/>
      </g>
     </g>
    </g>
    <g id="xtick_5">
     <g id="line2d_5">
      <g>
       <use xlink:href="#ma1ea669513" x="336.009659" y="246.7" style="stroke: #000000; stroke-width: 0.8"/>
      </g>
     </g>
     <g id="text_5">
      <!-- 1.5 -->
      <g transform="translate(328.058097 261.298437) scale(0.1 -0.1)">
       <use xlink:href="#DejaVuSans-31"/>
       <use xlink:href="#DejaVuSans-2e" transform="translate(63.623047 0)"/>
       <use xlink:href="#DejaVuSans-35" transform="translate(95.410156 0)"/>
      </g>
     </g>
    </g>
    <g id="xtick_6">
     <g id="line2d_6">
      <g>
       <use xlink:href="#ma1ea669513" x="404.161932" y="246.7" style="stroke: #000000; stroke-width: 0.8"/>
      </g>
     </g>
     <g id="text_6">
      <!-- 2.0 -->
      <g transform="translate(396.210369 261.298437) scale(0.1 -0.1)">
       <defs>
        <path id="DejaVuSans-32" d="M 1228 531 
L 3431 531 
L 3431 0 
L 469 0 
L 469 531 
Q 828 903 1448 1529 
Q 2069 2156 2228 2338 
Q 2531 2678 2651 2914 
Q 2772 3150 2772 3378 
Q 2772 3750 2511 3984 
Q 2250 4219 1831 4219 
Q 1534 4219 1204 4116 
Q 875 4013 500 3803 
L 500 4441 
Q 881 4594 1212 4672 
Q 1544 4750 1819 4750 
Q 2544 4750 2975 4387 
Q 3406 4025 3406 3419 
Q 3406 3131 3298 2873 
Q 3191 2616 2906 2266 
Q 2828 2175 2409 1742 
Q 1991 1309 1228 531 
z
" transform="scale(0.015625)"/>
       </defs>
       <use xlink:href="#DejaVuSans-32"/>
       <use xlink:href="#DejaVuSans-2e" transform="translate(63.623047 0)"/>
       <use xlink:href="#DejaVuSans-30" transform="translate(95.410156 0)"/>
      </g>
     </g>
    </g>
    <g id="text_7">
     <!-- x -->
     <g transform="translate(230.821875 274.976562) scale(0.1 -0.1)">
      <defs>
       <path id="DejaVuSans-78" d="M 3513 3500 
L 2247 1797 
L 3578 0 
L 2900 0 
L 1881 1375 
L 863 0 
L 184 0 
L 1544 1831 
L 300 3500 
L 978 3500 
L 1906 2253 
L 2834 3500 
L 3513 3500 
z
" transform="scale(0.015625)"/>
      </defs>
      <use xlink:href="#DejaVuSans-78"/>
     </g>
    </g>
   </g>
   <g id="matplotlib.axis_2">
    <g id="ytick_1">
     <g id="line2d_7">
      <defs>
       <path id="m51ad61ad37" d="M 0 0 
L -3.5 0 
" style="stroke: #000000; stroke-width: 0.8"/>
      </defs>
      <g>
       <use xlink:href="#m51ad61ad37" x="46.3625" y="246.7" style="stroke: #000000; stroke-width: 0.8"/>
      </g>
     </g>
     <g id="text_8">
      <!-- −5 -->
      <g transform="translate(24.620313 250.499219) scale(0.1 -0.1)">
       <use xlink:href="#DejaVuSans-2212"/>
       <use xlink:href="#DejaVuSans-35" transform="translate(83.789062 0)"/>
      </g>
     </g>
    </g>
    <g id="ytick_2">
     <g id="line2d_8">
      <g>
       <use xlink:href="#m51ad61ad37" x="46.3625" y="205.792593" style="stroke: #000000; stroke-width: 0.8"/>
      </g>
     </g>
     <g id="text_9">
      <!-- 0 -->
      <g transform="translate(33 209.591811) scale(0.1 -0.1)">
       <use xlink:href="#DejaVuSans-30"/>
      </g>
     </g>
    </g>
    <g id="ytick_3">
     <g id="line2d_9">
      <g>
       <use xlink:href="#m51ad61ad37" x="46.3625" y="164.885185" style="stroke: #000000; stroke-width: 0.8"/>
      </g>
     </g>
     <g id="text_10">
      <!-- 5 -->
      <g transform="translate(33 168.684404) scale(0.1 -0.1)">
       <use xlink:href="#DejaVuSans-35"/>
      </g>
     </g>
    </g>
    <g id="ytick_4">
     <g id="line2d_10">
      <g>
       <use xlink:href="#m51ad61ad37" x="46.3625" y="123.977778" style="stroke: #000000; stroke-width: 0.8"/>
      </g>
     </g>
     <g id="text_11">
      <!-- 10 -->
      <g transform="translate(26.6375 127.776997) scale(0.1 -0.1)">
       <use xlink:href="#DejaVuSans-31"/>
       <use xlink:href="#DejaVuSans-30" transform="translate(63.623047 0)"/>
      </g>
     </g>
    </g>
    <g id="ytick_5">
     <g id="line2d_11">
      <g>
       <use xlink:href="#m51ad61ad37" x="46.3625" y="83.07037" style="stroke: #000000; stroke-width: 0.8"/>
      </g>
     </g>
     <g id="text_12">
      <!-- 15 -->
      <g transform="translate(26.6375 86.869589) scale(0.1 -0.1)">
       <use xlink:href="#DejaVuSans-31"/>
       <use xlink:href="#DejaVuSans-35" transform="translate(63.623047 0)"/>
      </g>
     </g>
    </g>
    <g id="ytick_6">
     <g id="line2d_12">
      <g>
       <use xlink:href="#m51ad61ad37" x="46.3625" y="42.162963" style="stroke: #000000; stroke-width: 0.8"/>
      </g>
     </g>
     <g id="text_13">
      <!-- 20 -->
      <g transform="translate(26.6375 45.962182) scale(0.1 -0.1)">
       <use xlink:href="#DejaVuSans-32"/>
       <use xlink:href="#DejaVuSans-30" transform="translate(63.623047 0)"/>
      </g>
     </g>
    </g>
    <g id="text_14">
     <!-- y -->
     <g transform="translate(18.540625 139.209375) rotate(-90) scale(0.1 -0.1)">
      <defs>
       <path id="DejaVuSans-79" d="M 2059 -325 
Q 1816 -950 1584 -1140 
Q 1353 -1331 966 -1331 
L 506 -1331 
L 506 -850 
L 844 -850 
Q 1081 -850 1212 -737 
Q 1344 -625 1503 -206 
L 1606 56 
L 191 3500 
L 800 3500 
L 1894 763 
L 2988 3500 
L 3597 3500 
L 2059 -325 
z
" transform="scale(0.015625)"/>
      </defs>
      <use xlink:href="#DejaVuSans-79"/>
     </g>
    </g>
   </g>
   <g id="line2d_13">
    <path d="M 63.400568 215.717231 
L 83.948992 217.332073 
L 102.785047 219.042163 
L 119.908734 220.815757 
L 137.032421 222.826764 
L 152.443739 224.865841 
L 166.142688 226.882387 
L 179.841637 229.112136 
L 193.540586 231.577628 
L 205.527167 233.947847 
L 217.513748 236.535942 
L 229.500328 239.361941 
L 239.77454 241.990101 
L 250.048752 244.82402 
L 260.322964 247.879809 
L 270.597176 251.174837 
L 280.871388 254.727834 
L 289.433231 257.900248 
L 297.995075 261.278327 
L 306.556918 264.875403 
L 315.118761 268.705673 
L 323.680605 272.784255 
L 332.242448 277.127246 
L 340.804291 281.751789 
L 349.366135 286.676135 
L 353.225057 289 
L 353.225057 289 
" clip-path="url(#p048719efff)" style="fill: none; stroke: #1f77b4; stroke-width: 1.5; stroke-linecap: square"/>
   </g>
   <g id="line2d_14">
    <path d="M 63.400568 210.754912 
L 90.798467 211.859678 
L 116.483997 213.117793 
L 138.744789 214.417352 
L 159.293213 215.820689 
L 179.841637 217.452364 
L 198.677692 219.180282 
L 215.801379 220.972364 
L 231.212697 222.789459 
L 246.624015 224.824071 
L 260.322964 226.836201 
L 274.021914 229.061066 
L 287.720863 231.521158 
L 299.707443 233.886187 
L 311.694024 236.468614 
L 323.680605 239.288424 
L 333.954817 241.910828 
L 344.229029 244.738541 
L 354.503241 247.787638 
L 364.777453 251.075449 
L 375.051665 254.620665 
L 383.613508 257.786132 
L 392.175351 261.156813 
L 400.737194 264.746011 
L 404.161932 266.246018 
L 404.161932 266.246018 
" clip-path="url(#p048719efff)" style="fill: none; stroke: #ff7f0e; stroke-width: 1.5; stroke-linecap: square"/>
   </g>
   <g id="line2d_15">
    <path d="M 63.400568 208.273752 
L 102.785047 209.104985 
L 137.032421 210.051136 
L 166.142688 211.065041 
L 193.540586 212.238851 
L 217.513748 213.47843 
L 239.77454 214.84197 
L 260.322964 216.314397 
L 279.15902 217.873673 
L 297.995075 219.664026 
L 315.118761 221.520863 
L 330.530079 223.403616 
L 345.941397 225.511745 
L 359.640347 227.596581 
L 373.339296 229.901838 
L 387.038245 232.450823 
L 399.024826 234.901308 
L 404.161932 236.019305 
L 404.161932 236.019305 
" clip-path="url(#p048719efff)" style="fill: none; stroke: #2ca02c; stroke-width: 1.5; stroke-linecap: square"/>
   </g>
   <g id="line2d_16">
    <path d="M 63.400568 203.311433 
L 102.785047 202.4802 
L 137.032421 201.53405 
L 166.142688 200.520144 
L 193.540586 199.346334 
L 217.513748 198.106755 
L 239.77454 196.743216 
L 260.322964 195.270789 
L 279.15902 193.711512 
L 297.995075 191.921159 
L 315.118761 190.064323 
L 330.530079 188.181569 
L 345.941397 186.07344 
L 359.640347 183.988604 
L 373.339296 181.683347 
L 387.038245 179.134363 
L 399.024826 176.683877 
L 404.161932 175.56588 
L 404.161932 175.56588 
" clip-path="url(#p048719efff)" style="fill: none; stroke: #d62728; stroke-width: 1.5; stroke-linecap: square"/>
   </g>
   <g id="line2d_17">
    <path d="M 63.400568 200.830273 
L 90.798467 199.725508 
L 116.483997 198.467392 
L 138.744789 197.167833 
L 159.293213 195.764496 
L 179.841637 194.132821 
L 198.677692 192.404904 
L 215.801379 190.612821 
L 231.212697 188.795726 
L 246.624015 186.761115 
L 260.322964 184.748984 
L 274.021914 182.524119 
L 287.720863 180.064027 
L 299.707443 177.698998 
L 311.694024 175.116571 
L 323.680605 172.296762 
L 333.954817 169.674357 
L 344.229029 166.846644 
L 354.503241 163.797548 
L 364.777453 160.509736 
L 375.051665 156.96452 
L 383.613508 153.799053 
L 392.175351 150.428372 
L 400.737194 146.839174 
L 404.161932 145.339167 
L 404.161932 145.339167 
" clip-path="url(#p048719efff)" style="fill: none; stroke: #9467bd; stroke-width: 1.5; stroke-linecap: square"/>
   </g>
   <g id="line2d_18">
    <path d="M 63.400568 195.867954 
L 83.948992 194.253113 
L 102.785047 192.543022 
L 119.908734 190.769428 
L 137.032421 188.758421 
L 152.443739 186.719344 
L 166.142688 184.702798 
L 179.841637 182.473049 
L 193.540586 180.007557 
L 205.527167 177.637338 
L 217.513748 175.049243 
L 229.500328 172.223245 
L 239.77454 169.595085 
L 250.048752 166.761165 
L 260.322964 163.705376 
L 270.597176 160.410349 
L 280.871388 156.857352 
L 289.433231 153.684937 
L 297.995075 150.306858 
L 306.556918 146.709782 
L 315.118761 142.879512 
L 323.680605 138.800931 
L 332.242448 134.457939 
L 340.804291 129.833396 
L 349.366135 124.90905 
L 356.215609 120.740695 
L 363.065084 116.357523 
L 369.914559 111.748462 
L 376.764033 106.901873 
L 383.613508 101.805513 
L 390.462983 96.446511 
L 397.312457 90.811331 
L 404.161932 84.885741 
L 404.161932 84.885741 
" clip-path="url(#p048719efff)" style="fill: none; stroke: #8c564b; stroke-width: 1.5; stroke-linecap: square"/>
   </g>
   <g id="line2d_19">
    <path d="M 63.400568 190.905635 
L 80.524255 188.91286 
L 95.935573 186.89227 
L 111.346891 184.629805 
L 125.04584 182.392339 
L 138.744789 179.918314 
L 150.73137 177.539892 
L 162.717951 174.942839 
L 174.704531 172.10706 
L 184.978743 169.469804 
L 195.252955 166.626076 
L 205.527167 163.559711 
L 215.801379 160.253279 
L 226.075591 156.687985 
L 234.637434 153.50459 
L 243.199278 150.11482 
L 251.761121 146.505295 
L 260.322964 142.661768 
L 268.884808 138.56907 
L 277.446651 134.211047 
L 286.008494 129.570499 
L 294.570337 124.629109 
L 301.419812 120.446327 
L 308.269287 116.047985 
L 315.118761 111.422972 
L 321.968236 106.559609 
L 328.817711 101.44561 
L 335.667185 96.068061 
L 342.51666 90.413377 
L 349.366135 84.467279 
L 356.215609 78.214746 
L 363.065084 71.639988 
L 369.914559 64.726397 
L 376.764033 57.456513 
L 383.613508 49.811973 
L 390.462983 41.77347 
L 397.312457 33.320701 
L 404.161932 24.432316 
L 404.161932 24.432316 
" clip-path="url(#p048719efff)" style="fill: none; stroke: #e377c2; stroke-width: 1.5; stroke-linecap: square"/>
   </g>
   <g id="patch_3">
    <path d="M 46.3625 246.7 
L 46.3625 25.8 
" style="fill: none; stroke: #000000; stroke-width: 0.8; stroke-linejoin: miter; stroke-linecap: square"/>
   </g>
   <g id="patch_4">
    <path d="M 421.2 246.7 
L 421.2 25.8 
" style="fill: none; stroke: #000000; stroke-width: 0.8; stroke-linejoin: miter; stroke-linecap: square"/>
   </g>
   <g id="patch_5">
    <path d="M 46.3625 246.7 
L 421.2 246.7 
" style="fill: none; stroke: #000000; stroke-width: 0.8; stroke-linejoin: miter; stroke-linecap: square"/>
   </g>
   <g id="patch_6">
    <path d="M 46.3625 25.8 
L 421.2 25.8 
" style="fill: none; stroke: #000000; stroke-width: 0.8; stroke-linejoin: miter; stroke-linecap: square"/>
   </g>
   <g id="text_15">
    <!-- Family of solutions: y = C * exp(x) -->
    <g transform="translate(131.485 19.8) scale(0.12 -0.12)">
     <defs>
      <path id="DejaVuSans-46" d="M 628 4666 
L 3309 4666 
L 3309 4134 
L 1259 4134 
L 1259 2759 
L 3109 2759 
L 3109 2228 
L 1259 2228 
L 1259 0 
L 628 0 
L 628 4666 
z
" transform="scale(0.015625)"/>
      <path id="DejaVuSans-61" d="M 2194 1759 
Q 1497 1759 1228 1600 
Q 959 1441 959 1056 
Q 959 750 1161 570 
Q 1363 391 1709 391 
Q 2188 391 2477 730 
Q 2766 1069 2766 1631 
L 2766 1759 
L 2194 1759 
z
M 3341 1997 
L 3341 0 
L 2766 0 
L 2766 531 
Q 2569 213 2275 61 
Q 1981 -91 1556 -91 
Q 1019 -91 701 211 
Q 384 513 384 1019 
Q 384 1609 779 1909 
Q 1175 2209 1959 2209 
L 2766 2209 
L 2766 2266 
Q 2766 2663 2505 2880 
Q 2244 3097 1772 3097 
Q 1472 3097 1187 3025 
Q 903 2953 641 2809 
L 641 3341 
Q 956 3463 1253 3523 
Q 1550 3584 1831 3584 
Q 2591 3584 2966 3190 
Q 3341 2797 3341 1997 
z
" transform="scale(0.015625)"/>
      <path id="DejaVuSans-6d" d="M 3328 2828 
Q 3544 3216 3844 3400 
Q 4144 3584 4550 3584 
Q 5097 3584 5394 3201 
Q 5691 2819 5691 2113 
L 5691 0 
L 5113 0 
L 5113 2094 
Q 5113 2597 4934 2840 
Q 4756 3084 4391 3084 
Q 3944 3084 3684 2787 
Q 3425 2491 3425 1978 
L 3425 0 
L 2847 0 
L 2847 2094 
Q 2847 2600 2669 2842 
Q 2491 3084 2119 3084 
Q 1678 3084 1418 2786 
Q 1159 2488 1159 1978 
L 1159 0 
L 581 0 
L 581 3500 
L 1159 3500 
L 1159 2956 
Q 1356 3278 1631 3431 
Q 1906 3584 2284 3584 
Q 2666 3584 2933 3390 
Q 3200 3197 3328 2828 
z
" transform="scale(0.015625)"/>
      <path id="DejaVuSans-69" d="M 603 3500 
L 1178 3500 
L 1178 0 
L 603 0 
L 603 3500 
z
M 603 4863 
L 1178 4863 
L 1178 4134 
L 603 4134 
L 603 4863 
z
" transform="scale(0.015625)"/>
      <path id="DejaVuSans-6c" d="M 603 4863 
L 1178 4863 
L 1178 0 
L 603 0 
L 603 4863 
z
" transform="scale(0.015625)"/>
      <path id="DejaVuSans-20" transform="scale(0.015625)"/>
      <path id="DejaVuSans-6f" d="M 1959 3097 
Q 1497 3097 1228 2736 
Q 959 2375 959 1747 
Q 959 1119 1226 758 
Q 1494 397 1959 397 
Q 2419 397 2687 759 
Q 2956 1122 2956 1747 
Q 2956 2369 2687 2733 
Q 2419 3097 1959 3097 
z
M 1959 3584 
Q 2709 3584 3137 3096 
Q 3566 2609 3566 1747 
Q 3566 888 3137 398 
Q 2709 -91 1959 -91 
Q 1206 -91 779 398 
Q 353 888 353 1747 
Q 353 2609 779 3096 
Q 1206 3584 1959 3584 
z
" transform="scale(0.015625)"/>
      <path id="DejaVuSans-66" d="M 2375 4863 
L 2375 4384 
L 1825 4384 
Q 1516 4384 1395 4259 
Q 1275 4134 1275 3809 
L 1275 3500 
L 2222 3500 
L 2222 3053 
L 1275 3053 
L 1275 0 
L 697 0 
L 697 3053 
L 147 3053 
L 147 3500 
L 697 3500 
L 697 3744 
Q 697 4328 969 4595 
Q 1241 4863 1831 4863 
L 2375 4863 
z
" transform="scale(0.015625)"/>
      <path id="DejaVuSans-73" d="M 2834 3397 
L 2834 2853 
Q 2591 2978 2328 3040 
Q 2066 3103 1784 3103 
Q 1356 3103 1142 2972 
Q 928 2841 928 2578 
Q 928 2378 1081 2264 
Q 1234 2150 1697 2047 
L 1894 2003 
Q 2506 1872 2764 1633 
Q 3022 1394 3022 966 
Q 3022 478 2636 193 
Q 2250 -91 1575 -91 
Q 1294 -91 989 -36 
Q 684 19 347 128 
L 347 722 
Q 666 556 975 473 
Q 1284 391 1588 391 
Q 1994 391 2212 530 
Q 2431 669 2431 922 
Q 2431 1156 2273 1281 
Q 2116 1406 1581 1522 
L 1381 1569 
Q 847 1681 609 1914 
Q 372 2147 372 2553 
Q 372 3047 722 3315 
Q 1072 3584 1716 3584 
Q 2034 3584 2315 3537 
Q 2597 3491 2834 3397 
z
" transform="scale(0.015625)"/>
      <path id="DejaVuSans-75" d="M 544 1381 
L 544 3500 
L 1119 3500 
L 1119 1403 
Q 1119 906 1312 657 
Q 1506 409 1894 409 
Q 2359 409 2629 706 
Q 2900 1003 2900 1516 
L 2900 3500 
L 3475 3500 
L 3475 0 
L 2900 0 
L 2900 538 
Q 2691 219 2414 64 
Q 2138 -91 1772 -91 
Q 1169 -91 856 284 
Q 544 659 544 1381 
z
M 1991 3584 
L 1991 3584 
z
" transform="scale(0.015625)"/>
      <path id="DejaVuSans-74" d="M 1172 4494 
L 1172 3500 
L 2356 3500 
L 2356 3053 
L 1172 3053 
L 1172 1153 
Q 1172 725 1289 603 
Q 1406 481 1766 481 
L 2356 481 
L 2356 0 
L 1766 0 
Q 1100 0 847 248 
Q 594 497 594 1153 
L 594 3053 
L 172 3053 
L 172 3500 
L 594 3500 
L 594 4494 
L 1172 4494 
z
" transform="scale(0.015625)"/>
      <path id="DejaVuSans-6e" d="M 3513 2113 
L 3513 0 
L 2938 0 
L 2938 2094 
Q 2938 2591 2744 2837 
Q 2550 3084 2163 3084 
Q 1697 3084 1428 2787 
Q 1159 2491 1159 1978 
L 1159 0 
L 581 0 
L 581 3500 
L 1159 3500 
L 1159 2956 
Q 1366 3272 1645 3428 
Q 1925 3584 2291 3584 
Q 2894 3584 3203 3211 
Q 3513 2838 3513 2113 
z
" transform="scale(0.015625)"/>
      <path id="DejaVuSans-3a" d="M 750 794 
L 1409 794 
L 1409 0 
L 750 0 
L 750 794 
z
M 750 3309 
L 1409 3309 
L 1409 2516 
L 750 2516 
L 750 3309 
z
" transform="scale(0.015625)"/>
      <path id="DejaVuSans-3d" d="M 678 2906 
L 4684 2906 
L 4684 2381 
L 678 2381 
L 678 2906 
z
M 678 1631 
L 4684 1631 
L 4684 1100 
L 678 1100 
L 678 1631 
z
" transform="scale(0.015625)"/>
      <path id="DejaVuSans-43" d="M 4122 4306 
L 4122 3641 
Q 3803 3938 3442 4084 
Q 3081 4231 2675 4231 
Q 1875 4231 1450 3742 
Q 1025 3253 1025 2328 
Q 1025 1406 1450 917 
Q 1875 428 2675 428 
Q 3081 428 3442 575 
Q 3803 722 4122 1019 
L 4122 359 
Q 3791 134 3420 21 
Q 3050 -91 2638 -91 
Q 1578 -91 968 557 
Q 359 1206 359 2328 
Q 359 3453 968 4101 
Q 1578 4750 2638 4750 
Q 3056 4750 3426 4639 
Q 3797 4528 4122 4306 
z
" transform="scale(0.015625)"/>
      <path id="DejaVuSans-2a" d="M 3009 3897 
L 1888 3291 
L 3009 2681 
L 2828 2375 
L 1778 3009 
L 1778 1831 
L 1422 1831 
L 1422 3009 
L 372 2375 
L 191 2681 
L 1313 3291 
L 191 3897 
L 372 4206 
L 1422 3572 
L 1422 4750 
L 1778 4750 
L 1778 3572 
L 2828 4206 
L 3009 3897 
z
" transform="scale(0.015625)"/>
      <path id="DejaVuSans-65" d="M 3597 1894 
L 3597 1613 
L 953 1613 
Q 991 1019 1311 708 
Q 1631 397 2203 397 
Q 2534 397 2845 478 
Q 3156 559 3463 722 
L 3463 178 
Q 3153 47 2828 -22 
Q 2503 -91 2169 -91 
Q 1331 -91 842 396 
Q 353 884 353 1716 
Q 353 2575 817 3079 
Q 1281 3584 2069 3584 
Q 2775 3584 3186 3129 
Q 3597 2675 3597 1894 
z
M 3022 2063 
Q 3016 2534 2758 2815 
Q 2500 3097 2075 3097 
Q 1594 3097 1305 2825 
Q 1016 2553 972 2059 
L 3022 2063 
z
" transform="scale(0.015625)"/>
      <path id="DejaVuSans-70" d="M 1159 525 
L 1159 -1331 
L 581 -1331 
L 581 3500 
L 1159 3500 
L 1159 2969 
Q 1341 3281 1617 3432 
Q 1894 3584 2278 3584 
Q 2916 3584 3314 3078 
Q 3713 2572 3713 1747 
Q 3713 922 3314 415 
Q 2916 -91 2278 -91 
Q 1894 -91 1617 61 
Q 1341 213 1159 525 
z
M 3116 1747 
Q 3116 2381 2855 2742 
Q 2594 3103 2138 3103 
Q 1681 3103 1420 2742 
Q 1159 2381 1159 1747 
Q 1159 1113 1420 752 
Q 1681 391 2138 391 
Q 2594 391 2855 752 
Q 3116 1113 3116 1747 
z
" transform="scale(0.015625)"/>
      <path id="DejaVuSans-28" d="M 1984 4856 
Q 1566 4138 1362 3434 
Q 1159 2731 1159 2009 
Q 1159 1288 1364 580 
Q 1569 -128 1984 -844 
L 1484 -844 
Q 1016 -109 783 600 
Q 550 1309 550 2009 
Q 550 2706 781 3412 
Q 1013 4119 1484 4856 
L 1984 4856 
z
" transform="scale(0.015625)"/>
      <path id="DejaVuSans-29" d="M 513 4856 
L 1013 4856 
Q 1481 4119 1714 3412 
Q 1947 2706 1947 2009 
Q 1947 1309 1714 600 
Q 1481 -109 1013 -844 
L 513 -844 
Q 928 -128 1133 580 
Q 1338 1288 1338 2009 
Q 1338 2731 1133 3434 
Q 928 4138 513 4856 
z
" transform="scale(0.015625)"/>
     </defs>
     <use xlink:href="#DejaVuSans-46"/>
     <use xlink:href="#DejaVuSans-61" transform="translate(48.394531 0)"/>
     <use xlink:href="#DejaVuSans-6d" transform="translate(109.673828 0)"/>
     <use xlink:href="#DejaVuSans-69" transform="translate(207.085938 0)"/>
     <use xlink:href="#DejaVuSans-6c" transform="translate(234.869141 0)"/>
     <use xlink:href="#DejaVuSans-79" transform="translate(262.652344 0)"/>
     <use xlink:href="#DejaVuSans-20" transform="translate(321.832031 0)"/>
     <use xlink:href="#DejaVuSans-6f" transform="translate(353.619141 0)"/>
     <use xlink:href="#DejaVuSans-66" transform="translate(414.800781 0)"/>
     <use xlink:href="#DejaVuSans-20" transform="translate(450.005859 0)"/>
     <use xlink:href="#DejaVuSans-73" transform="translate(481.792969 0)"/>
     <use xlink:href="#DejaVuSans-6f" transform="translate(533.892578 0)"/>
     <use xlink:href="#DejaVuSans-6c" transform="translate(595.074219 0)"/>
     <use xlink:href="#DejaVuSans-75" transform="translate(622.857422 0)"/>
     <use xlink:href="#DejaVuSans-74" transform="translate(686.236328 0)"/>
     <use xlink:href="#DejaVuSans-69" transform="translate(725.445312 0)"/>
     <use xlink:href="#DejaVuSans-6f" transform="translate(753.228516 0)"/>
     <use xlink:href="#DejaVuSans-6e" transform="translate(814.410156 0)"/>
     <use xlink:href="#DejaVuSans-73" transform="translate(877.789062 0)"/>
     <use xlink:href="#DejaVuSans-3a" transform="translate(929.888672 0)"/>
     <use xlink:href="#DejaVuSans-20" transform="translate(963.580078 0)"/>
     <use xlink:href="#DejaVuSans-79" transform="translate(995.367188 0)"/>
     <use xlink:href="#DejaVuSans-20" transform="translate(1054.546875 0)"/>
     <use xlink:href="#DejaVuSans-3d" transform="translate(1086.333984 0)"/>
     <use xlink:href="#DejaVuSans-20" transform="translate(1170.123047 0)"/>
     <use xlink:href="#DejaVuSans-43" transform="translate(1201.910156 0)"/>
     <use xlink:href="#DejaVuSans-20" transform="translate(1271.734375 0)"/>
     <use xlink:href="#DejaVuSans-2a" transform="translate(1303.521484 0)"/>
     <use xlink:href="#DejaVuSans-20" transform="translate(1353.521484 0)"/>
     <use xlink:href="#DejaVuSans-65" transform="translate(1385.308594 0)"/>
     <use xlink:href="#DejaVuSans-78" transform="translate(1445.082031 0)"/>
     <use xlink:href="#DejaVuSans-70" transform="translate(1504.261719 0)"/>
     <use xlink:href="#DejaVuSans-28" transform="translate(1567.738281 0)"/>
     <use xlink:href="#DejaVuSans-78" transform="translate(1606.751953 0)"/>
     <use xlink:href="#DejaVuSans-29" transform="translate(1665.931641 0)"/>
    </g>
   </g>
   <g id="legend_1">
    <g id="patch_7">
     <path d="M 51.9625 114.3975 
L 110.54625 114.3975 
Q 112.14625 114.3975 112.14625 112.7975 
L 112.14625 31.4 
Q 112.14625 29.8 110.54625 29.8 
L 51.9625 29.8 
Q 50.3625 29.8 50.3625 31.4 
L 50.3625 112.7975 
Q 50.3625 114.3975 51.9625 114.3975 
z
" style="fill: #ffffff; opacity: 0.8; stroke: #cccccc; stroke-linejoin: miter"/>
    </g>
    <g id="line2d_20">
     <path d="M 53.5625 36.27875 
L 61.5625 36.27875 
L 69.5625 36.27875 
" style="fill: none; stroke: #1f77b4; stroke-width: 1.5; stroke-linecap: square"/>
    </g>
    <g id="text_16">
     <!-- C = -2 -->
     <g transform="translate(75.9625 39.07875) scale(0.08 -0.08)">
      <defs>
       <path id="DejaVuSans-2d" d="M 313 2009 
L 1997 2009 
L 1997 1497 
L 313 1497 
L 313 2009 
z
" transform="scale(0.015625)"/>
      </defs>
      <use xlink:href="#DejaVuSans-43"/>
      <use xlink:href="#DejaVuSans-20" transform="translate(69.824219 0)"/>
      <use xlink:href="#DejaVuSans-3d" transform="translate(101.611328 0)"/>
      <use xlink:href="#DejaVuSans-20" transform="translate(185.400391 0)"/>
      <use xlink:href="#DejaVuSans-2d" transform="translate(217.1875 0)"/>
      <use xlink:href="#DejaVuSans-32" transform="translate(253.271484 0)"/>
     </g>
    </g>
    <g id="line2d_21">
     <path d="M 53.5625 48.02125 
L 61.5625 48.02125 
L 69.5625 48.02125 
" style="fill: none; stroke: #ff7f0e; stroke-width: 1.5; stroke-linecap: square"/>
    </g>
    <g id="text_17">
     <!-- C = -1 -->
     <g transform="translate(75.9625 50.82125) scale(0.08 -0.08)">
      <use xlink:href="#DejaVuSans-43"/>
      <use xlink:href="#DejaVuSans-20" transform="translate(69.824219 0)"/>
      <use xlink:href="#DejaVuSans-3d" transform="translate(101.611328 0)"/>
      <use xlink:href="#DejaVuSans-20" transform="translate(185.400391 0)"/>
      <use xlink:href="#DejaVuSans-2d" transform="translate(217.1875 0)"/>
      <use xlink:href="#DejaVuSans-31" transform="translate(253.271484 0)"/>
     </g>
    </g>
    <g id="line2d_22">
     <path d="M 53.5625 59.76375 
L 61.5625 59.76375 
L 69.5625 59.76375 
" style="fill: none; stroke: #2ca02c; stroke-width: 1.5; stroke-linecap: square"/>
    </g>
    <g id="text_18">
     <!-- C = -0.5 -->
     <g transform="translate(75.9625 62.56375) scale(0.08 -0.08)">
      <use xlink:href="#DejaVuSans-43"/>
      <use xlink:href="#DejaVuSans-20" transform="translate(69.824219 0)"/>
      <use xlink:href="#DejaVuSans-3d" transform="translate(101.611328 0)"/>
      <use xlink:href="#DejaVuSans-20" transform="translate(185.400391 0)"/>
      <use xlink:href="#DejaVuSans-2d" transform="translate(217.1875 0)"/>
      <use xlink:href="#DejaVuSans-30" transform="translate(253.271484 0)"/>
      <use xlink:href="#DejaVuSans-2e" transform="translate(316.894531 0)"/>
      <use xlink:href="#DejaVuSans-35" transform="translate(348.681641 0)"/>
     </g>
    </g>
    <g id="line2d_23">
     <path d="M 53.5625 71.50625 
L 61.5625 71.50625 
L 69.5625 71.50625 
" style="fill: none; stroke: #d62728; stroke-width: 1.5; stroke-linecap: square"/>
    </g>
    <g id="text_19">
     <!-- C = 0.5 -->
     <g transform="translate(75.9625 74.30625) scale(0.08 -0.08)">
      <use xlink:href="#DejaVuSans-43"/>
      <use xlink:href="#DejaVuSans-20" transform="translate(69.824219 0)"/>
      <use xlink:href="#DejaVuSans-3d" transform="translate(101.611328 0)"/>
      <use xlink:href="#DejaVuSans-20" transform="translate(185.400391 0)"/>
      <use xlink:href="#DejaVuSans-30" transform="translate(217.1875 0)"/>
      <use xlink:href="#DejaVuSans-2e" transform="translate(280.810547 0)"/>
      <use xlink:href="#DejaVuSans-35" transform="translate(312.597656 0)"/>
     </g>
    </g>
    <g id="line2d_24">
     <path d="M 53.5625 83.24875 
L 61.5625 83.24875 
L 69.5625 83.24875 
" style="fill: none; stroke: #9467bd; stroke-width: 1.5; stroke-linecap: square"/>
    </g>
    <g id="text_20">
     <!-- C = 1 -->
     <g transform="translate(75.9625 86.04875) scale(0.08 -0.08)">
      <use xlink:href="#DejaVuSans-43"/>
      <use xlink:href="#DejaVuSans-20" transform="translate(69.824219 0)"/>
      <use xlink:href="#DejaVuSans-3d" transform="translate(101.611328 0)"/>
      <use xlink:href="#DejaVuSans-20" transform="translate(185.400391 0)"/>
      <use xlink:href="#DejaVuSans-31" transform="translate(217.1875 0)"/>
     </g>
    </g>
    <g id="line2d_25">
     <path d="M 53.5625 94.99125 
L 61.5625 94.99125 
L 69.5625 94.99125 
" style="fill: none; stroke: #8c564b; stroke-width: 1.5; stroke-linecap: square"/>
    </g>
    <g id="text_21">
     <!-- C = 2 -->
     <g transform="translate(75.9625 97.79125) scale(0.08 -0.08)">
      <use xlink:href="#DejaVuSans-43"/>
      <use xlink:href="#DejaVuSans-20" transform="translate(69.824219 0)"/>
      <use xlink:href="#DejaVuSans-3d" transform="translate(101.611328 0)"/>
      <use xlink:href="#DejaVuSans-20" transform="translate(185.400391 0)"/>
      <use xlink:href="#DejaVuSans-32" transform="translate(217.1875 0)"/>
     </g>
    </g>
    <g id="line2d_26">
     <path d="M 53.5625 106.73375 
L 61.5625 106.73375 
L 69.5625 106.73375 
" style="fill: none; stroke: #e377c2; stroke-width: 1.5; stroke-linecap: square"/>
    </g>
    <g id="text_22">
     <!-- C = 3 -->
     <g transform="translate(75.9625 109.53375) scale(0.08 -0.08)">
      <defs>
       <path id="DejaVuSans-33" d="M 2597 2516 
Q 3050 2419 3304 2112 
Q 3559 1806 3559 1356 
Q 3559 666 3084 287 
Q 2609 -91 1734 -91 
Q 1441 -91 1130 -33 
Q 819 25 488 141 
L 488 750 
Q 750 597 1062 519 
Q 1375 441 1716 441 
Q 2309 441 2620 675 
Q 2931 909 2931 1356 
Q 2931 1769 2642 2001 
Q 2353 2234 1838 2234 
L 1294 2234 
L 1294 2753 
L 1863 2753 
Q 2328 2753 2575 2939 
Q 2822 3125 2822 3475 
Q 2822 3834 2567 4026 
Q 2313 4219 1838 4219 
Q 1578 4219 1281 4162 
Q 984 4106 628 3988 
L 628 4550 
Q 988 4650 1302 4700 
Q 1616 4750 1894 4750 
Q 2613 4750 3031 4423 
Q 3450 4097 3450 3541 
Q 3450 3153 3228 2886 
Q 3006 2619 2597 2516 
z
" transform="scale(0.015625)"/>
      </defs>
      <use xlink:href="#DejaVuSans-43"/>
      <use xlink:href="#DejaVuSans-20" transform="translate(69.824219 0)"/>
      <use xlink:href="#DejaVuSans-3d" transform="translate(101.611328 0)"/>
      <use xlink:href="#DejaVuSans-20" transform="translate(185.400391 0)"/>
      <use xlink:href="#DejaVuSans-33" transform="translate(217.1875 0)"/>
     </g>
    </g>
   </g>
  </g>
 </g>
 <defs>
  <clipPath id="p048719efff">
   <rect x="46.3625" y="25.8" width="374.8375" height="220.9"/>
  </clipPath>
 </defs>
</svg>
