<?xml version="1.0" encoding="utf-8" standalone="no"?>
<!DOCTYPE svg PUBLIC "-//W3C//DTD SVG 1.1//EN"
  "http://www.w3.org/Graphics/SVG/1.1/DTD/svg11.dtd">
<svg xmlns:xlink="http://www.w3.org/1999/xlink" width="432pt" height="288pt" viewBox="0 0 432 288" xmlns="http://www.w3.org/2000/svg" version="1.1">
 <metadata>
  <rdf:RDF xmlns:dc="http://purl.org/dc/elements/1.1/" xmlns:cc="http://creativecommons.org/ns#" xmlns:rdf="http://www.w3.org/1999/02/22-rdf-syntax-ns#">
   <cc:Work>
    <dc:type rdf:resource="http://purl.org/dc/dcmitype/StillImage"/>
    <dc:date>2026-05-04T08:29:43.323253</dc:date>
    <dc:format>image/svg+xml</dc:format>
    <dc:creator>
     <cc:Agent>
      <dc:title>Matplotlib v3.10.8, https://matplotlib.org/</dc:title>
     </cc:Agent>
    </dc:creator>
   </cc:Work>
  </rdf:RDF>
 </metadata>
 <defs>
  <style type="text/css">*{stroke-linejoin: round; stroke-linecap: butt}</style>
 </defs>
 <g id="figure_1">
  <g id="patch_1">
   <path d="M 0 288 
L 432 288 
L 432 0 
L 0 0 
z
" style="fill: #ffffff"/>
  </g>
  <g id="axes_1">
   <g id="patch_2">
    <path d="M 38.01875 246.7 
L 413.184375 246.7 
L 413.184375 25.8 
L 38.01875 25.8 
z
" style="fill: #ffffff"/>
   </g>
   <g id="matplotlib.axis_1">
    <g id="xtick_1">
     <g id="line2d_1">
      <defs>
       <path id="ma09b64c90c" d="M 0 0 
L 0 3.5 
" style="stroke: #000000; stroke-width: 0.8"/>
      </defs>
      <g>
       <use xlink:href="#ma09b64c90c" x="78.215067" y="246.7" style="stroke: #000000; stroke-width: 0.8"/>
      </g>
     </g>
     <g id="text_1">
      <!-- 0.0 -->
      <g transform="translate(70.263504 261.298437) scale(0.1 -0.1)">
       <defs>
        <path id="DejaVuSans-30" d="M 2034 4250 
Q 1547 4250 1301 3770 
Q 1056 3291 1056 2328 
Q 1056 1369 1301 889 
Q 1547 409 2034 409 
Q 2525 409 2770 889 
Q 3016 1369 3016 2328 
Q 3016 3291 2770 3770 
Q 2525 4250 2034 4250 
z
M 2034 4750 
Q 2819 4750 3233 4129 
Q 3647 3509 3647 2328 
Q 3647 1150 3233 529 
Q 2819 -91 2034 -91 
Q 1250 -91 836 529 
Q 422 1150 422 2328 
Q 422 3509 836 4129 
Q 1250 4750 2034 4750 
z
" transform="scale(0.015625)"/>
        <path id="DejaVuSans-2e" d="M 684 794 
L 1344 794 
L 1344 0 
L 684 0 
L 684 794 
z
" transform="scale(0.015625)"/>
       </defs>
       <use xlink:href="#DejaVuSans-30"/>
       <use xlink:href="#DejaVuSans-2e" transform="translate(63.623047 0)"/>
       <use xlink:href="#DejaVuSans-30" transform="translate(95.410156 0)"/>
      </g>
     </g>
    </g>
    <g id="xtick_2">
     <g id="line2d_2">
      <g>
       <use xlink:href="#ma09b64c90c" x="145.208929" y="246.7" style="stroke: #000000; stroke-width: 0.8"/>
      </g>
     </g>
     <g id="text_2">
      <!-- 0.5 -->
      <g transform="translate(137.257366 261.298437) scale(0.1 -0.1)">
       <defs>
        <path id="DejaVuSans-35" d="M 691 4666 
L 3169 4666 
L 3169 4134 
L 1269 4134 
L 1269 2991 
Q 1406 3038 1543 3061 
Q 1681 3084 1819 3084 
Q 2600 3084 3056 2656 
Q 3513 2228 3513 1497 
Q 3513 744 3044 326 
Q 2575 -91 1722 -91 
Q 1428 -91 1123 -41 
Q 819 9 494 109 
L 494 744 
Q 775 591 1075 516 
Q 1375 441 1709 441 
Q 2250 441 2565 725 
Q 2881 1009 2881 1497 
Q 2881 1984 2565 2268 
Q 2250 2553 1709 2553 
Q 1456 2553 1204 2497 
Q 953 2441 691 2322 
L 691 4666 
z
" transform="scale(0.015625)"/>
       </defs>
       <use xlink:href="#DejaVuSans-30"/>
       <use xlink:href="#DejaVuSans-2e" transform="translate(63.623047 0)"/>
       <use xlink:href="#DejaVuSans-35" transform="translate(95.410156 0)"/>
      </g>
     </g>
    </g>
    <g id="xtick_3">
     <g id="line2d_3">
      <g>
       <use xlink:href="#ma09b64c90c" x="212.20279" y="246.7" style="stroke: #000000; stroke-width: 0.8"/>
      </g>
     </g>
     <g id="text_3">
      <!-- 1.0 -->
      <g transform="translate(204.251228 261.298437) scale(0.1 -0.1)">
       <defs>
        <path id="DejaVuSans-31" d="M 794 531 
L 1825 531 
L 1825 4091 
L 703 3866 
L 703 4441 
L 1819 4666 
L 2450 4666 
L 2450 531 
L 3481 531 
L 3481 0 
L 794 0 
L 794 531 
z
" transform="scale(0.015625)"/>
       </defs>
       <use xlink:href="#DejaVuSans-31"/>
       <use xlink:href="#DejaVuSans-2e" transform="translate(63.623047 0)"/>
       <use xlink:href="#DejaVuSans-30" transform="translate(95.410156 0)"/>
      </g>
     </g>
    </g>
    <g id="xtick_4">
     <g id="line2d_4">
      <g>
       <use xlink:href="#ma09b64c90c" x="279.196652" y="246.7" style="stroke: #000000; stroke-width: 0.8"/>
      </g>
     </g>
     <g id="text_4">
      <!-- 1.5 -->
      <g transform="translate(271.245089 261.298437) scale(0.1 -0.1)">
       <use xlink:href="#DejaVuSans-31"/>
       <use xlink:href="#DejaVuSans-2e" transform="translate(63.623047 0)"/>
       <use xlink:href="#DejaVuSans-35" transform="translate(95.410156 0)"/>
      </g>
     </g>
    </g>
    <g id="xtick_5">
     <g id="line2d_5">
      <g>
       <use xlink:href="#ma09b64c90c" x="346.190513" y="246.7" style="stroke: #000000; stroke-width: 0.8"/>
      </g>
     </g>
     <g id="text_5">
      <!-- 2.0 -->
      <g transform="translate(338.238951 261.298437) scale(0.1 -0.1)">
       <defs>
        <path id="DejaVuSans-32" d="M 1228 531 
L 3431 531 
L 3431 0 
L 469 0 
L 469 531 
Q 828 903 1448 1529 
Q 2069 2156 2228 2338 
Q 2531 2678 2651 2914 
Q 2772 3150 2772 3378 
Q 2772 3750 2511 3984 
Q 2250 4219 1831 4219 
Q 1534 4219 1204 4116 
Q 875 4013 500 3803 
L 500 4441 
Q 881 4594 1212 4672 
Q 1544 4750 1819 4750 
Q 2544 4750 2975 4387 
Q 3406 4025 3406 3419 
Q 3406 3131 3298 2873 
Q 3191 2616 2906 2266 
Q 2828 2175 2409 1742 
Q 1991 1309 1228 531 
z
" transform="scale(0.015625)"/>
       </defs>
       <use xlink:href="#DejaVuSans-32"/>
       <use xlink:href="#DejaVuSans-2e" transform="translate(63.623047 0)"/>
       <use xlink:href="#DejaVuSans-30" transform="translate(95.410156 0)"/>
      </g>
     </g>
    </g>
    <g id="xtick_6">
     <g id="line2d_6">
      <g>
       <use xlink:href="#ma09b64c90c" x="413.184375" y="246.7" style="stroke: #000000; stroke-width: 0.8"/>
      </g>
     </g>
     <g id="text_6">
      <!-- 2.5 -->
      <g transform="translate(405.232813 261.298437) scale(0.1 -0.1)">
       <use xlink:href="#DejaVuSans-32"/>
       <use xlink:href="#DejaVuSans-2e" transform="translate(63.623047 0)"/>
       <use xlink:href="#DejaVuSans-35" transform="translate(95.410156 0)"/>
      </g>
     </g>
    </g>
    <g id="text_7">
     <!-- x -->
     <g transform="translate(222.642188 274.976562) scale(0.1 -0.1)">
      <defs>
       <path id="DejaVuSans-78" d="M 3513 3500 
L 2247 1797 
L 3578 0 
L 2900 0 
L 1881 1375 
L 863 0 
L 184 0 
L 1544 1831 
L 300 3500 
L 978 3500 
L 1906 2253 
L 2834 3500 
L 3513 3500 
z
" transform="scale(0.015625)"/>
      </defs>
      <use xlink:href="#DejaVuSans-78"/>
     </g>
    </g>
   </g>
   <g id="matplotlib.axis_2">
    <g id="ytick_1">
     <g id="line2d_7">
      <defs>
       <path id="m404d63c963" d="M 0 0 
L -3.5 0 
" style="stroke: #000000; stroke-width: 0.8"/>
      </defs>
      <g>
       <use xlink:href="#m404d63c963" x="38.01875" y="233.705882" style="stroke: #000000; stroke-width: 0.8"/>
      </g>
     </g>
     <g id="text_8">
      <!-- 0 -->
      <g transform="translate(24.65625 237.505101) scale(0.1 -0.1)">
       <use xlink:href="#DejaVuSans-30"/>
      </g>
     </g>
    </g>
    <g id="ytick_2">
     <g id="line2d_8">
      <g>
       <use xlink:href="#m404d63c963" x="38.01875" y="207.717647" style="stroke: #000000; stroke-width: 0.8"/>
      </g>
     </g>
     <g id="text_9">
      <!-- 1 -->
      <g transform="translate(24.65625 211.516866) scale(0.1 -0.1)">
       <use xlink:href="#DejaVuSans-31"/>
      </g>
     </g>
    </g>
    <g id="ytick_3">
     <g id="line2d_9">
      <g>
       <use xlink:href="#m404d63c963" x="38.01875" y="181.729412" style="stroke: #000000; stroke-width: 0.8"/>
      </g>
     </g>
     <g id="text_10">
      <!-- 2 -->
      <g transform="translate(24.65625 185.528631) scale(0.1 -0.1)">
       <use xlink:href="#DejaVuSans-32"/>
      </g>
     </g>
    </g>
    <g id="ytick_4">
     <g id="line2d_10">
      <g>
       <use xlink:href="#m404d63c963" x="38.01875" y="155.741176" style="stroke: #000000; stroke-width: 0.8"/>
      </g>
     </g>
     <g id="text_11">
      <!-- 3 -->
      <g transform="translate(24.65625 159.540395) scale(0.1 -0.1)">
       <defs>
        <path id="DejaVuSans-33" d="M 2597 2516 
Q 3050 2419 3304 2112 
Q 3559 1806 3559 1356 
Q 3559 666 3084 287 
Q 2609 -91 1734 -91 
Q 1441 -91 1130 -33 
Q 819 25 488 141 
L 488 750 
Q 750 597 1062 519 
Q 1375 441 1716 441 
Q 2309 441 2620 675 
Q 2931 909 2931 1356 
Q 2931 1769 2642 2001 
Q 2353 2234 1838 2234 
L 1294 2234 
L 1294 2753 
L 1863 2753 
Q 2328 2753 2575 2939 
Q 2822 3125 2822 3475 
Q 2822 3834 2567 4026 
Q 2313 4219 1838 4219 
Q 1578 4219 1281 4162 
Q 984 4106 628 3988 
L 628 4550 
Q 988 4650 1302 4700 
Q 1616 4750 1894 4750 
Q 2613 4750 3031 4423 
Q 3450 4097 3450 3541 
Q 3450 3153 3228 2886 
Q 3006 2619 2597 2516 
z
" transform="scale(0.015625)"/>
       </defs>
       <use xlink:href="#DejaVuSans-33"/>
      </g>
     </g>
    </g>
    <g id="ytick_5">
     <g id="line2d_11">
      <g>
       <use xlink:href="#m404d63c963" x="38.01875" y="129.752941" style="stroke: #000000; stroke-width: 0.8"/>
      </g>
     </g>
     <g id="text_12">
      <!-- 4 -->
      <g transform="translate(24.65625 133.55216) scale(0.1 -0.1)">
       <defs>
        <path id="DejaVuSans-34" d="M 2419 4116 
L 825 1625 
L 2419 1625 
L 2419 4116 
z
M 2253 4666 
L 3047 4666 
L 3047 1625 
L 3713 1625 
L 3713 1100 
L 3047 1100 
L 3047 0 
L 2419 0 
L 2419 1100 
L 313 1100 
L 313 1709 
L 2253 4666 
z
" transform="scale(0.015625)"/>
       </defs>
       <use xlink:href="#DejaVuSans-34"/>
      </g>
     </g>
    </g>
    <g id="ytick_6">
     <g id="line2d_12">
      <g>
       <use xlink:href="#m404d63c963" x="38.01875" y="103.764706" style="stroke: #000000; stroke-width: 0.8"/>
      </g>
     </g>
     <g id="text_13">
      <!-- 5 -->
      <g transform="translate(24.65625 107.563925) scale(0.1 -0.1)">
       <use xlink:href="#DejaVuSans-35"/>
      </g>
     </g>
    </g>
    <g id="ytick_7">
     <g id="line2d_13">
      <g>
       <use xlink:href="#m404d63c963" x="38.01875" y="77.776471" style="stroke: #000000; stroke-width: 0.8"/>
      </g>
     </g>
     <g id="text_14">
      <!-- 6 -->
      <g transform="translate(24.65625 81.575689) scale(0.1 -0.1)">
       <defs>
        <path id="DejaVuSans-36" d="M 2113 2584 
Q 1688 2584 1439 2293 
Q 1191 2003 1191 1497 
Q 1191 994 1439 701 
Q 1688 409 2113 409 
Q 2538 409 2786 701 
Q 3034 994 3034 1497 
Q 3034 2003 2786 2293 
Q 2538 2584 2113 2584 
z
M 3366 4563 
L 3366 3988 
Q 3128 4100 2886 4159 
Q 2644 4219 2406 4219 
Q 1781 4219 1451 3797 
Q 1122 3375 1075 2522 
Q 1259 2794 1537 2939 
Q 1816 3084 2150 3084 
Q 2853 3084 3261 2657 
Q 3669 2231 3669 1497 
Q 3669 778 3244 343 
Q 2819 -91 2113 -91 
Q 1303 -91 875 529 
Q 447 1150 447 2328 
Q 447 3434 972 4092 
Q 1497 4750 2381 4750 
Q 2619 4750 2861 4703 
Q 3103 4656 3366 4563 
z
" transform="scale(0.015625)"/>
       </defs>
       <use xlink:href="#DejaVuSans-36"/>
      </g>
     </g>
    </g>
    <g id="ytick_8">
     <g id="line2d_14">
      <g>
       <use xlink:href="#m404d63c963" x="38.01875" y="51.788235" style="stroke: #000000; stroke-width: 0.8"/>
      </g>
     </g>
     <g id="text_15">
      <!-- 7 -->
      <g transform="translate(24.65625 55.587454) scale(0.1 -0.1)">
       <defs>
        <path id="DejaVuSans-37" d="M 525 4666 
L 3525 4666 
L 3525 4397 
L 1831 0 
L 1172 0 
L 2766 4134 
L 525 4134 
L 525 4666 
z
" transform="scale(0.015625)"/>
       </defs>
       <use xlink:href="#DejaVuSans-37"/>
      </g>
     </g>
    </g>
    <g id="ytick_9">
     <g id="line2d_15">
      <g>
       <use xlink:href="#m404d63c963" x="38.01875" y="25.8" style="stroke: #000000; stroke-width: 0.8"/>
      </g>
     </g>
     <g id="text_16">
      <!-- 8 -->
      <g transform="translate(24.65625 29.599219) scale(0.1 -0.1)">
       <defs>
        <path id="DejaVuSans-38" d="M 2034 2216 
Q 1584 2216 1326 1975 
Q 1069 1734 1069 1313 
Q 1069 891 1326 650 
Q 1584 409 2034 409 
Q 2484 409 2743 651 
Q 3003 894 3003 1313 
Q 3003 1734 2745 1975 
Q 2488 2216 2034 2216 
z
M 1403 2484 
Q 997 2584 770 2862 
Q 544 3141 544 3541 
Q 544 4100 942 4425 
Q 1341 4750 2034 4750 
Q 2731 4750 3128 4425 
Q 3525 4100 3525 3541 
Q 3525 3141 3298 2862 
Q 3072 2584 2669 2484 
Q 3125 2378 3379 2068 
Q 3634 1759 3634 1313 
Q 3634 634 3220 271 
Q 2806 -91 2034 -91 
Q 1263 -91 848 271 
Q 434 634 434 1313 
Q 434 1759 690 2068 
Q 947 2378 1403 2484 
z
M 1172 3481 
Q 1172 3119 1398 2916 
Q 1625 2713 2034 2713 
Q 2441 2713 2670 2916 
Q 2900 3119 2900 3481 
Q 2900 3844 2670 4047 
Q 2441 4250 2034 4250 
Q 1625 4250 1398 4047 
Q 1172 3844 1172 3481 
z
" transform="scale(0.015625)"/>
       </defs>
       <use xlink:href="#DejaVuSans-38"/>
      </g>
     </g>
    </g>
    <g id="text_17">
     <!-- y -->
     <g transform="translate(18.576563 139.209375) rotate(-90) scale(0.1 -0.1)">
      <defs>
       <path id="DejaVuSans-79" d="M 2059 -325 
Q 1816 -950 1584 -1140 
Q 1353 -1331 966 -1331 
L 506 -1331 
L 506 -850 
L 844 -850 
Q 1081 -850 1212 -737 
Q 1344 -625 1503 -206 
L 1606 56 
L 191 3500 
L 800 3500 
L 1894 763 
L 2988 3500 
L 3597 3500 
L 2059 -325 
z
" transform="scale(0.015625)"/>
      </defs>
      <use xlink:href="#DejaVuSans-79"/>
     </g>
    </g>
   </g>
   <g id="LineCollection_1">
    <path d="M 38.01875 243.143875 
L 39.655518 243.260594 
L 49.98409 244.025425 
L 60.300778 244.850493 
L 70.604678 245.740383 
L 80.894821 246.7 
L 80.894821 246.7 
" clip-path="url(#pd4dc569b83)" style="fill: none; stroke: #808080; stroke-width: 0.7"/>
    <path d="M 51.48273 241.286157 
L 61.842113 241.894816 
L 72.191977 242.551721 
L 82.531589 243.260594 
L 92.860161 244.025425 
L 103.176849 244.850493 
L 113.480749 245.740383 
L 123.770893 246.7 
L 123.770893 246.7 
" clip-path="url(#pd4dc569b83)" style="fill: none; stroke: #808080; stroke-width: 0.7"/>
    <path d="M 94.358802 241.286157 
L 104.718184 241.894816 
L 115.068048 242.551721 
L 125.40766 243.260594 
L 135.736233 244.025425 
L 146.052921 244.850493 
L 156.356821 245.740383 
L 166.646964 246.7 
L 166.646964 246.7 
" clip-path="url(#pd4dc569b83)" style="fill: none; stroke: #808080; stroke-width: 0.7"/>
    <path d="M 137.234873 241.286157 
L 147.594256 241.894816 
L 157.94412 242.551721 
L 168.283732 243.260594 
L 178.612304 244.025425 
L 188.928992 244.850493 
L 199.232892 245.740383 
L 209.523036 246.7 
L 209.523036 246.7 
" clip-path="url(#pd4dc569b83)" style="fill: none; stroke: #808080; stroke-width: 0.7"/>
    <path d="M 180.110944 241.286157 
L 190.470327 241.894816 
L 200.820191 242.551721 
L 211.159803 243.260594 
L 221.488375 244.025425 
L 231.805063 244.850493 
L 242.108963 245.740383 
L 252.399107 246.7 
L 252.399107 246.7 
" clip-path="url(#pd4dc569b83)" style="fill: none; stroke: #808080; stroke-width: 0.7"/>
    <path d="M 222.987016 241.286157 
L 233.346398 241.894816 
L 243.696263 242.551721 
L 254.035875 243.260594 
L 264.364447 244.025425 
L 274.681135 244.850493 
L 284.985035 245.740383 
L 295.275179 246.7 
L 295.275179 246.7 
" clip-path="url(#pd4dc569b83)" style="fill: none; stroke: #808080; stroke-width: 0.7"/>
    <path d="M 265.863087 241.286157 
L 276.22247 241.894816 
L 286.572334 242.551721 
L 296.911946 243.260594 
L 307.240518 244.025425 
L 317.557206 244.850493 
L 327.861106 245.740383 
L 338.15125 246.7 
L 338.15125 246.7 
" clip-path="url(#pd4dc569b83)" style="fill: none; stroke: #808080; stroke-width: 0.7"/>
    <path d="M 308.739159 241.286157 
L 319.098541 241.894816 
L 329.448406 242.551721 
L 339.788018 243.260594 
L 350.11659 244.025425 
L 360.433278 244.850493 
L 370.737178 245.740383 
L 381.027321 246.7 
L 381.027321 246.7 
" clip-path="url(#pd4dc569b83)" style="fill: none; stroke: #808080; stroke-width: 0.7"/>
    <path d="M 38.01875 51.045714 
L 38.01875 51.045714 
L 42.0983 45.399573 
L 46.074879 39.727971 
L 49.95274 34.03265 
L 53.735886 28.315293 
L 55.376752 25.8 
" clip-path="url(#pd4dc569b83)" style="fill: none; stroke: #808080; stroke-width: 0.7"/>
    <path d="M 38.01875 63.668571 
L 38.01875 63.668571 
L 42.347096 58.086973 
L 46.562094 52.475454 
L 50.668506 46.836064 
L 54.670868 41.170698 
L 58.57342 35.481228 
L 62.38022 29.769363 
L 64.98812 25.8 
" clip-path="url(#pd4dc569b83)" style="fill: none; stroke: #808080; stroke-width: 0.7"/>
    <path d="M 38.01875 76.291429 
L 38.01875 76.291429 
L 42.624466 70.787457 
L 47.105466 65.247825 
L 51.466808 59.675236 
L 55.713485 54.072022 
L 59.850316 48.440277 
L 63.881798 42.782075 
L 67.812229 37.099334 
L 71.645805 31.393686 
L 75.350403 25.8 
" clip-path="url(#pd4dc569b83)" style="fill: none; stroke: #808080; stroke-width: 0.7"/>
    <path d="M 38.01875 88.914286 
L 38.01875 88.914286 
L 42.934813 83.504386 
L 47.713542 78.051875 
L 52.360496 72.559896 
L 56.880961 67.031474 
L 61.280162 61.469255 
L 65.563201 55.875572 
L 69.734845 50.252734 
L 73.799648 44.602886 
L 77.762067 38.927866 
L 81.626358 33.229349 
L 85.396506 27.508988 
L 86.507014 25.8 
" clip-path="url(#pd4dc569b83)" style="fill: none; stroke: #808080; stroke-width: 0.7"/>
    <path d="M 38.01875 101.537143 
L 38.01875 101.537143 
L 43.283285 96.242078 
L 48.396605 90.896023 
L 53.364748 85.502612 
L 58.193496 80.06533 
L 62.888335 74.587571 
L 67.454727 69.072321 
L 71.898062 63.522191 
L 76.223364 57.939778 
L 80.435451 52.327496 
L 84.539067 46.687403 
L 88.538752 41.021378 
L 92.438739 35.331291 
L 96.243077 29.618854 
L 98.750241 25.8 
" clip-path="url(#pd4dc569b83)" style="fill: none; stroke: #808080; stroke-width: 0.7"/>
    <path d="M 38.01875 114.16 
L 38.01875 114.16 
L 43.674815 109.007083 
L 49.165511 103.792359 
L 54.496518 98.520647 
L 59.673976 93.196011 
L 64.7038 87.822366 
L 69.591633 82.403528 
L 74.343182 76.942837 
L 78.964112 71.443229 
L 83.459672 65.907673 
L 87.834943 60.338899 
L 92.094999 54.739192 
L 96.244648 49.110714 
L 100.288399 43.455576 
L 104.230601 37.775676 
L 108.075481 32.072652 
L 111.827032 26.348057 
L 112.181168 25.8 
" clip-path="url(#pd4dc569b83)" style="fill: none; stroke: #808080; stroke-width: 0.7"/>
    <path d="M 38.01875 126.782857 
L 38.01875 126.782857 
L 44.114888 121.807459 
L 50.031563 116.757135 
L 55.774143 111.637441 
L 61.3481 106.45373 
L 66.759634 101.210468 
L 72.014621 95.912129 
L 77.118785 90.563016 
L 82.078099 85.16681 
L 86.89839 79.726921 
L 91.585133 74.246726 
L 96.14374 68.729243 
L 100.579594 63.177064 
L 104.897737 57.592734 
L 109.102974 51.978657 
L 113.200012 46.336911 
L 117.193382 40.669362 
L 121.087323 34.977844 
L 124.885869 29.264063 
L 127.156158 25.8 
" clip-path="url(#pd4dc569b83)" style="fill: none; stroke: #808080; stroke-width: 0.7"/>
    <path d="M 38.01875 139.405714 
L 38.01875 139.405714 
L 44.608782 134.653635 
L 51.006166 129.811403 
L 57.216033 124.884695 
L 63.242979 119.879707 
L 69.092022 114.802356 
L 74.769358 109.657453 
L 80.280527 104.450194 
L 85.631214 99.185434 
L 90.827691 93.867149 
L 95.875749 88.499425 
L 100.781048 83.086117 
L 105.549414 77.630487 
L 110.186447 72.135597 
L 114.697418 66.604452 
L 119.087495 61.039734 
L 123.361772 55.443755 
L 127.525031 49.818766 
L 131.581808 44.166901 
L 135.53652 38.490021 
L 139.393412 32.789786 
L 143.15647 27.067811 
L 143.978541 25.8 
" clip-path="url(#pd4dc569b83)" style="fill: none; stroke: #808080; stroke-width: 0.7"/>
    <path d="M 38.01875 152.028571 
L 38.01875 152.028571 
L 45.158211 147.560513 
L 52.096931 142.983879 
L 58.836669 138.305709 
L 65.381413 133.532022 
L 71.734688 128.669505 
L 77.901203 123.724203 
L 83.886153 118.701857 
L 89.694633 113.608297 
L 95.332533 108.448567 
L 100.805752 103.227493 
L 106.119977 97.949852 
L 111.281216 92.619799 
L 116.295489 87.241106 
L 121.168427 81.817552 
L 125.905636 76.352545 
L 130.512775 70.848982 
L 134.995137 65.309731 
L 139.357782 59.737499 
L 143.605711 54.134613 
L 147.743744 48.50317 
L 151.776376 42.845251 
L 155.707908 37.162776 
L 159.542542 31.457374 
L 163.290498 25.8 
" clip-path="url(#pd4dc569b83)" style="fill: none; stroke: #808080; stroke-width: 0.7"/>
    <path d="M 38.01875 158.34 
L 38.01875 158.34 
L 45.452708 154.042543 
L 52.684647 149.626725 
L 59.714814 145.099487 
L 66.545735 140.467057 
" clip-path="url(#pd4dc569b83)" style="fill: none; stroke: #808080; stroke-width: 0.7"/>
    <path d="M 38.01875 164.651429 
L 38.01875 164.651429 
L 45.759703 160.546678 
L 53.299887 156.313807 
L 60.637855 151.959315 
L 67.774116 147.489524 
L 74.709679 142.911256 
L 81.446319 138.231545 
L 87.988032 133.456412 
L 94.338356 128.592538 
L 100.501967 123.645994 
L 106.484107 118.622489 
L 112.289874 113.527845 
L 117.925135 108.367125 
L 123.395815 103.145129 
L 128.707601 97.866625 
L 133.866485 92.535786 
L 138.878498 87.156359 
L 143.749272 81.732121 
L 148.484397 76.266487 
L 153.089533 70.762348 
L 157.569977 65.222561 
L 161.930788 59.649827 
L 166.176955 54.046479 
L 170.313295 48.41461 
L 174.344308 42.756293 
L 178.27429 37.073444 
L 182.107434 31.367695 
L 185.794345 25.8 
" clip-path="url(#pd4dc569b83)" style="fill: none; stroke: #808080; stroke-width: 0.7"/>
    <path d="M 38.01875 170.962857 
L 38.01875 170.962857 
L 46.077497 167.075683 
L 53.939816 163.051167 
L 61.602532 158.894922 
L 69.063226 154.61335 
L 76.321802 150.212598 
L 83.378315 145.699626 
L 90.23521 141.08064 
L 96.894716 136.362564 
L 103.360506 131.55179 
L 109.636908 126.654522 
L 115.728317 121.677102 
L 121.64037 116.624931 
L 127.378489 111.503513 
L 132.948154 106.318192 
L 138.355528 101.073461 
L 143.60652 95.773752 
L 148.706854 90.42336 
L 153.662475 85.025985 
L 158.479228 79.585006 
L 163.162585 74.103791 
L 167.717935 68.585374 
L 172.150659 63.032337 
L 176.465807 57.447206 
L 180.668178 51.832378 
L 184.762465 46.18994 
L 188.753193 40.521753 
L 192.644603 34.829637 
L 196.440727 29.115293 
L 198.611934 25.8 
" clip-path="url(#pd4dc569b83)" style="fill: none; stroke: #808080; stroke-width: 0.7"/>
    <path d="M 38.01875 177.274286 
L 38.01875 177.274286 
L 46.40149 173.633299 
L 54.596619 169.846713 
L 62.598506 165.919113 
L 70.402601 161.855919 
L 78.006442 157.662733 
" clip-path="url(#pd4dc569b83)" style="fill: none; stroke: #808080; stroke-width: 0.7"/>
    <path d="M 38.01875 189.897143 
L 38.01875 189.897143 
L 47.051395 186.84428 
L 55.929181 183.636458 
L 64.640768 180.275235 
L 73.17886 176.762007 
L 81.534839 173.100051 
L 89.70236 169.293103 
L 97.675962 165.345863 
L 105.451374 161.263792 
L 113.026291 157.052573 
L 120.398965 152.718703 
L 127.56988 148.268371 
L 134.539723 143.708467 
L 141.310523 139.045745 
L 147.885665 134.286562 
L 154.268545 129.43766 
L 160.464186 124.504813 
L 166.477337 119.494101 
L 172.313038 114.411418 
L 177.97742 109.26162 
L 183.476118 104.049805 
L 188.814809 98.780807 
L 193.999693 93.458651 
L 199.036637 88.087317 
L 203.93129 82.670639 
L 208.689406 77.211925 
L 213.316627 71.714156 
L 217.818208 66.180317 
L 222.199261 60.613127 
L 226.46487 55.014876 
L 230.619833 49.38776 
L 234.668671 43.733901 
L 238.615759 38.05518 
L 242.46533 32.353245 
L 246.221375 26.629674 
L 246.758211 25.8 
" clip-path="url(#pd4dc569b83)" style="fill: none; stroke: #808080; stroke-width: 0.7"/>
    <path d="M 38.01875 196.208571 
L 38.01875 196.208571 
L 47.365404 193.501622 
L 56.580314 190.641527 
L 65.650078 187.627801 
L 74.567937 184.458917 
L 83.322306 181.136156 
L 91.905468 177.660724 
L 100.308511 174.035646 
L 108.524598 170.264515 
L 116.547967 166.351833 
L 124.373855 162.302982 
L 131.999684 158.123504 
L 139.423264 153.81988 
L 146.644865 149.398216 
L 153.664811 144.865443 
L 160.485656 140.227797 
L 167.109832 135.492149 
L 173.540597 130.665269 
L 179.782929 125.752925 
L 185.841326 120.761387 
L 191.721107 115.69632 
L 197.428095 110.562874 
L 202.967798 105.366316 
L 208.346136 100.111326 
L 213.569248 94.802057 
L 218.64285 89.442738 
L 223.572693 84.037201 
L 228.364689 78.588683 
L 233.024345 73.100431 
L 237.556962 67.575494 
L 241.967841 62.016474 
L 246.262084 56.425747 
L 250.444451 50.805675 
L 254.519526 45.158409 
L 258.491807 39.48577 
L 262.365553 33.789476 
L 266.144757 28.071204 
L 267.624631 25.8 
" clip-path="url(#pd4dc569b83)" style="fill: none; stroke: #808080; stroke-width: 0.7"/>
    <path d="M 38.01875 202.52 
L 38.01875 202.52 
L 47.657873 200.195779 
L 57.191168 197.7267 
L 66.607993 195.109183 
L 75.901087 192.33937 
L 85.056695 189.416157 
L 94.065521 186.33818 
L 102.917619 183.105396 
L 111.601808 179.71954 
L 120.111065 176.182132 
L 128.436963 172.496604 
L 136.573468 168.666781 
L 144.515314 164.69749 
L 152.258543 160.594237 
L 159.80102 156.362796 
L 167.141279 152.009665 
L 174.279867 147.541134 
L 181.217724 142.964054 
L 187.956617 138.285462 
L 194.500532 133.511381 
L 200.853002 128.648493 
L 207.018724 123.702852 
L 213.002906 118.680189 
L 218.810645 113.586333 
L 224.447825 108.426333 
L 229.92035 103.205007 
L 235.233909 97.92713 
L 240.394505 92.596863 
L 245.408161 87.217969 
L 250.280508 81.794229 
L 255.017148 76.329051 
L 259.62374 70.82533 
L 264.105578 65.285933 
L 268.467722 59.713564 
L 272.71517 54.110551 
L 276.852741 48.478992 
L 280.88493 42.820965 
L 284.816039 37.138387 
L 288.650266 31.43289 
L 292.381551 25.8 
" clip-path="url(#pd4dc569b83)" style="fill: none; stroke: #808080; stroke-width: 0.7"/>
    <path d="M 38.01875 208.831429 
L 38.01875 208.831429 
L 47.919895 206.925394 
L 57.742095 204.890248 
L 67.480305 202.719826 
L 77.128345 200.408287 
L 86.671802 197.952161 
L 96.099141 195.348043 
L 105.40397 192.591779 
L 114.572482 189.682172 
L 123.594466 186.618068 
L 132.460751 183.399071 
L 141.160069 180.026817 
L 149.685246 176.502759 
L 158.027749 172.830243 
L 166.181373 169.013046 
L 174.140743 165.055923 
L 181.901731 160.964358 
L 189.462105 156.744074 
L 196.820245 152.401568 
L 203.976696 147.943055 
L 210.932248 143.375412 
L 217.688734 138.705571 
L 224.249867 133.939705 
L 230.619104 129.084528 
L 236.80132 124.14594 
L 242.801474 119.129866 
L 248.624628 114.04217 
L 254.276804 108.887794 
L 259.763757 103.671711 
L 265.091171 98.398729 
L 270.265156 93.072933 
L 275.29165 87.698207 
L 280.176294 82.27836 
L 284.924773 76.816745 
L 289.54275 71.316289 
L 294.035483 65.779942 
L 298.408051 60.210428 
L 302.665511 54.61004 
L 306.812675 48.980925 
L 310.854047 43.325189 
L 314.793965 37.644738 
L 318.636652 31.941205 
L 322.3861 26.216131 
L 322.654819 25.8 
" clip-path="url(#pd4dc569b83)" style="fill: none; stroke: #808080; stroke-width: 0.7"/>
    <path d="M 38.01875 215.142857 
L 38.01875 215.142857 
L 48.135131 213.688396 
L 58.202976 212.127772 
L 68.219275 210.4544 
L 78.180907 208.661453 
L 88.075707 206.743667 
L 97.890346 204.696344 
L 107.620631 202.513158 
L 117.259449 200.188503 
L 126.792396 197.718981 
L 136.208862 195.101005 
L 145.501554 192.330729 
L 154.656722 189.407051 
L 163.665098 186.3286 
L 172.516711 183.095345 
L 181.200382 179.709025 
L 189.709096 176.17116 
L 198.034427 172.485188 
L 206.170348 168.654934 
L 214.111595 164.685227 
L 221.854219 160.581576 
L 229.396085 156.349754 
L 236.735734 151.996261 
L 243.873702 147.527394 
L 250.810948 142.949997 
L 257.549241 138.271108 
L 264.09257 133.496747 
L 270.444468 128.633596 
L 276.609628 123.687714 
L 282.593267 118.664828 
L 288.400481 113.570761 
L 294.037149 108.410569 
L 299.509183 103.189065 
L 304.82227 97.911022 
L 309.98241 92.580602 
L 314.995629 87.201566 
L 319.867557 81.777693 
L 324.603793 76.312393 
L 329.209997 70.808562 
L 333.691464 65.269061 
L 338.053253 59.696594 
L 342.30036 54.093492 
L 346.437603 48.461851 
L 350.469479 42.803746 
L 354.400288 37.121097 
L 358.234227 31.415533 
L 361.953694 25.8 
" clip-path="url(#pd4dc569b83)" style="fill: none; stroke: #808080; stroke-width: 0.7"/>
    <path d="M 38.01875 221.454286 
L 38.01875 221.454286 
L 48.296488 220.478464 
L 58.552102 219.427272 
L 68.783993 218.295261 
L 78.990465 217.076652 
L 89.167354 215.76563 
L 99.304666 214.35695 
L 109.394761 212.844994 
L 119.434681 211.223289 
L 129.421355 209.485117 
L 139.346983 207.624419 
L 149.198378 205.636294 
L 158.967204 203.515184 
L 168.649498 201.254703 
L 178.232559 198.850734 
L 187.702042 196.300327 
L 197.052907 193.598744 
L 206.272501 190.744059 
L 215.347402 187.735751 
L 224.270812 184.572259 
L 233.03111 181.254829 
L 241.620524 177.784638 
L 250.030098 174.164678 
L 258.252929 170.398522 
L 266.283213 166.490641 
L 274.116118 162.446408 
L 281.749028 158.271345 
L 289.179692 153.97193 
L 296.408349 149.554256 
L 303.435272 145.025261 
L 310.262994 140.391175 
L 316.893909 135.658879 
L 323.331353 130.83507 
L 329.580182 125.925601 
L 335.644874 120.936755 
L 341.530808 115.874147 
L 347.24373 110.742994 
L 352.789146 105.548578 
L 358.173019 100.295544 
L 363.401447 94.988097 
L 368.480145 89.63048 
L 373.414902 84.226499 
L 378.211629 78.779405 
L 382.875814 73.292482 
L 387.412765 67.768788 
L 391.827808 62.210908 
L 396.126037 56.621249 
L 400.312218 51.002177 
L 404.390955 45.355831 
L 408.366754 39.684041 
L 412.243868 33.988543 
L 413.184375 32.586658 
" clip-path="url(#pd4dc569b83)" style="fill: none; stroke: #808080; stroke-width: 0.7"/>
    <path d="M 38.01875 227.765714 
L 38.01875 227.765714 
L 48.39636 227.28782 
L 58.769009 226.771734 
L 69.136305 226.214448 
L 79.497827 225.612721 
L 89.853122 224.963067 
L 100.201704 224.261736 
L 110.541118 223.504842 
L 120.86567 222.688507 
L 131.171532 221.808499 
L 141.457326 220.86012 
L 151.721581 219.838366 
L 161.962736 218.737915 
L 172.179132 217.553115 
L 182.369009 216.277972 
L 192.523343 214.907141 
L 202.631825 213.435402 
L 212.691277 211.856419 
L 222.698669 210.163565 
L 232.649844 208.350165 
L 242.531739 206.411165 
L 252.332575 204.341612 
L 262.048396 202.135129 
L 271.670394 199.786549 
L 281.18418 197.292607 
L 290.580831 194.649377 
L 299.851422 191.853581 
L 308.982299 188.904292 
L 317.965917 185.799737 
L 326.790852 182.540558 
L 335.446093 179.128676 
L 343.924908 175.565738 
L 352.21907 171.855343 
L 360.32288 168.001405 
L 368.23127 164.008882 
L 375.940615 159.883327 
L 383.448956 155.630604 
L 390.755121 151.257216 
L 397.859109 146.76995 
L 404.762827 142.1752 
L 411.468238 137.479955 
L 413.184375 136.247477 
" clip-path="url(#pd4dc569b83)" style="fill: none; stroke: #808080; stroke-width: 0.7"/>
    <path d="M 38.01875 234.077143 
L 38.01875 234.077143 
L 48.428942 234.107109 
L 58.839052 234.139493 
L 69.249075 234.17449 
L 79.659002 234.212312 
L 90.068827 234.253186 
L 100.47854 234.297359 
L 110.888133 234.345096 
L 121.297597 234.396685 
L 131.70692 234.452438 
L 142.116092 234.512689 
L 152.5251 234.577801 
L 162.933931 234.648167 
L 173.342571 234.72421 
L 183.751005 234.806388 
L 194.159215 234.895196 
L 204.567183 234.991169 
L 214.974891 235.094883 
L 225.382317 235.206963 
L 235.789439 235.328083 
L 246.196232 235.458972 
L 256.602669 235.600417 
L 267.008722 235.753268 
L 277.414359 235.918445 
L 287.819549 236.096939 
L 298.224253 236.289824 
L 308.628434 236.498257 
L 319.032049 236.723492 
L 329.435052 236.966879 
L 339.837395 237.229879 
L 350.239024 237.51407 
L 360.639882 237.821156 
L 371.039907 238.152977 
L 381.439032 238.511521 
L 391.837184 238.898935 
L 402.232908 239.31748 
L 412.623191 239.769512 
L 413.184375 239.794909 
" clip-path="url(#pd4dc569b83)" style="fill: none; stroke: #808080; stroke-width: 0.7"/>
    <path d="M 350.413373 233.957733 
L 360.82389 233.978059 
L 371.234351 234.000025 
L 381.644753 234.023764 
L 392.05509 234.049418 
L 402.465357 234.077143 
L 412.875549 234.107109 
L 413.184375 234.108033 
" clip-path="url(#pd4dc569b83)" style="fill: none; stroke: #808080; stroke-width: 0.7"/>
    <path d="M 308.895665 230.749001 
L 319.304364 230.510406 
L 329.710571 230.252622 
L 340.114085 229.974117 
L 350.514693 229.673238 
L 360.912162 229.348202 
L 371.306243 228.997086 
L 381.696666 228.617818 
L 392.083142 228.208163 
L 402.465357 227.765714 
L 412.842967 227.28782 
L 413.184375 227.271466 
" clip-path="url(#pd4dc569b83)" style="fill: none; stroke: #808080; stroke-width: 0.7"/>
    <path d="M 371.514903 223.978903 
L 381.849382 223.199821 
L 392.166971 222.359763 
L 402.465357 221.454286 
L 412.743095 220.478464 
L 413.184375 220.434901 
" clip-path="url(#pd4dc569b83)" style="fill: none; stroke: #808080; stroke-width: 0.7"/>
    <path d="M 114.140428 230.807332 
L 124.549737 230.57343 
L 134.956602 230.320713 
L 145.360827 230.047681 
L 155.762202 229.75271 
L 166.1605 229.434053 
L 176.555476 229.089824 
L 186.946865 228.71799 
L 197.334383 228.316358 
L 207.717723 227.882568 
L 218.096555 227.414074 
L 228.470522 226.908135 
L 238.83924 226.361798 
L 249.202297 225.771887 
L 259.559249 225.134981 
L 269.909617 224.4474 
L 280.252013 223.705253 
L 290.581192 222.904679 
L 300.892026 222.041608 
L 311.183158 221.11142 
L 321.453145 220.109191 
L 331.700448 219.029686 
L 341.923434 217.867338 
L 352.120371 216.616246 
L 362.284027 215.270895 
L 372.404773 213.825982 
L 382.477262 212.275514 
L 392.498493 210.612931 
L 402.465357 208.831429 
L 412.366503 206.925394 
L 413.184375 206.761924 
" clip-path="url(#pd4dc569b83)" style="fill: none; stroke: #808080; stroke-width: 0.7"/>
    <path d="M 363.063079 210.458988 
L 373.024939 208.666542 
L 382.919713 206.74935 
L 392.734702 204.702589 
L 402.465357 202.52 
L 412.104481 200.195779 
L 413.184375 199.925699 
" clip-path="url(#pd4dc569b83)" style="fill: none; stroke: #808080; stroke-width: 0.7"/>
    <path d="M 283.575536 218.252836 
L 293.781097 217.031124 
L 303.956482 215.716864 
L 314.092219 214.304741 
L 324.180644 212.789132 
L 334.218796 211.163558 
L 344.203598 209.421293 
L 354.126613 207.556395 
L 363.97527 205.563862 
L 373.74123 203.438135 
L 383.420528 201.172828 
L 392.999814 198.763998 
L 402.465357 196.208571 
L 411.812012 193.501622 
L 413.184375 193.089831 
" clip-path="url(#pd4dc569b83)" style="fill: none; stroke: #808080; stroke-width: 0.7"/>
    <path d="M 374.536071 198.13373 
L 383.972041 195.540611 
L 393.286233 192.795561 
L 402.465357 189.897143 
L 411.498002 186.84428 
L 413.184375 186.254479 
" clip-path="url(#pd4dc569b83)" style="fill: none; stroke: #808080; stroke-width: 0.7"/>
    <path d="M 178.511209 223.081593 
L 188.826091 222.232314 
L 199.12157 221.316933 
L 209.396221 220.330594 
L 219.648526 219.26813 
L 229.876874 218.124046 
L 240.079552 216.892513 
L 250.251015 215.567857 
L 260.381738 214.144767 
L 270.464833 212.617497 
L 280.497323 210.979542 
L 290.476123 209.224147 
L 300.391745 207.34556 
L 310.231583 205.338823 
L 319.988293 203.198198 
L 329.65757 200.917379 
L 339.225609 198.492583 
L 348.678394 195.920895 
L 358.01137 193.197534 
L 367.211171 190.320917 
L 376.265072 187.290466 
L 385.165577 184.105018 
L 393.901653 180.765811 
L 402.465357 177.274286 
L 410.848097 173.633299 
L 413.184375 172.585843 
" clip-path="url(#pd4dc569b83)" style="fill: none; stroke: #808080; stroke-width: 0.7"/>
    <path d="M 315.15938 197.696299 
L 324.574936 195.077162 
L 333.866343 192.305802 
L 343.020402 189.380956 
L 352.027651 186.301317 
L 360.877832 183.066962 
L 369.56021 179.679479 
L 378.067388 176.140545 
L 386.391297 172.453458 
L 394.525618 168.622183 
L 402.465357 164.651429 
L 410.206311 160.546678 
L 413.184375 158.920613 
" clip-path="url(#pd4dc569b83)" style="fill: none; stroke: #808080; stroke-width: 0.7"/>
    <path d="M 378.9592 170.460429 
L 386.992827 166.554877 
L 394.829027 162.512931 
L 402.465357 158.34 
L 409.899315 154.042543 
L 413.184375 152.089387 
" clip-path="url(#pd4dc569b83)" style="fill: none; stroke: #808080; stroke-width: 0.7"/>
    <path d="M 371.893813 168.683096 
L 379.836628 164.714477 
L 387.580739 160.611918 
L 395.124194 156.381086 
L 402.465357 152.028571 
L 409.604818 147.560513 
L 413.184375 145.259092 
" clip-path="url(#pd4dc569b83)" style="fill: none; stroke: #808080; stroke-width: 0.7"/>
    <path d="M 352.60043 164.347343 
L 360.326433 160.232864 
L 367.851643 155.990658 
L 375.174582 151.627314 
L 382.295598 147.149329 
L 389.216162 142.563298 
L 395.93805 137.876291 
L 402.465357 133.094286 
L 408.801584 128.223928 
L 413.184375 124.773572 
" clip-path="url(#pd4dc569b83)" style="fill: none; stroke: #808080; stroke-width: 0.7"/>
    <path d="M 216.373823 205.443663 
L 226.13484 203.309975 
L 235.808964 201.036334 
L 245.382248 198.618966 
L 254.840969 196.054844 
L 264.180581 193.339144 
L 273.387555 190.470274 
L 282.448914 187.447687 
L 291.357473 184.270065 
L 300.102148 180.93859 
L 308.674914 177.454664 
L 317.067282 173.821222 
L 325.272209 170.042026 
L 333.284273 166.121494 
L 341.098587 162.065143 
L 348.712832 157.878443 
L 356.124751 153.567973 
L 363.334801 149.139776 
L 370.343272 144.600845 
L 377.152777 139.957418 
L 383.765839 135.216327 
L 390.185629 130.384428 
L 396.417305 125.46737 
L 402.465357 120.471429 
L 408.334993 115.402307 
L 413.184375 111.120578 
" clip-path="url(#pd4dc569b83)" style="fill: none; stroke: #808080; stroke-width: 0.7"/>
    <path d="M 322.786608 164.247064 
L 330.50768 160.12934 
L 338.027922 155.884037 
L 345.3459 151.517744 
L 352.461882 147.037034 
L 359.377478 142.448431 
L 366.094495 137.759001 
L 372.617036 132.974722 
L 378.948663 128.102277 
L 385.093885 123.147891 
L 391.058234 118.117047 
L 396.846815 113.01555 
L 402.465357 107.848571 
L 407.919925 102.620721 
L 413.184375 97.470315 
" clip-path="url(#pd4dc569b83)" style="fill: none; stroke: #808080; stroke-width: 0.7"/>
    <path d="M 128.007831 215.823907 
L 138.147173 214.41967 
L 148.239432 212.912446 
L 158.281655 211.295777 
L 168.270774 209.562955 
L 178.199109 207.707907 
L 188.054113 205.725597 
L 197.826732 203.610595 
L 207.513002 201.356517 
L 217.100377 198.959196 
L 226.575118 196.415492 
L 235.93142 193.720837 
L 245.1568 190.873226 
L 254.238345 187.871922 
L 263.168709 184.715489 
L 271.936681 181.404959 
L 280.534004 177.941628 
L 288.952033 174.328293 
L 297.183379 170.568675 
L 305.22241 166.667109 
L 313.064297 162.628907 
L 320.706369 158.459555 
L 328.146122 154.165624 
L 335.383897 149.753107 
L 342.419781 145.229022 
L 349.256379 140.599531 
L 355.895954 135.871581 
L 362.341985 131.051751 
L 368.599184 126.145986 
L 374.671965 121.16062 
L 380.565806 116.101188 
L 386.286365 110.972986 
L 391.839117 105.781333 
L 397.2301 100.530819 
L 402.465357 95.225714 
L 407.55058 89.870276 
L 412.491628 84.468287 
L 413.184375 83.696695 
" clip-path="url(#pd4dc569b83)" style="fill: none; stroke: #808080; stroke-width: 0.7"/>
    <path d="M 232.534313 189.39408 
L 241.542211 186.315124 
L 250.393089 183.081448 
L 259.076213 179.694635 
L 267.584174 176.156358 
L 275.9089 172.469911 
L 284.044062 168.639257 
L 291.984664 164.669101 
L 299.726532 160.565065 
L 307.267727 156.332825 
L 314.606632 151.978969 
L 321.743855 147.50976 
L 328.680411 142.932006 
L 335.417985 138.252801 
L 341.96064 133.478119 
L 348.311852 128.614681 
L 354.476338 123.668533 
L 360.459337 118.645383 
L 366.265917 113.551079 
L 371.901969 108.390667 
L 377.373414 103.168949 
L 382.685927 97.890711 
L 387.845512 92.560112 
L 392.8582 87.180904 
L 397.729616 81.756874 
L 402.465357 76.291429 
L 407.071073 70.787457 
L 411.552073 65.247825 
L 413.184375 63.195589 
" clip-path="url(#pd4dc569b83)" style="fill: none; stroke: #808080; stroke-width: 0.7"/>
    <path d="M 390.632484 49.148994 
L 394.676943 43.494035 
L 398.619825 37.8143 
L 402.465357 32.111429 
L 406.217528 26.386975 
L 406.596883 25.8 
" clip-path="url(#pd4dc569b83)" style="fill: none; stroke: #808080; stroke-width: 0.7"/>
    <path d="M 159.611049 198.025611 
L 169.041965 195.426051 
L 178.350514 192.674485 
L 187.523429 189.769519 
L 196.549903 186.710151 
L 205.420812 183.495941 
L 214.125299 180.128335 
L 222.65574 176.608912 
L 231.003918 172.940842 
L 239.163255 169.12802 
L 247.128608 165.175051 
L 254.895558 161.087525 
L 262.462034 156.871045 
L 269.826198 152.532198 
L 276.988705 148.07711 
L 283.950187 143.512734 
L 290.712617 138.845892 
L 297.279596 134.082814 
L 303.654497 129.230271 
L 309.842287 124.29409 
L 315.847849 119.280247 
L 321.676209 114.194647 
L 327.333448 109.042181 
L 332.825278 103.827871 
L 338.157366 98.556548 
L 343.335867 93.232267 
L 348.366694 87.858948 
L 353.255482 82.440417 
L 358.007951 76.980007 
L 362.629764 71.480655 
L 367.126168 65.945335 
L 371.502246 60.376785 
L 375.763077 54.777282 
L 379.913466 49.148994 
L 383.957925 43.494035 
L 387.900807 37.8143 
L 391.746339 32.111429 
L 395.49851 26.386975 
L 395.877865 25.8 
" clip-path="url(#pd4dc569b83)" style="fill: none; stroke: #808080; stroke-width: 0.7"/>
    <path d="M 369.194448 49.148994 
L 373.238908 43.494035 
L 377.181789 37.8143 
L 381.027321 32.111429 
L 384.779492 26.386975 
L 385.158847 25.8 
" clip-path="url(#pd4dc569b83)" style="fill: none; stroke: #808080; stroke-width: 0.7"/>
    <path d="M 262.512151 143.512734 
L 269.274581 138.845892 
L 275.84156 134.082814 
L 282.216461 129.230271 
L 288.404251 124.29409 
L 294.409814 119.280247 
L 300.238173 114.194647 
L 305.895412 109.042181 
L 311.387242 103.827871 
L 316.71933 98.556548 
L 321.897831 93.232267 
L 326.928658 87.858948 
L 331.817446 82.440417 
L 336.569915 76.980007 
L 341.191728 71.480655 
L 345.688133 65.945335 
L 350.06421 60.376785 
L 354.325041 54.777282 
L 358.475431 49.148994 
L 362.51989 43.494035 
L 366.462771 37.8143 
L 370.308304 32.111429 
L 374.060474 26.386975 
L 374.439829 25.8 
" clip-path="url(#pd4dc569b83)" style="fill: none; stroke: #808080; stroke-width: 0.7"/>
    <path d="M 86.818299 202.784503 
L 96.469051 200.477337 
L 106.01596 198.025611 
L 115.446875 195.426051 
L 124.755425 192.674485 
L 133.928339 189.769519 
L 142.954814 186.710151 
L 151.825723 183.495941 
L 160.53021 180.128335 
L 169.060651 176.608912 
L 177.408828 172.940842 
L 185.568166 169.12802 
L 193.533519 165.175051 
L 201.300469 161.087525 
L 208.866944 156.871045 
L 216.231109 152.532198 
L 223.393616 148.07711 
L 230.355097 143.512734 
L 237.117527 138.845892 
L 243.684507 134.082814 
L 250.059408 129.230271 
L 256.247197 124.29409 
L 262.25276 119.280247 
L 268.081119 114.194647 
L 273.738358 109.042181 
L 279.230188 103.827871 
L 284.562276 98.556548 
L 289.740778 93.232267 
L 294.771604 87.858948 
L 299.660393 82.440417 
L 304.412862 76.980007 
L 309.034674 71.480655 
L 313.531079 65.945335 
L 317.907157 60.376785 
L 322.167987 54.777282 
L 326.318377 49.148994 
L 330.362836 43.494035 
L 334.305718 37.8143 
L 338.15125 32.111429 
L 341.903421 26.386975 
L 342.282775 25.8 
" clip-path="url(#pd4dc569b83)" style="fill: none; stroke: #808080; stroke-width: 0.7"/>
    <path d="M 294.161323 49.148994 
L 298.205783 43.494035 
L 302.148664 37.8143 
L 305.994196 32.111429 
L 309.746367 26.386975 
L 310.125722 25.8 
" clip-path="url(#pd4dc569b83)" style="fill: none; stroke: #808080; stroke-width: 0.7"/>
    <path d="M 262.00427 49.148994 
L 266.048729 43.494035 
L 269.991611 37.8143 
L 273.837143 32.111429 
L 277.589314 26.386975 
L 277.968668 25.8 
" clip-path="url(#pd4dc569b83)" style="fill: none; stroke: #808080; stroke-width: 0.7"/>
    <path d="M 240.566234 49.148994 
L 244.610693 43.494035 
L 248.553575 37.8143 
L 252.399107 32.111429 
L 256.151278 26.386975 
L 256.530633 25.8 
" clip-path="url(#pd4dc569b83)" style="fill: none; stroke: #808080; stroke-width: 0.7"/>
    <path d="M 129.927349 138.845892 
L 136.494328 134.082814 
L 142.869229 129.230271 
L 149.057019 124.29409 
L 155.062581 119.280247 
L 160.890941 114.194647 
L 166.54818 109.042181 
L 172.04001 103.827871 
L 177.372098 98.556548 
L 182.550599 93.232267 
L 187.581426 87.858948 
L 192.470214 82.440417 
L 197.222683 76.980007 
L 201.844496 71.480655 
L 206.340901 65.945335 
L 210.716978 60.376785 
L 214.977809 54.777282 
L 219.128198 49.148994 
L 223.172658 43.494035 
L 227.115539 37.8143 
L 230.961071 32.111429 
L 234.713242 26.386975 
L 235.092597 25.8 
" clip-path="url(#pd4dc569b83)" style="fill: none; stroke: #808080; stroke-width: 0.7"/>
    <path d="M 208.409181 49.148994 
L 212.45364 43.494035 
L 216.396521 37.8143 
L 220.242054 32.111429 
L 223.994224 26.386975 
L 224.373579 25.8 
" clip-path="url(#pd4dc569b83)" style="fill: none; stroke: #808080; stroke-width: 0.7"/>
    <path d="M 87.602894 152.532198 
L 94.765401 148.07711 
L 101.726883 143.512734 
L 108.489313 138.845892 
L 115.056293 134.082814 
L 121.431193 129.230271 
L 127.618983 124.29409 
L 133.624546 119.280247 
L 139.452905 114.194647 
L 145.110144 109.042181 
L 150.601974 103.827871 
L 155.934062 98.556548 
L 161.112564 93.232267 
L 166.14339 87.858948 
L 171.032179 82.440417 
L 175.784647 76.980007 
L 180.40646 71.480655 
L 184.902865 65.945335 
L 189.278943 60.376785 
L 193.539773 54.777282 
L 197.690163 49.148994 
L 201.734622 43.494035 
L 205.677503 37.8143 
L 209.523036 32.111429 
L 213.275206 26.386975 
L 213.654561 25.8 
" clip-path="url(#pd4dc569b83)" style="fill: none; stroke: #808080; stroke-width: 0.7"/>
    <path d="M 126.998742 88.435737 
L 131.902408 83.021917 
L 136.6692 77.565817 
L 141.304728 72.070486 
L 145.814256 66.538929 
L 150.202946 60.973833 
L 154.475889 55.377506 
L 158.637872 49.75219 
L 162.693427 44.10002 
L 166.646964 38.422857 
L 170.502724 32.722359 
L 174.264697 27.000137 
L 175.042632 25.8 
" clip-path="url(#pd4dc569b83)" style="fill: none; stroke: #808080; stroke-width: 0.7"/>
    <path d="M 137.199836 49.75219 
L 141.255391 44.10002 
L 145.208929 38.422857 
L 149.064688 32.722359 
L 152.826661 27.000137 
L 153.604596 25.8 
" clip-path="url(#pd4dc569b83)" style="fill: none; stroke: #808080; stroke-width: 0.7"/>
    <path d="M 70.175804 170.962857 
L 78.234551 167.075683 
L 86.096869 163.051167 
L 93.759585 158.894922 
L 101.220279 154.61335 
L 108.478855 150.212598 
L 115.535368 145.699626 
L 122.392263 141.08064 
L 129.051769 136.362564 
" clip-path="url(#pd4dc569b83)" style="fill: none; stroke: #808080; stroke-width: 0.7"/>
    <path d="M 341.514045 127.088683 
L 347.621518 122.118153 
L 353.549276 117.072275 
L 359.302557 111.956716 
L 364.8868 106.776874 
L 370.308304 101.537143 
L 375.572839 96.242078 
L 380.686159 90.896023 
L 385.654301 85.502612 
L 390.483049 80.06533 
L 395.177888 74.587571 
" clip-path="url(#pd4dc569b83)" style="fill: none; stroke: #808080; stroke-width: 0.7"/>
    <path d="M 262.450904 78.821641 
L 267.116107 73.335016 
L 271.654029 67.811604 
L 276.070005 62.253982 
L 280.369127 56.664561 
L 284.556161 51.045714 
" clip-path="url(#pd4dc569b83)" style="fill: none; stroke: #808080; stroke-width: 0.7"/>
    <path d="M 359.589286 88.914286 
L 364.505349 83.504386 
L 369.284077 78.051875 
L 373.931032 72.559896 
L 378.451497 67.031474 
L 382.850697 61.469255 
" clip-path="url(#pd4dc569b83)" style="fill: none; stroke: #808080; stroke-width: 0.7"/>
    <path d="M 253.151261 210.612931 
L 263.118125 208.831429 
L 273.01927 206.925394 
L 282.84147 204.890248 
L 292.57968 202.719826 
" clip-path="url(#pd4dc569b83)" style="fill: none; stroke: #808080; stroke-width: 0.7"/>
    <path d="M 306.746351 210.612931 
L 316.713214 208.831429 
L 326.61436 206.925394 
L 336.43656 204.890248 
L 346.174769 202.719826 
" clip-path="url(#pd4dc569b83)" style="fill: none; stroke: #808080; stroke-width: 0.7"/>
    <path d="M 156.250581 150.721165 
L 163.330179 146.220752 
L 170.209881 141.613571 
L 176.891705 136.906636 
L 183.379631 132.106074 
L 189.677588 127.218343 
L 195.789864 122.249868 
L 201.722319 117.205866 
L 207.480119 112.092068 
L 213.068723 106.913862 
L 218.494454 101.675624 
L 223.763074 96.38196 
L 228.880304 91.037217 
L 233.852216 85.645004 
L 238.684576 80.208836 
L 243.382869 74.73212 
L 247.952582 69.217825 
L 252.399107 63.668571 
L 256.727453 58.086973 
" clip-path="url(#pd4dc569b83)" style="fill: none; stroke: #808080; stroke-width: 0.7"/>
    <path d="M 326.744127 118.117047 
L 332.532708 113.01555 
L 338.15125 107.848571 
L 343.605818 102.620721 
L 348.902133 97.336752 
" clip-path="url(#pd4dc569b83)" style="fill: none; stroke: #808080; stroke-width: 0.7"/>
    <path d="M 322.010729 106.776874 
L 327.432232 101.537143 
L 332.696768 96.242078 
L 337.810087 90.896023 
L 342.77823 85.502612 
" clip-path="url(#pd4dc569b83)" style="fill: none; stroke: #808080; stroke-width: 0.7"/>
    <path d="M 231.831123 118.645383 
L 237.637703 113.551079 
L 243.273754 108.390667 
L 248.7452 103.168949 
L 254.057713 97.890711 
L 259.217298 92.560112 
L 264.229986 87.180904 
L 269.101401 81.756874 
L 273.837143 76.291429 
" clip-path="url(#pd4dc569b83)" style="fill: none; stroke: #808080; stroke-width: 0.7"/>
    <path d="M 136.958391 174.707437 
L 145.208929 170.962857 
L 153.267676 167.075683 
L 161.129994 163.051167 
L 168.79271 158.894922 
L 176.253404 154.61335 
L 183.51198 150.212598 
L 190.568493 145.699626 
L 197.425388 141.08064 
L 204.084894 136.362564 
L 210.550685 131.55179 
L 216.827086 126.654522 
L 222.918496 121.677102 
L 228.830548 116.624931 
L 234.568668 111.503513 
" clip-path="url(#pd4dc569b83)" style="fill: none; stroke: #808080; stroke-width: 0.7"/>
    <path d="M 282.522988 136.486356 
L 288.993836 131.677939 
L 295.275179 126.782857 
L 301.371316 121.807459 
L 307.287992 116.757135 
" clip-path="url(#pd4dc569b83)" style="fill: none; stroke: #808080; stroke-width: 0.7"/>
    <path d="M 144.520824 118.117047 
L 150.309404 113.01555 
L 155.927946 107.848571 
L 161.382515 102.620721 
L 166.67883 97.336752 
" clip-path="url(#pd4dc569b83)" style="fill: none; stroke: #808080; stroke-width: 0.7"/>
    <path d="M 220.242054 170.962857 
L 228.300801 167.075683 
L 236.163119 163.051167 
L 243.825835 158.894922 
L 251.286529 154.61335 
L 258.545105 150.212598 
" clip-path="url(#pd4dc569b83)" style="fill: none; stroke: #808080; stroke-width: 0.7"/>
   </g>
   <g id="patch_3">
    <path d="M 51.976399 244.184758 
Q 52.562301 244.231615 52.36807 244.216082 
" clip-path="url(#pd4dc569b83)" style="fill: none; stroke: #808080; stroke-width: 0.7; stroke-linecap: round"/>
    <path d="M 48.54024 241.903568 
L 52.36807 244.216082 
L 48.221361 245.890838 
z
" clip-path="url(#pd4dc569b83)" style="fill: #808080; stroke: #808080; stroke-width: 0.7; stroke-linecap: round"/>
   </g>
   <g id="patch_4">
    <path d="M 84.526194 243.408294 
Q 85.11277 243.45173 84.91886 243.437371 
" clip-path="url(#pd4dc569b83)" style="fill: none; stroke: #808080; stroke-width: 0.7; stroke-linecap: round"/>
    <path d="M 81.077478 241.147441 
L 84.91886 243.437371 
L 80.782087 245.136519 
z
" clip-path="url(#pd4dc569b83)" style="fill: #808080; stroke: #808080; stroke-width: 0.7; stroke-linecap: round"/>
   </g>
   <g id="patch_5">
    <path d="M 127.402265 243.408294 
Q 127.988842 243.45173 127.794932 243.437371 
" clip-path="url(#pd4dc569b83)" style="fill: none; stroke: #808080; stroke-width: 0.7; stroke-linecap: round"/>
    <path d="M 123.953549 241.147441 
L 127.794932 243.437371 
L 123.658158 245.136519 
z
" clip-path="url(#pd4dc569b83)" style="fill: #808080; stroke: #808080; stroke-width: 0.7; stroke-linecap: round"/>
   </g>
   <g id="patch_6">
    <path d="M 170.278336 243.408294 
Q 170.864913 243.45173 170.671003 243.437371 
" clip-path="url(#pd4dc569b83)" style="fill: none; stroke: #808080; stroke-width: 0.7; stroke-linecap: round"/>
    <path d="M 166.829621 241.147441 
L 170.671003 243.437371 
L 166.534229 245.136519 
z
" clip-path="url(#pd4dc569b83)" style="fill: #808080; stroke: #808080; stroke-width: 0.7; stroke-linecap: round"/>
   </g>
   <g id="patch_7">
    <path d="M 213.154408 243.408294 
Q 213.740985 243.45173 213.547075 243.437371 
" clip-path="url(#pd4dc569b83)" style="fill: none; stroke: #808080; stroke-width: 0.7; stroke-linecap: round"/>
    <path d="M 209.705692 241.147441 
L 213.547075 243.437371 
L 209.410301 245.136519 
z
" clip-path="url(#pd4dc569b83)" style="fill: #808080; stroke: #808080; stroke-width: 0.7; stroke-linecap: round"/>
   </g>
   <g id="patch_8">
    <path d="M 256.030479 243.408294 
Q 256.617056 243.45173 256.423146 243.437371 
" clip-path="url(#pd4dc569b83)" style="fill: none; stroke: #808080; stroke-width: 0.7; stroke-linecap: round"/>
    <path d="M 252.581764 241.147441 
L 256.423146 243.437371 
L 252.286372 245.136519 
z
" clip-path="url(#pd4dc569b83)" style="fill: #808080; stroke: #808080; stroke-width: 0.7; stroke-linecap: round"/>
   </g>
   <g id="patch_9">
    <path d="M 298.906551 243.408294 
Q 299.493128 243.45173 299.299217 243.437371 
" clip-path="url(#pd4dc569b83)" style="fill: none; stroke: #808080; stroke-width: 0.7; stroke-linecap: round"/>
    <path d="M 295.457835 241.147441 
L 299.299217 243.437371 
L 295.162444 245.136519 
z
" clip-path="url(#pd4dc569b83)" style="fill: #808080; stroke: #808080; stroke-width: 0.7; stroke-linecap: round"/>
   </g>
   <g id="patch_10">
    <path d="M 341.782622 243.408294 
Q 342.369199 243.45173 342.175289 243.437371 
" clip-path="url(#pd4dc569b83)" style="fill: none; stroke: #808080; stroke-width: 0.7; stroke-linecap: round"/>
    <path d="M 338.333907 241.147441 
L 342.175289 243.437371 
L 338.038515 245.136519 
z
" clip-path="url(#pd4dc569b83)" style="fill: #808080; stroke: #808080; stroke-width: 0.7; stroke-linecap: round"/>
   </g>
   <g id="patch_11">
    <path d="M 47.201504 38.073325 
Q 47.607657 37.476818 47.573341 37.527216 
" clip-path="url(#pd4dc569b83)" style="fill: none; stroke: #808080; stroke-width: 0.7; stroke-linecap: round"/>
    <path d="M 43.668927 39.70794 
L 47.573341 37.527216 
L 46.975271 41.959181 
z
" clip-path="url(#pd4dc569b83)" style="fill: #808080; stroke: #808080; stroke-width: 0.7; stroke-linecap: round"/>
   </g>
   <g id="patch_12">
    <path d="M 51.823485 45.201185 
Q 52.246586 44.602283 52.218114 44.642585 
" clip-path="url(#pd4dc569b83)" style="fill: none; stroke: #808080; stroke-width: 0.7; stroke-linecap: round"/>
    <path d="M 48.276629 46.755568 
L 52.218114 44.642585 
L 51.543609 49.063563 
z
" clip-path="url(#pd4dc569b83)" style="fill: #808080; stroke: #808080; stroke-width: 0.7; stroke-linecap: round"/>
   </g>
   <g id="patch_13">
    <path d="M 56.899188 52.457845 
Q 57.340545 51.856997 57.318584 51.886893 
" clip-path="url(#pd4dc569b83)" style="fill: none; stroke: #808080; stroke-width: 0.7; stroke-linecap: round"/>
    <path d="M 53.338698 53.926624 
L 57.318584 51.886893 
L 56.562438 56.294641 
z
" clip-path="url(#pd4dc569b83)" style="fill: #808080; stroke: #808080; stroke-width: 0.7; stroke-linecap: round"/>
   </g>
   <g id="patch_14">
    <path d="M 62.495223 59.882375 
Q 62.958452 59.277394 62.94589 59.293801 
" clip-path="url(#pd4dc569b83)" style="fill: none; stroke: #808080; stroke-width: 0.7; stroke-linecap: round"/>
    <path d="M 58.926153 61.253832 
L 62.94589 59.293801 
L 62.102073 63.685609 
z
" clip-path="url(#pd4dc569b83)" style="fill: #808080; stroke: #808080; stroke-width: 0.7; stroke-linecap: round"/>
   </g>
   <g id="patch_15">
    <path d="M 68.706585 67.508637 
Q 69.19149 66.902947 69.187277 66.908209 
" clip-path="url(#pd4dc569b83)" style="fill: none; stroke: #808080; stroke-width: 0.7; stroke-linecap: round"/>
    <path d="M 65.126094 68.780854 
L 69.187277 66.908209 
L 68.248682 71.280742 
z
" clip-path="url(#pd4dc569b83)" style="fill: #808080; stroke: #808080; stroke-width: 0.7; stroke-linecap: round"/>
   </g>
   <g id="patch_16">
    <path d="M 80.226293 69.889057 
Q 80.719093 69.282254 80.718513 69.282968 
" clip-path="url(#pd4dc569b83)" style="fill: none; stroke: #808080; stroke-width: 0.7; stroke-linecap: round"/>
    <path d="M 76.644332 71.127161 
L 80.718513 69.282968 
L 79.749359 73.648829 
z
" clip-path="url(#pd4dc569b83)" style="fill: #808080; stroke: #808080; stroke-width: 0.7; stroke-linecap: round"/>
   </g>
   <g id="patch_17">
    <path d="M 88.200517 78.204348 
Q 88.721139 77.595586 88.733098 77.581602 
" clip-path="url(#pd4dc569b83)" style="fill: none; stroke: #808080; stroke-width: 0.7; stroke-linecap: round"/>
    <path d="M 84.613353 79.321631 
L 88.733098 77.581602 
L 87.653274 81.921415 
z
" clip-path="url(#pd4dc569b83)" style="fill: #808080; stroke: #808080; stroke-width: 0.7; stroke-linecap: round"/>
   </g>
   <g id="patch_18">
    <path d="M 102.09654 81.581024 
Q 102.630885 80.969663 102.650194 80.947571 
" clip-path="url(#pd4dc569b83)" style="fill: none; stroke: #808080; stroke-width: 0.7; stroke-linecap: round"/>
    <path d="M 98.511957 82.643151 
L 102.650194 80.947571 
L 101.523717 85.275509 
z
" clip-path="url(#pd4dc569b83)" style="fill: #808080; stroke: #808080; stroke-width: 0.7; stroke-linecap: round"/>
   </g>
   <g id="patch_19">
    <path d="M 112.644961 91.156942 
Q 113.216657 90.543697 113.254687 90.502904 
" clip-path="url(#pd4dc569b83)" style="fill: none; stroke: #808080; stroke-width: 0.7; stroke-linecap: round"/>
    <path d="M 109.064209 92.064922 
L 113.254687 90.502904 
L 111.990015 94.792496 
z
" clip-path="url(#pd4dc569b83)" style="fill: #808080; stroke: #808080; stroke-width: 0.7; stroke-linecap: round"/>
   </g>
   <g id="patch_20">
    <path d="M 54.363237 148.545758 
Q 54.440355 148.496096 53.859481 148.870163 
" clip-path="url(#pd4dc569b83)" style="fill: none; stroke: #808080; stroke-width: 0.7; stroke-linecap: round"/>
    <path d="M 49.413633 149.354346 
L 53.859481 148.870163 
L 51.579318 152.717351 
z
" clip-path="url(#pd4dc569b83)" style="fill: #808080; stroke: #808080; stroke-width: 0.7; stroke-linecap: round"/>
   </g>
   <g id="patch_21">
    <path d="M 130.1006 96.427195 
Q 130.693822 95.8142 130.742789 95.763601 
" clip-path="url(#pd4dc569b83)" style="fill: none; stroke: #808080; stroke-width: 0.7; stroke-linecap: round"/>
    <path d="M 126.523898 97.247164 
L 130.742789 95.763601 
L 129.398305 100.028851 
z
" clip-path="url(#pd4dc569b83)" style="fill: #808080; stroke: #808080; stroke-width: 0.7; stroke-linecap: round"/>
   </g>
   <g id="patch_22">
    <path d="M 139.763143 99.652787 
Q 140.372083 99.038196 140.430187 98.979554 
" clip-path="url(#pd4dc569b83)" style="fill: none; stroke: #808080; stroke-width: 0.7; stroke-linecap: round"/>
    <path d="M 136.194121 100.413342 
L 140.430187 98.979554 
L 139.035578 103.22868 
z
" clip-path="url(#pd4dc569b83)" style="fill: #808080; stroke: #808080; stroke-width: 0.7; stroke-linecap: round"/>
   </g>
   <g id="patch_23">
    <path d="M 56.390011 168.966455 
Q 56.594813 168.865931 56.097059 169.110246 
" clip-path="url(#pd4dc569b83)" style="fill: none; stroke: #808080; stroke-width: 0.7; stroke-linecap: round"/>
    <path d="M 51.625044 169.077333 
L 56.097059 169.110246 
L 53.38752 172.66811 
z
" clip-path="url(#pd4dc569b83)" style="fill: #808080; stroke: #808080; stroke-width: 0.7; stroke-linecap: round"/>
   </g>
   <g id="patch_24">
    <path d="M 173.792747 113.066134 
Q 174.468988 112.451327 174.566153 112.362989 
" clip-path="url(#pd4dc569b83)" style="fill: none; stroke: #808080; stroke-width: 0.7; stroke-linecap: round"/>
    <path d="M 170.261089 113.57395 
L 174.566153 112.362989 
L 172.951883 116.533617 
z
" clip-path="url(#pd4dc569b83)" style="fill: #808080; stroke: #808080; stroke-width: 0.7; stroke-linecap: round"/>
   </g>
   <g id="patch_25">
    <path d="M 193.206373 114.360321 
Q 193.890487 113.744959 193.992737 113.652985 
" clip-path="url(#pd4dc569b83)" style="fill: none; stroke: #808080; stroke-width: 0.7; stroke-linecap: round"/>
    <path d="M 189.681304 114.841069 
L 193.992737 113.652985 
L 192.356345 117.814982 
z
" clip-path="url(#pd4dc569b83)" style="fill: #808080; stroke: #808080; stroke-width: 0.7; stroke-linecap: round"/>
   </g>
   <g id="patch_26">
    <path d="M 214.508721 117.359468 
Q 215.207749 116.746365 215.318399 116.649316 
" clip-path="url(#pd4dc569b83)" style="fill: none; stroke: #808080; stroke-width: 0.7; stroke-linecap: round"/>
    <path d="M 210.992415 117.783274 
L 215.318399 116.649316 
L 213.629975 120.790478 
z
" clip-path="url(#pd4dc569b83)" style="fill: #808080; stroke: #808080; stroke-width: 0.7; stroke-linecap: round"/>
   </g>
   <g id="patch_27">
    <path d="M 238.333586 122.86498 
Q 239.067492 122.251441 239.200954 122.139868 
" clip-path="url(#pd4dc569b83)" style="fill: none; stroke: #808080; stroke-width: 0.7; stroke-linecap: round"/>
    <path d="M 234.84931 123.17098 
L 239.200954 122.139868 
L 237.414858 126.239851 
z
" clip-path="url(#pd4dc569b83)" style="fill: #808080; stroke: #808080; stroke-width: 0.7; stroke-linecap: round"/>
   </g>
   <g id="patch_28">
    <path d="M 272.00683 127.380221 
Q 272.766939 126.770438 272.916586 126.650386 
" clip-path="url(#pd4dc569b83)" style="fill: none; stroke: #808080; stroke-width: 0.7; stroke-linecap: round"/>
    <path d="M 268.544998 127.59337 
L 272.916586 126.650386 
L 271.048021 130.713447 
z
" clip-path="url(#pd4dc569b83)" style="fill: #808080; stroke: #808080; stroke-width: 0.7; stroke-linecap: round"/>
   </g>
   <g id="patch_29">
    <path d="M 318.49384 134.459993 
Q 318.501744 134.45407 317.88335 134.917455 
" clip-path="url(#pd4dc569b83)" style="fill: none; stroke: #808080; stroke-width: 0.7; stroke-linecap: round"/>
    <path d="M 313.48301 135.715585 
L 317.88335 134.917455 
L 315.88165 138.916605 
z
" clip-path="url(#pd4dc569b83)" style="fill: #808080; stroke: #808080; stroke-width: 0.7; stroke-linecap: round"/>
   </g>
   <g id="patch_30">
    <path d="M 292.495606 194.071925 
Q 292.898105 193.950541 292.551312 194.055125 
" clip-path="url(#pd4dc569b83)" style="fill: none; stroke: #808080; stroke-width: 0.7; stroke-linecap: round"/>
    <path d="M 288.144208 193.295236 
L 292.551312 194.055125 
L 289.299138 197.124875 
z
" clip-path="url(#pd4dc569b83)" style="fill: #808080; stroke: #808080; stroke-width: 0.7; stroke-linecap: round"/>
   </g>
   <g id="patch_31">
    <path d="M 227.381928 235.230235 
Q 227.984233 235.237245 227.803967 235.235147 
" clip-path="url(#pd4dc569b83)" style="fill: none; stroke: #808080; stroke-width: 0.7; stroke-linecap: round"/>
    <path d="M 223.827513 233.188732 
L 227.803967 235.235147 
L 223.780963 237.188461 
z
" clip-path="url(#pd4dc569b83)" style="fill: #808080; stroke: #808080; stroke-width: 0.7; stroke-linecap: round"/>
   </g>
   <g id="patch_32">
    <path d="M 383.644981 234.028693 
Q 384.247472 234.030178 384.067342 234.029734 
" clip-path="url(#pd4dc569b83)" style="fill: none; stroke: #808080; stroke-width: 0.7; stroke-linecap: round"/>
    <path d="M 380.072283 232.019882 
L 384.067342 234.029734 
L 380.062425 236.01987 
z
" clip-path="url(#pd4dc569b83)" style="fill: #808080; stroke: #808080; stroke-width: 0.7; stroke-linecap: round"/>
   </g>
   <g id="patch_33">
    <path d="M 362.909267 229.280739 
Q 363.510817 229.260419 363.33019 229.26652 
" clip-path="url(#pd4dc569b83)" style="fill: none; stroke: #808080; stroke-width: 0.7; stroke-linecap: round"/>
    <path d="M 359.264948 227.402705 
L 363.33019 229.26652 
L 359.399992 231.400424 
z
" clip-path="url(#pd4dc569b83)" style="fill: #808080; stroke: #808080; stroke-width: 0.7; stroke-linecap: round"/>
   </g>
   <g id="patch_34">
    <path d="M 394.160775 222.18446 
Q 394.741625 222.133389 394.54286 222.150865 
" clip-path="url(#pd4dc569b83)" style="fill: none; stroke: #808080; stroke-width: 0.7; stroke-linecap: round"/>
    <path d="M 390.383059 220.508896 
L 394.54286 222.150865 
L 390.733404 224.493524 
z
" clip-path="url(#pd4dc569b83)" style="fill: #808080; stroke: #808080; stroke-width: 0.7; stroke-linecap: round"/>
   </g>
   <g id="patch_35">
    <path d="M 271.906892 224.30408 
Q 272.497353 224.26171 272.307198 224.275355 
" clip-path="url(#pd4dc569b83)" style="fill: none; stroke: #808080; stroke-width: 0.7; stroke-linecap: round"/>
    <path d="M 268.174309 222.56678 
L 272.307198 224.275355 
L 268.460604 226.556521 
z
" clip-path="url(#pd4dc569b83)" style="fill: #808080; stroke: #808080; stroke-width: 0.7; stroke-linecap: round"/>
   </g>
   <g id="patch_36">
    <path d="M 384.879836 206.340598 
Q 385.373463 206.23766 385.100947 206.294488 
" clip-path="url(#pd4dc569b83)" style="fill: none; stroke: #808080; stroke-width: 0.7; stroke-linecap: round"/>
    <path d="M 380.776897 205.153177 
L 385.100947 206.294488 
L 381.593468 209.068942 
z
" clip-path="url(#pd4dc569b83)" style="fill: #808080; stroke: #808080; stroke-width: 0.7; stroke-linecap: round"/>
   </g>
   <g id="patch_37">
    <path d="M 356.083842 207.160418 
Q 356.586568 207.058709 356.322212 207.112192 
" clip-path="url(#pd4dc569b83)" style="fill: none; stroke: #808080; stroke-width: 0.7; stroke-linecap: round"/>
    <path d="M 352.005049 205.945099 
L 356.322212 207.112192 
L 352.79824 209.865667 
z
" clip-path="url(#pd4dc569b83)" style="fill: #808080; stroke: #808080; stroke-width: 0.7; stroke-linecap: round"/>
   </g>
   <g id="patch_38">
    <path d="M 395.191081 192.194083 
Q 395.580417 192.071145 395.22345 192.183862 
" clip-path="url(#pd4dc569b83)" style="fill: none; stroke: #808080; stroke-width: 0.7; stroke-linecap: round"/>
    <path d="M 390.806875 191.481112 
L 395.22345 192.183862 
L 392.011305 195.295472 
z
" clip-path="url(#pd4dc569b83)" style="fill: #808080; stroke: #808080; stroke-width: 0.7; stroke-linecap: round"/>
   </g>
   <g id="patch_39">
    <path d="M 321.938201 202.738248 
Q 322.407251 202.627606 322.114583 202.696642 
" clip-path="url(#pd4dc569b83)" style="fill: none; stroke: #808080; stroke-width: 0.7; stroke-linecap: round"/>
    <path d="M 317.762261 201.668393 
L 322.114583 202.696642 
L 318.680591 205.56155 
z
" clip-path="url(#pd4dc569b83)" style="fill: #808080; stroke: #808080; stroke-width: 0.7; stroke-linecap: round"/>
   </g>
   <g id="patch_40">
    <path d="M 371.408694 178.910521 
Q 371.687019 178.794739 371.24275 178.979553 
" clip-path="url(#pd4dc569b83)" style="fill: none; stroke: #808080; stroke-width: 0.7; stroke-linecap: round"/>
    <path d="M 366.781388 178.669302 
L 371.24275 178.979553 
L 368.317733 182.362491 
z
" clip-path="url(#pd4dc569b83)" style="fill: #808080; stroke: #808080; stroke-width: 0.7; stroke-linecap: round"/>
   </g>
   <g id="patch_41">
    <path d="M 396.585234 161.553239 
Q 396.740283 161.468511 396.208561 161.759074 
" clip-path="url(#pd4dc569b83)" style="fill: none; stroke: #808080; stroke-width: 0.7; stroke-linecap: round"/>
    <path d="M 391.739399 161.922146 
L 396.208561 161.759074 
L 393.65752 165.432247 
z
" clip-path="url(#pd4dc569b83)" style="fill: #808080; stroke: #808080; stroke-width: 0.7; stroke-linecap: round"/>
   </g>
   <g id="patch_42">
    <path d="M 389.322953 159.634777 
Q 389.463671 159.555854 388.921796 159.859771 
" clip-path="url(#pd4dc569b83)" style="fill: none; stroke: #808080; stroke-width: 0.7; stroke-linecap: round"/>
    <path d="M 384.454703 160.0721 
L 388.921796 159.859771 
L 386.411404 163.560842 
z
" clip-path="url(#pd4dc569b83)" style="fill: #808080; stroke: #808080; stroke-width: 0.7; stroke-linecap: round"/>
   </g>
   <g id="patch_43">
    <path d="M 383.961535 146.045368 
Q 384.02637 146.002404 383.43882 146.391754 
" clip-path="url(#pd4dc569b83)" style="fill: none; stroke: #808080; stroke-width: 0.7; stroke-linecap: round"/>
    <path d="M 378.999697 146.934143 
L 383.43882 146.391754 
L 381.209258 150.268485 
z
" clip-path="url(#pd4dc569b83)" style="fill: #808080; stroke: #808080; stroke-width: 0.7; stroke-linecap: round"/>
   </g>
   <g id="patch_44">
    <path d="M 342.849715 161.102284 
Q 343.0003 161.019484 342.465095 161.313767 
" clip-path="url(#pd4dc569b83)" style="fill: none; stroke: #808080; stroke-width: 0.7; stroke-linecap: round"/>
    <path d="M 337.996374 161.488499 
L 342.465095 161.313767 
L 339.923648 164.993583 
z
" clip-path="url(#pd4dc569b83)" style="fill: #808080; stroke: #808080; stroke-width: 0.7; stroke-linecap: round"/>
   </g>
   <g id="patch_45">
    <path d="M 374.203034 131.754232 
Q 374.992942 131.146366 375.162616 131.015795 
" clip-path="url(#pd4dc569b83)" style="fill: none; stroke: #808080; stroke-width: 0.7; stroke-linecap: round"/>
    <path d="M 370.772864 131.870244 
L 375.162616 131.015795 
L 373.212325 135.040265 
z
" clip-path="url(#pd4dc569b83)" style="fill: #808080; stroke: #808080; stroke-width: 0.7; stroke-linecap: round"/>
   </g>
   <g id="patch_46">
    <path d="M 322.439163 157.459455 
Q 322.565296 157.386656 322.013601 157.705072 
" clip-path="url(#pd4dc569b83)" style="fill: none; stroke: #808080; stroke-width: 0.7; stroke-linecap: round"/>
    <path d="M 317.549462 157.972385 
L 322.013601 157.705072 
L 319.548968 161.436772 
z
" clip-path="url(#pd4dc569b83)" style="fill: #808080; stroke: #808080; stroke-width: 0.7; stroke-linecap: round"/>
   </g>
   <g id="patch_47">
    <path d="M 349.874044 127.361238 
Q 350.634069 126.751423 350.783672 126.631387 
" clip-path="url(#pd4dc569b83)" style="fill: none; stroke: #808080; stroke-width: 0.7; stroke-linecap: round"/>
    <path d="M 346.41216 127.574719 
L 350.783672 126.631387 
L 348.91543 130.694596 
z
" clip-path="url(#pd4dc569b83)" style="fill: #808080; stroke: #808080; stroke-width: 0.7; stroke-linecap: round"/>
   </g>
   <g id="patch_48">
    <path d="M 399.737057 36.15746 
Q 400.139824 35.560162 400.10504 35.611747 
" clip-path="url(#pd4dc569b83)" style="fill: none; stroke: #808080; stroke-width: 0.7; stroke-linecap: round"/>
    <path d="M 396.210485 37.810029 
L 400.10504 35.611747 
L 399.526933 40.04636 
z
" clip-path="url(#pd4dc569b83)" style="fill: #808080; stroke: #808080; stroke-width: 0.7; stroke-linecap: round"/>
   </g>
   <g id="patch_49">
    <path d="M 317.353319 117.966633 
Q 318.057674 117.35204 318.172332 117.251993 
" clip-path="url(#pd4dc569b83)" style="fill: none; stroke: #808080; stroke-width: 0.7; stroke-linecap: round"/>
    <path d="M 313.843459 118.374873 
L 318.172332 117.251993 
L 316.473312 121.38882 
z
" clip-path="url(#pd4dc569b83)" style="fill: #808080; stroke: #808080; stroke-width: 0.7; stroke-linecap: round"/>
   </g>
   <g id="patch_50">
    <path d="M 378.299021 36.15746 
Q 378.701788 35.560162 378.667004 35.611747 
" clip-path="url(#pd4dc569b83)" style="fill: none; stroke: #808080; stroke-width: 0.7; stroke-linecap: round"/>
    <path d="M 374.772449 37.810029 
L 378.667004 35.611747 
L 378.088897 40.04636 
z
" clip-path="url(#pd4dc569b83)" style="fill: #808080; stroke: #808080; stroke-width: 0.7; stroke-linecap: round"/>
   </g>
   <g id="patch_51">
    <path d="M 328.267823 86.374673 
Q 328.820438 85.762178 328.848787 85.730756 
" clip-path="url(#pd4dc569b83)" style="fill: none; stroke: #808080; stroke-width: 0.7; stroke-linecap: round"/>
    <path d="M 324.684326 87.360867 
L 328.848787 85.730756 
L 327.6542 90.040392 
z
" clip-path="url(#pd4dc569b83)" style="fill: #808080; stroke: #808080; stroke-width: 0.7; stroke-linecap: round"/>
   </g>
   <g id="patch_52">
    <path d="M 263.75823 117.966633 
Q 264.462585 117.35204 264.577243 117.251993 
" clip-path="url(#pd4dc569b83)" style="fill: none; stroke: #808080; stroke-width: 0.7; stroke-linecap: round"/>
    <path d="M 260.24837 118.374873 
L 264.577243 117.251993 
L 262.878223 121.38882 
z
" clip-path="url(#pd4dc569b83)" style="fill: #808080; stroke: #808080; stroke-width: 0.7; stroke-linecap: round"/>
   </g>
   <g id="patch_53">
    <path d="M 303.265896 36.15746 
Q 303.668663 35.560162 303.633879 35.611747 
" clip-path="url(#pd4dc569b83)" style="fill: none; stroke: #808080; stroke-width: 0.7; stroke-linecap: round"/>
    <path d="M 299.739324 37.810029 
L 303.633879 35.611747 
L 303.055772 40.04636 
z
" clip-path="url(#pd4dc569b83)" style="fill: #808080; stroke: #808080; stroke-width: 0.7; stroke-linecap: round"/>
   </g>
   <g id="patch_54">
    <path d="M 271.108843 36.15746 
Q 271.51161 35.560162 271.476825 35.611747 
" clip-path="url(#pd4dc569b83)" style="fill: none; stroke: #808080; stroke-width: 0.7; stroke-linecap: round"/>
    <path d="M 267.582271 37.810029 
L 271.476825 35.611747 
L 270.898719 40.04636 
z
" clip-path="url(#pd4dc569b83)" style="fill: #808080; stroke: #808080; stroke-width: 0.7; stroke-linecap: round"/>
   </g>
   <g id="patch_55">
    <path d="M 249.670807 36.15746 
Q 250.073574 35.560162 250.03879 35.611747 
" clip-path="url(#pd4dc569b83)" style="fill: none; stroke: #808080; stroke-width: 0.7; stroke-linecap: round"/>
    <path d="M 246.144235 37.810029 
L 250.03879 35.611747 
L 249.460683 40.04636 
z
" clip-path="url(#pd4dc569b83)" style="fill: #808080; stroke: #808080; stroke-width: 0.7; stroke-linecap: round"/>
   </g>
   <g id="patch_56">
    <path d="M 188.920591 86.374673 
Q 189.473205 85.762178 189.501555 85.730756 
" clip-path="url(#pd4dc569b83)" style="fill: none; stroke: #808080; stroke-width: 0.7; stroke-linecap: round"/>
    <path d="M 185.337094 87.360867 
L 189.501555 85.730756 
L 188.306968 90.040392 
z
" clip-path="url(#pd4dc569b83)" style="fill: #808080; stroke: #808080; stroke-width: 0.7; stroke-linecap: round"/>
   </g>
   <g id="patch_57">
    <path d="M 217.513754 36.15746 
Q 217.916521 35.560162 217.881736 35.611747 
" clip-path="url(#pd4dc569b83)" style="fill: none; stroke: #808080; stroke-width: 0.7; stroke-linecap: round"/>
    <path d="M 213.987182 37.810029 
L 217.881736 35.611747 
L 217.303629 40.04636 
z
" clip-path="url(#pd4dc569b83)" style="fill: #808080; stroke: #808080; stroke-width: 0.7; stroke-linecap: round"/>
   </g>
   <g id="patch_58">
    <path d="M 162.480811 91.770871 
Q 163.054394 91.158239 163.093085 91.116914 
" clip-path="url(#pd4dc569b83)" style="fill: none; stroke: #808080; stroke-width: 0.7; stroke-linecap: round"/>
    <path d="M 158.899271 92.669949 
L 163.093085 91.116914 
L 161.819225 95.403787 
z
" clip-path="url(#pd4dc569b83)" style="fill: #808080; stroke: #808080; stroke-width: 0.7; stroke-linecap: round"/>
   </g>
   <g id="patch_59">
    <path d="M 151.415143 59.386203 
Q 151.87728 58.780937 151.864476 58.797707 
" clip-path="url(#pd4dc569b83)" style="fill: none; stroke: #808080; stroke-width: 0.7; stroke-linecap: round"/>
    <path d="M 147.847422 60.76323 
L 151.864476 58.797707 
L 151.026662 63.190664 
z
" clip-path="url(#pd4dc569b83)" style="fill: #808080; stroke: #808080; stroke-width: 0.7; stroke-linecap: round"/>
   </g>
   <g id="patch_60">
    <path d="M 146.329132 36.766707 
Q 146.73297 36.169657 146.698333 36.220867 
" clip-path="url(#pd4dc569b83)" style="fill: none; stroke: #808080; stroke-width: 0.7; stroke-linecap: round"/>
    <path d="M 142.80065 38.413597 
L 146.698333 36.220867 
L 146.113907 40.654651 
z
" clip-path="url(#pd4dc569b83)" style="fill: #808080; stroke: #808080; stroke-width: 0.7; stroke-linecap: round"/>
   </g>
   <g id="patch_61">
    <path d="M 102.932141 153.575477 
Q 103.035127 153.513038 102.468882 153.856343 
" clip-path="url(#pd4dc569b83)" style="fill: none; stroke: #808080; stroke-width: 0.7; stroke-linecap: round"/>
    <path d="M 98.011546 154.219879 
L 102.468882 153.856343 
L 100.085309 157.640333 
z
" clip-path="url(#pd4dc569b83)" style="fill: #808080; stroke: #808080; stroke-width: 0.7; stroke-linecap: round"/>
   </g>
   <g id="patch_62">
    <path d="M 371.719549 100.117714 
Q 372.33006 99.503662 372.388775 99.444607 
" clip-path="url(#pd4dc569b83)" style="fill: none; stroke: #808080; stroke-width: 0.7; stroke-linecap: round"/>
    <path d="M 368.150241 100.87108 
L 372.388775 99.444607 
L 370.986833 103.691318 
z
" clip-path="url(#pd4dc569b83)" style="fill: #808080; stroke: #808080; stroke-width: 0.7; stroke-linecap: round"/>
   </g>
   <g id="patch_63">
    <path d="M 272.898178 66.245809 
Q 273.380098 65.639301 273.375143 65.645536 
" clip-path="url(#pd4dc569b83)" style="fill: none; stroke: #808080; stroke-width: 0.7; stroke-linecap: round"/>
    <path d="M 269.320858 67.533065 
L 273.375143 65.645536 
L 272.452595 70.021482 
z
" clip-path="url(#pd4dc569b83)" style="fill: #808080; stroke: #808080; stroke-width: 0.7; stroke-linecap: round"/>
   </g>
   <g id="patch_64">
    <path d="M 370.57515 76.526027 
Q 371.091352 75.915956 371.102032 75.903335 
" clip-path="url(#pd4dc569b83)" style="fill: none; stroke: #808080; stroke-width: 0.7; stroke-linecap: round"/>
    <path d="M 366.99151 77.665042 
L 371.102032 75.903335 
L 370.045083 80.248777 
z
" clip-path="url(#pd4dc569b83)" style="fill: #808080; stroke: #808080; stroke-width: 0.7; stroke-linecap: round"/>
   </g>
   <g id="patch_65">
    <path d="M 274.980833 206.518961 
Q 275.477703 206.41601 275.208227 206.471845 
" clip-path="url(#pd4dc569b83)" style="fill: none; stroke: #808080; stroke-width: 0.7; stroke-linecap: round"/>
    <path d="M 270.885642 205.324999 
L 275.208227 206.471845 
L 271.697199 209.241806 
z
" clip-path="url(#pd4dc569b83)" style="fill: #808080; stroke: #808080; stroke-width: 0.7; stroke-linecap: round"/>
   </g>
   <g id="patch_66">
    <path d="M 328.575922 206.518961 
Q 329.072792 206.41601 328.803316 206.471845 
" clip-path="url(#pd4dc569b83)" style="fill: none; stroke: #808080; stroke-width: 0.7; stroke-linecap: round"/>
    <path d="M 324.480731 205.324999 
L 328.803316 206.471845 
L 325.292288 209.241806 
z
" clip-path="url(#pd4dc569b83)" style="fill: #808080; stroke: #808080; stroke-width: 0.7; stroke-linecap: round"/>
   </g>
   <g id="patch_67">
    <path d="M 214.507284 105.525012 
Q 215.144436 104.909878 215.218547 104.838328 
" clip-path="url(#pd4dc569b83)" style="fill: none; stroke: #808080; stroke-width: 0.7; stroke-linecap: round"/>
    <path d="M 210.951701 106.17774 
L 215.218547 104.838328 
L 213.72997 109.055452 
z
" clip-path="url(#pd4dc569b83)" style="fill: #808080; stroke: #808080; stroke-width: 0.7; stroke-linecap: round"/>
   </g>
   <g id="patch_68">
    <path d="M 339.597456 106.462476 
Q 340.237995 105.848561 340.313518 105.776178 
" clip-path="url(#pd4dc569b83)" style="fill: none; stroke: #808080; stroke-width: 0.7; stroke-linecap: round"/>
    <path d="M 336.041824 107.10005 
L 340.313518 105.776178 
L 338.809599 109.987856 
z
" clip-path="url(#pd4dc569b83)" style="fill: #808080; stroke: #808080; stroke-width: 0.7; stroke-linecap: round"/>
   </g>
   <g id="patch_69">
    <path d="M 334.077464 94.798539 
Q 334.665445 94.183795 334.712476 94.134623 
" clip-path="url(#pd4dc569b83)" style="fill: none; stroke: #808080; stroke-width: 0.7; stroke-linecap: round"/>
    <path d="M 330.502346 95.642868 
L 334.712476 94.134623 
L 333.392994 98.407674 
z
" clip-path="url(#pd4dc569b83)" style="fill: #808080; stroke: #808080; stroke-width: 0.7; stroke-linecap: round"/>
   </g>
   <g id="patch_70">
    <path d="M 255.450902 96.451345 
Q 256.044203 95.838379 256.093201 95.787757 
" clip-path="url(#pd4dc569b83)" style="fill: none; stroke: #808080; stroke-width: 0.7; stroke-linecap: round"/>
    <path d="M 251.874176 97.270939 
L 256.093201 95.787757 
L 254.748331 100.052886 
z
" clip-path="url(#pd4dc569b83)" style="fill: #808080; stroke: #808080; stroke-width: 0.7; stroke-linecap: round"/>
   </g>
   <g id="patch_71">
    <path d="M 192.2258 144.583221 
Q 192.282877 144.544772 191.690865 144.943567 
" clip-path="url(#pd4dc569b83)" style="fill: none; stroke: #808080; stroke-width: 0.7; stroke-linecap: round"/>
    <path d="M 187.255979 145.519574 
L 191.690865 144.943567 
L 189.490739 148.83708 
z
" clip-path="url(#pd4dc569b83)" style="fill: #808080; stroke: #808080; stroke-width: 0.7; stroke-linecap: round"/>
   </g>
   <g id="patch_72">
    <path d="M 296.826003 125.517143 
Q 297.574625 124.90615 297.716928 124.790009 
" clip-path="url(#pd4dc569b83)" style="fill: none; stroke: #808080; stroke-width: 0.7; stroke-linecap: round"/>
    <path d="M 293.35343 125.769745 
L 297.716928 124.790009 
L 295.882619 128.868649 
z
" clip-path="url(#pd4dc569b83)" style="fill: #808080; stroke: #808080; stroke-width: 0.7; stroke-linecap: round"/>
   </g>
   <g id="patch_73">
    <path d="M 157.374153 106.462476 
Q 158.014692 105.848561 158.090214 105.776178 
" clip-path="url(#pd4dc569b83)" style="fill: none; stroke: #808080; stroke-width: 0.7; stroke-linecap: round"/>
    <path d="M 153.818521 107.10005 
L 158.090214 105.776178 
L 156.586296 109.987856 
z
" clip-path="url(#pd4dc569b83)" style="fill: #808080; stroke: #808080; stroke-width: 0.7; stroke-linecap: round"/>
   </g>
   <g id="patch_74">
    <path d="M 237.917911 162.099371 
Q 238.078115 162.012476 237.550375 162.298722 
" clip-path="url(#pd4dc569b83)" style="fill: none; stroke: #808080; stroke-width: 0.7; stroke-linecap: round"/>
    <path d="M 233.080724 162.447799 
L 237.550375 162.298722 
L 234.987846 165.963888 
z
" clip-path="url(#pd4dc569b83)" style="fill: #808080; stroke: #808080; stroke-width: 0.7; stroke-linecap: round"/>
   </g>
   <g id="line2d_16">
    <path d="M 38.01875 214.453324 
L 53.100785 212.159525 
L 66.297566 209.929346 
L 79.494347 207.46833 
L 90.805873 205.157114 
L 102.117399 202.642307 
L 113.428926 199.905976 
L 124.740452 196.928607 
L 136.051979 193.688967 
L 145.478251 190.772314 
L 154.904523 187.643079 
L 164.330795 184.285768 
L 173.757067 180.683758 
L 183.183339 176.819213 
L 192.609611 172.672999 
L 200.150628 169.139479 
L 207.691646 165.401385 
L 215.232663 161.446873 
L 222.773681 157.263413 
L 230.314698 152.83775 
L 237.855716 148.155862 
L 245.396734 143.202915 
L 252.937751 137.963215 
L 260.478769 132.42016 
L 268.019786 126.556189 
L 275.560804 120.352721 
L 283.101822 113.790101 
L 290.642839 106.847536 
L 296.298602 101.378088 
L 301.954366 95.672826 
L 307.610129 89.721585 
L 313.265892 83.513758 
L 318.921655 77.038283 
L 324.577418 70.283621 
L 330.233182 63.237733 
L 335.888945 55.888066 
L 341.544708 48.22152 
L 347.200471 40.224434 
L 352.856234 31.882556 
L 358.511997 23.181022 
L 364.167761 14.104325 
L 369.823524 4.636289 
L 373.077773 -1 
L 373.077773 -1 
" clip-path="url(#pd4dc569b83)" style="fill: none; stroke: #0000ff; stroke-width: 2.2; stroke-linecap: square"/>
   </g>
   <g id="patch_75">
    <path d="M 38.01875 246.7 
L 38.01875 25.8 
" style="fill: none; stroke: #000000; stroke-width: 0.8; stroke-linejoin: miter; stroke-linecap: square"/>
   </g>
   <g id="patch_76">
    <path d="M 413.184375 246.7 
L 413.184375 25.8 
" style="fill: none; stroke: #000000; stroke-width: 0.8; stroke-linejoin: miter; stroke-linecap: square"/>
   </g>
   <g id="patch_77">
    <path d="M 38.01875 246.7 
L 413.184375 246.7 
" style="fill: none; stroke: #000000; stroke-width: 0.8; stroke-linejoin: miter; stroke-linecap: square"/>
   </g>
   <g id="patch_78">
    <path d="M 38.01875 25.8 
L 413.184375 25.8 
" style="fill: none; stroke: #000000; stroke-width: 0.8; stroke-linejoin: miter; stroke-linecap: square"/>
   </g>
   <g id="text_18">
    <!-- Direction field of y' = y. Blue: exact y(x) = exp(x) through (0, 1). -->
    <g transform="translate(32.688438 19.8) scale(0.12 -0.12)">
     <defs>
      <path id="DejaVuSans-44" d="M 1259 4147 
L 1259 519 
L 2022 519 
Q 2988 519 3436 956 
Q 3884 1394 3884 2338 
Q 3884 3275 3436 3711 
Q 2988 4147 2022 4147 
L 1259 4147 
z
M 628 4666 
L 1925 4666 
Q 3281 4666 3915 4102 
Q 4550 3538 4550 2338 
Q 4550 1131 3912 565 
Q 3275 0 1925 0 
L 628 0 
L 628 4666 
z
" transform="scale(0.015625)"/>
      <path id="DejaVuSans-69" d="M 603 3500 
L 1178 3500 
L 1178 0 
L 603 0 
L 603 3500 
z
M 603 4863 
L 1178 4863 
L 1178 4134 
L 603 4134 
L 603 4863 
z
" transform="scale(0.015625)"/>
      <path id="DejaVuSans-72" d="M 2631 2963 
Q 2534 3019 2420 3045 
Q 2306 3072 2169 3072 
Q 1681 3072 1420 2755 
Q 1159 2438 1159 1844 
L 1159 0 
L 581 0 
L 581 3500 
L 1159 3500 
L 1159 2956 
Q 1341 3275 1631 3429 
Q 1922 3584 2338 3584 
Q 2397 3584 2469 3576 
Q 2541 3569 2628 3553 
L 2631 2963 
z
" transform="scale(0.015625)"/>
      <path id="DejaVuSans-65" d="M 3597 1894 
L 3597 1613 
L 953 1613 
Q 991 1019 1311 708 
Q 1631 397 2203 397 
Q 2534 397 2845 478 
Q 3156 559 3463 722 
L 3463 178 
Q 3153 47 2828 -22 
Q 2503 -91 2169 -91 
Q 1331 -91 842 396 
Q 353 884 353 1716 
Q 353 2575 817 3079 
Q 1281 3584 2069 3584 
Q 2775 3584 3186 3129 
Q 3597 2675 3597 1894 
z
M 3022 2063 
Q 3016 2534 2758 2815 
Q 2500 3097 2075 3097 
Q 1594 3097 1305 2825 
Q 1016 2553 972 2059 
L 3022 2063 
z
" transform="scale(0.015625)"/>
      <path id="DejaVuSans-63" d="M 3122 3366 
L 3122 2828 
Q 2878 2963 2633 3030 
Q 2388 3097 2138 3097 
Q 1578 3097 1268 2742 
Q 959 2388 959 1747 
Q 959 1106 1268 751 
Q 1578 397 2138 397 
Q 2388 397 2633 464 
Q 2878 531 3122 666 
L 3122 134 
Q 2881 22 2623 -34 
Q 2366 -91 2075 -91 
Q 1284 -91 818 406 
Q 353 903 353 1747 
Q 353 2603 823 3093 
Q 1294 3584 2113 3584 
Q 2378 3584 2631 3529 
Q 2884 3475 3122 3366 
z
" transform="scale(0.015625)"/>
      <path id="DejaVuSans-74" d="M 1172 4494 
L 1172 3500 
L 2356 3500 
L 2356 3053 
L 1172 3053 
L 1172 1153 
Q 1172 725 1289 603 
Q 1406 481 1766 481 
L 2356 481 
L 2356 0 
L 1766 0 
Q 1100 0 847 248 
Q 594 497 594 1153 
L 594 3053 
L 172 3053 
L 172 3500 
L 594 3500 
L 594 4494 
L 1172 4494 
z
" transform="scale(0.015625)"/>
      <path id="DejaVuSans-6f" d="M 1959 3097 
Q 1497 3097 1228 2736 
Q 959 2375 959 1747 
Q 959 1119 1226 758 
Q 1494 397 1959 397 
Q 2419 397 2687 759 
Q 2956 1122 2956 1747 
Q 2956 2369 2687 2733 
Q 2419 3097 1959 3097 
z
M 1959 3584 
Q 2709 3584 3137 3096 
Q 3566 2609 3566 1747 
Q 3566 888 3137 398 
Q 2709 -91 1959 -91 
Q 1206 -91 779 398 
Q 353 888 353 1747 
Q 353 2609 779 3096 
Q 1206 3584 1959 3584 
z
" transform="scale(0.015625)"/>
      <path id="DejaVuSans-6e" d="M 3513 2113 
L 3513 0 
L 2938 0 
L 2938 2094 
Q 2938 2591 2744 2837 
Q 2550 3084 2163 3084 
Q 1697 3084 1428 2787 
Q 1159 2491 1159 1978 
L 1159 0 
L 581 0 
L 581 3500 
L 1159 3500 
L 1159 2956 
Q 1366 3272 1645 3428 
Q 1925 3584 2291 3584 
Q 2894 3584 3203 3211 
Q 3513 2838 3513 2113 
z
" transform="scale(0.015625)"/>
      <path id="DejaVuSans-20" transform="scale(0.015625)"/>
      <path id="DejaVuSans-66" d="M 2375 4863 
L 2375 4384 
L 1825 4384 
Q 1516 4384 1395 4259 
Q 1275 4134 1275 3809 
L 1275 3500 
L 2222 3500 
L 2222 3053 
L 1275 3053 
L 1275 0 
L 697 0 
L 697 3053 
L 147 3053 
L 147 3500 
L 697 3500 
L 697 3744 
Q 697 4328 969 4595 
Q 1241 4863 1831 4863 
L 2375 4863 
z
" transform="scale(0.015625)"/>
      <path id="DejaVuSans-6c" d="M 603 4863 
L 1178 4863 
L 1178 0 
L 603 0 
L 603 4863 
z
" transform="scale(0.015625)"/>
      <path id="DejaVuSans-64" d="M 2906 2969 
L 2906 4863 
L 3481 4863 
L 3481 0 
L 2906 0 
L 2906 525 
Q 2725 213 2448 61 
Q 2172 -91 1784 -91 
Q 1150 -91 751 415 
Q 353 922 353 1747 
Q 353 2572 751 3078 
Q 1150 3584 1784 3584 
Q 2172 3584 2448 3432 
Q 2725 3281 2906 2969 
z
M 947 1747 
Q 947 1113 1208 752 
Q 1469 391 1925 391 
Q 2381 391 2643 752 
Q 2906 1113 2906 1747 
Q 2906 2381 2643 2742 
Q 2381 3103 1925 3103 
Q 1469 3103 1208 2742 
Q 947 2381 947 1747 
z
" transform="scale(0.015625)"/>
      <path id="DejaVuSans-27" d="M 1147 4666 
L 1147 2931 
L 616 2931 
L 616 4666 
L 1147 4666 
z
" transform="scale(0.015625)"/>
      <path id="DejaVuSans-3d" d="M 678 2906 
L 4684 2906 
L 4684 2381 
L 678 2381 
L 678 2906 
z
M 678 1631 
L 4684 1631 
L 4684 1100 
L 678 1100 
L 678 1631 
z
" transform="scale(0.015625)"/>
      <path id="DejaVuSans-42" d="M 1259 2228 
L 1259 519 
L 2272 519 
Q 2781 519 3026 730 
Q 3272 941 3272 1375 
Q 3272 1813 3026 2020 
Q 2781 2228 2272 2228 
L 1259 2228 
z
M 1259 4147 
L 1259 2741 
L 2194 2741 
Q 2656 2741 2882 2914 
Q 3109 3088 3109 3444 
Q 3109 3797 2882 3972 
Q 2656 4147 2194 4147 
L 1259 4147 
z
M 628 4666 
L 2241 4666 
Q 2963 4666 3353 4366 
Q 3744 4066 3744 3513 
Q 3744 3084 3544 2831 
Q 3344 2578 2956 2516 
Q 3422 2416 3680 2098 
Q 3938 1781 3938 1306 
Q 3938 681 3513 340 
Q 3088 0 2303 0 
L 628 0 
L 628 4666 
z
" transform="scale(0.015625)"/>
      <path id="DejaVuSans-75" d="M 544 1381 
L 544 3500 
L 1119 3500 
L 1119 1403 
Q 1119 906 1312 657 
Q 1506 409 1894 409 
Q 2359 409 2629 706 
Q 2900 1003 2900 1516 
L 2900 3500 
L 3475 3500 
L 3475 0 
L 2900 0 
L 2900 538 
Q 2691 219 2414 64 
Q 2138 -91 1772 -91 
Q 1169 -91 856 284 
Q 544 659 544 1381 
z
M 1991 3584 
L 1991 3584 
z
" transform="scale(0.015625)"/>
      <path id="DejaVuSans-3a" d="M 750 794 
L 1409 794 
L 1409 0 
L 750 0 
L 750 794 
z
M 750 3309 
L 1409 3309 
L 1409 2516 
L 750 2516 
L 750 3309 
z
" transform="scale(0.015625)"/>
      <path id="DejaVuSans-61" d="M 2194 1759 
Q 1497 1759 1228 1600 
Q 959 1441 959 1056 
Q 959 750 1161 570 
Q 1363 391 1709 391 
Q 2188 391 2477 730 
Q 2766 1069 2766 1631 
L 2766 1759 
L 2194 1759 
z
M 3341 1997 
L 3341 0 
L 2766 0 
L 2766 531 
Q 2569 213 2275 61 
Q 1981 -91 1556 -91 
Q 1019 -91 701 211 
Q 384 513 384 1019 
Q 384 1609 779 1909 
Q 1175 2209 1959 2209 
L 2766 2209 
L 2766 2266 
Q 2766 2663 2505 2880 
Q 2244 3097 1772 3097 
Q 1472 3097 1187 3025 
Q 903 2953 641 2809 
L 641 3341 
Q 956 3463 1253 3523 
Q 1550 3584 1831 3584 
Q 2591 3584 2966 3190 
Q 3341 2797 3341 1997 
z
" transform="scale(0.015625)"/>
      <path id="DejaVuSans-28" d="M 1984 4856 
Q 1566 4138 1362 3434 
Q 1159 2731 1159 2009 
Q 1159 1288 1364 580 
Q 1569 -128 1984 -844 
L 1484 -844 
Q 1016 -109 783 600 
Q 550 1309 550 2009 
Q 550 2706 781 3412 
Q 1013 4119 1484 4856 
L 1984 4856 
z
" transform="scale(0.015625)"/>
      <path id="DejaVuSans-29" d="M 513 4856 
L 1013 4856 
Q 1481 4119 1714 3412 
Q 1947 2706 1947 2009 
Q 1947 1309 1714 600 
Q 1481 -109 1013 -844 
L 513 -844 
Q 928 -128 1133 580 
Q 1338 1288 1338 2009 
Q 1338 2731 1133 3434 
Q 928 4138 513 4856 
z
" transform="scale(0.015625)"/>
      <path id="DejaVuSans-70" d="M 1159 525 
L 1159 -1331 
L 581 -1331 
L 581 3500 
L 1159 3500 
L 1159 2969 
Q 1341 3281 1617 3432 
Q 1894 3584 2278 3584 
Q 2916 3584 3314 3078 
Q 3713 2572 3713 1747 
Q 3713 922 3314 415 
Q 2916 -91 2278 -91 
Q 1894 -91 1617 61 
Q 1341 213 1159 525 
z
M 3116 1747 
Q 3116 2381 2855 2742 
Q 2594 3103 2138 3103 
Q 1681 3103 1420 2742 
Q 1159 2381 1159 1747 
Q 1159 1113 1420 752 
Q 1681 391 2138 391 
Q 2594 391 2855 752 
Q 3116 1113 3116 1747 
z
" transform="scale(0.015625)"/>
      <path id="DejaVuSans-68" d="M 3513 2113 
L 3513 0 
L 2938 0 
L 2938 2094 
Q 2938 2591 2744 2837 
Q 2550 3084 2163 3084 
Q 1697 3084 1428 2787 
Q 1159 2491 1159 1978 
L 1159 0 
L 581 0 
L 581 4863 
L 1159 4863 
L 1159 2956 
Q 1366 3272 1645 3428 
Q 1925 3584 2291 3584 
Q 2894 3584 3203 3211 
Q 3513 2838 3513 2113 
z
" transform="scale(0.015625)"/>
      <path id="DejaVuSans-67" d="M 2906 1791 
Q 2906 2416 2648 2759 
Q 2391 3103 1925 3103 
Q 1463 3103 1205 2759 
Q 947 2416 947 1791 
Q 947 1169 1205 825 
Q 1463 481 1925 481 
Q 2391 481 2648 825 
Q 2906 1169 2906 1791 
z
M 3481 434 
Q 3481 -459 3084 -895 
Q 2688 -1331 1869 -1331 
Q 1566 -1331 1297 -1286 
Q 1028 -1241 775 -1147 
L 775 -588 
Q 1028 -725 1275 -790 
Q 1522 -856 1778 -856 
Q 2344 -856 2625 -561 
Q 2906 -266 2906 331 
L 2906 616 
Q 2728 306 2450 153 
Q 2172 0 1784 0 
Q 1141 0 747 490 
Q 353 981 353 1791 
Q 353 2603 747 3093 
Q 1141 3584 1784 3584 
Q 2172 3584 2450 3431 
Q 2728 3278 2906 2969 
L 2906 3500 
L 3481 3500 
L 3481 434 
z
" transform="scale(0.015625)"/>
      <path id="DejaVuSans-2c" d="M 750 794 
L 1409 794 
L 1409 256 
L 897 -744 
L 494 -744 
L 750 256 
L 750 794 
z
" transform="scale(0.015625)"/>
     </defs>
     <use xlink:href="#DejaVuSans-44"/>
     <use xlink:href="#DejaVuSans-69" transform="translate(77.001953 0)"/>
     <use xlink:href="#DejaVuSans-72" transform="translate(104.785156 0)"/>
     <use xlink:href="#DejaVuSans-65" transform="translate(143.648438 0)"/>
     <use xlink:href="#DejaVuSans-63" transform="translate(205.171875 0)"/>
     <use xlink:href="#DejaVuSans-74" transform="translate(260.152344 0)"/>
     <use xlink:href="#DejaVuSans-69" transform="translate(299.361328 0)"/>
     <use xlink:href="#DejaVuSans-6f" transform="translate(327.144531 0)"/>
     <use xlink:href="#DejaVuSans-6e" transform="translate(388.326172 0)"/>
     <use xlink:href="#DejaVuSans-20" transform="translate(451.705078 0)"/>
     <use xlink:href="#DejaVuSans-66" transform="translate(483.492188 0)"/>
     <use xlink:href="#DejaVuSans-69" transform="translate(518.697266 0)"/>
     <use xlink:href="#DejaVuSans-65" transform="translate(546.480469 0)"/>
     <use xlink:href="#DejaVuSans-6c" transform="translate(608.003906 0)"/>
     <use xlink:href="#DejaVuSans-64" transform="translate(635.787109 0)"/>
     <use xlink:href="#DejaVuSans-20" transform="translate(699.263672 0)"/>
     <use xlink:href="#DejaVuSans-6f" transform="translate(731.050781 0)"/>
     <use xlink:href="#DejaVuSans-66" transform="translate(792.232422 0)"/>
     <use xlink:href="#DejaVuSans-20" transform="translate(827.4375 0)"/>
     <use xlink:href="#DejaVuSans-79" transform="translate(859.224609 0)"/>
     <use xlink:href="#DejaVuSans-27" transform="translate(918.404297 0)"/>
     <use xlink:href="#DejaVuSans-20" transform="translate(945.894531 0)"/>
     <use xlink:href="#DejaVuSans-3d" transform="translate(977.681641 0)"/>
     <use xlink:href="#DejaVuSans-20" transform="translate(1061.470703 0)"/>
     <use xlink:href="#DejaVuSans-79" transform="translate(1093.257812 0)"/>
     <use xlink:href="#DejaVuSans-2e" transform="translate(1138.1875 0)"/>
     <use xlink:href="#DejaVuSans-20" transform="translate(1169.974609 0)"/>
     <use xlink:href="#DejaVuSans-42" transform="translate(1201.761719 0)"/>
     <use xlink:href="#DejaVuSans-6c" transform="translate(1270.365234 0)"/>
     <use xlink:href="#DejaVuSans-75" transform="translate(1298.148438 0)"/>
     <use xlink:href="#DejaVuSans-65" transform="translate(1361.527344 0)"/>
     <use xlink:href="#DejaVuSans-3a" transform="translate(1423.050781 0)"/>
     <use xlink:href="#DejaVuSans-20" transform="translate(1456.742188 0)"/>
     <use xlink:href="#DejaVuSans-65" transform="translate(1488.529297 0)"/>
     <use xlink:href="#DejaVuSans-78" transform="translate(1548.302734 0)"/>
     <use xlink:href="#DejaVuSans-61" transform="translate(1607.482422 0)"/>
     <use xlink:href="#DejaVuSans-63" transform="translate(1668.761719 0)"/>
     <use xlink:href="#DejaVuSans-74" transform="translate(1723.742188 0)"/>
     <use xlink:href="#DejaVuSans-20" transform="translate(1762.951172 0)"/>
     <use xlink:href="#DejaVuSans-79" transform="translate(1794.738281 0)"/>
     <use xlink:href="#DejaVuSans-28" transform="translate(1853.917969 0)"/>
     <use xlink:href="#DejaVuSans-78" transform="translate(1892.931641 0)"/>
     <use xlink:href="#DejaVuSans-29" transform="translate(1952.111328 0)"/>
     <use xlink:href="#DejaVuSans-20" transform="translate(1991.125 0)"/>
     <use xlink:href="#DejaVuSans-3d" transform="translate(2022.912109 0)"/>
     <use xlink:href="#DejaVuSans-20" transform="translate(2106.701172 0)"/>
     <use xlink:href="#DejaVuSans-65" transform="translate(2138.488281 0)"/>
     <use xlink:href="#DejaVuSans-78" transform="translate(2198.261719 0)"/>
     <use xlink:href="#DejaVuSans-70" transform="translate(2257.441406 0)"/>
     <use xlink:href="#DejaVuSans-28" transform="translate(2320.917969 0)"/>
     <use xlink:href="#DejaVuSans-78" transform="translate(2359.931641 0)"/>
     <use xlink:href="#DejaVuSans-29" transform="translate(2419.111328 0)"/>
     <use xlink:href="#DejaVuSans-20" transform="translate(2458.125 0)"/>
     <use xlink:href="#DejaVuSans-74" transform="translate(2489.912109 0)"/>
     <use xlink:href="#DejaVuSans-68" transform="translate(2529.121094 0)"/>
     <use xlink:href="#DejaVuSans-72" transform="translate(2592.5 0)"/>
     <use xlink:href="#DejaVuSans-6f" transform="translate(2631.363281 0)"/>
     <use xlink:href="#DejaVuSans-75" transform="translate(2692.544922 0)"/>
     <use xlink:href="#DejaVuSans-67" transform="translate(2755.923828 0)"/>
     <use xlink:href="#DejaVuSans-68" transform="translate(2819.400391 0)"/>
     <use xlink:href="#DejaVuSans-20" transform="translate(2882.779297 0)"/>
     <use xlink:href="#DejaVuSans-28" transform="translate(2914.566406 0)"/>
     <use xlink:href="#DejaVuSans-30" transform="translate(2953.580078 0)"/>
     <use xlink:href="#DejaVuSans-2c" transform="translate(3017.203125 0)"/>
     <use xlink:href="#DejaVuSans-20" transform="translate(3048.990234 0)"/>
     <use xlink:href="#DejaVuSans-31" transform="translate(3080.777344 0)"/>
     <use xlink:href="#DejaVuSans-29" transform="translate(3144.400391 0)"/>
     <use xlink:href="#DejaVuSans-2e" transform="translate(3183.414062 0)"/>
    </g>
   </g>
  </g>
 </g>
 <defs>
  <clipPath id="pd4dc569b83">
   <rect x="38.01875" y="25.8" width="375.165625" height="220.9"/>
  </clipPath>
 </defs>
</svg>
